<mxfile host="app.diagrams.net" modified="2024-05-15T13:59:03.276Z" agent="Mozilla/5.0 (Windows NT 10.0; Win64; x64) AppleWebKit/537.36 (KHTML, like Gecko) Chrome/124.0.0.0 Safari/537.36" etag="ODfgl86VwGBrToImcUhY" version="24.4.0" type="device">
  <diagram id="C5RBs43oDa-KdzZeNtuy" name="Page-1">
    <mxGraphModel dx="1195" dy="622" grid="1" gridSize="10" guides="1" tooltips="1" connect="1" arrows="1" fold="1" page="1" pageScale="1" pageWidth="827" pageHeight="1169" math="0" shadow="0">
      <root>
        <mxCell id="WIyWlLk6GJQsqaUBKTNV-0" />
        <mxCell id="WIyWlLk6GJQsqaUBKTNV-1" parent="WIyWlLk6GJQsqaUBKTNV-0" />
        <mxCell id="Hey_0Endjz0srx_wIcTM-12" value="" style="rounded=0;whiteSpace=wrap;html=1;" vertex="1" parent="WIyWlLk6GJQsqaUBKTNV-1">
          <mxGeometry x="110" y="150" width="210" height="160" as="geometry" />
        </mxCell>
        <mxCell id="Hey_0Endjz0srx_wIcTM-14" style="edgeStyle=orthogonalEdgeStyle;rounded=0;orthogonalLoop=1;jettySize=auto;html=1;" edge="1" parent="WIyWlLk6GJQsqaUBKTNV-1" source="Hey_0Endjz0srx_wIcTM-0" target="Hey_0Endjz0srx_wIcTM-1">
          <mxGeometry relative="1" as="geometry" />
        </mxCell>
        <mxCell id="Hey_0Endjz0srx_wIcTM-0" value="" style="shape=image;verticalLabelPosition=bottom;labelBackgroundColor=default;verticalAlign=top;aspect=fixed;imageAspect=0;image=data:image/png,iVBORw0KGgoAAAANSUhEUgAAAgAAAAIACAMAAADDpiTIAAADAFBMVEX////dbBDtgQjZZhLrfgrjdA7hcA7ldgzfbhDneAzbaBLpfArxhwbjcg7ziQbpegrvgwjXZBTvhQjTXhbhcg7dahDRXBbnegzbahLVYBTVYhT3jwT1iwTrfAr5kQLldAz1jQTtgwjXYhT3jQT7kwLNVhjPWBjxhQbfbBDZaBLPWhjRWhbziwb1iwbxhQjTYBTXZBLfcBDbahDNWBjLVBrPWhb7lQL9lwDZZBLleAzzhwbtgQr5jwT9lQLldA7LVBj5kwL5kQTpegz9lQDTYBbfcA7JUhrtfgrLUhr/mQDTXBb/lwDLVhjvrW775c/zx5/xr2z3y5398uj//fvnexT//PrvwaH98eT///3/+/fleBX+9u/pkD399Oz99e3cfkTdgUThcxX75tP+9/H/+fT87uPnjT3//f3xmjr/+fbuv6L++PPcbBX3zZ3769798+n53sP759jtlTz86tnvmTrulzvljUHJUBr64svywprrhx/pjTXokUTqnlz1x531w5Lzr2b54tH97t7lginjfCX52rzthhXxs3Togh/phynfdCD22MHjhjv306/2x5f40an538fsnlT0vYTxuIXyvZDwvZbfcBXjdhXvrnLpp3blhTL42LjtpmX2zJ/0y6nllVbddSvkex/to17pfhTsl0LvsnzmfR3wpFf98OH31LT428Lvt4rbdzfzz7Xbbh/1z67wljTghELtrnrqmlP438vvjSDmiDXxyKrzvYruqmzsjCr3zqTgfTb2y6P1t3X317zvtIT75M7tkjTqroTWZh/pfA31x5/2worli0DnnWTytnzooWzplk3ifSzwoEzjjU7thA3ieB7xxKTxpFHvkCrtto/yqVzjlmHtm0vwqmPvm0P517PrgQ3qghXqpW31zqrxnkXfhkn11Ln1u3zhchDxsG7ZbifaaBfneg7hcBDnlE3qfg3ZZhbzyKLsuJjldg7romPjdBDVYxnXZhXtq3DXZBfleBD0s2zleA7neA7VYBftq27twaXjchDTXhr5y5sfbK1jAAAACXBIWXMAAAsTAAALEwEAmpwYAAAgAElEQVR42u2de5BV9ZXv9+Gc0w+2N53WM+e07b32WDOpW6f/obuRmerhD+fW7U3VVFAMD2kQTACRIfaASgbl5QtQfEaigiI+Ebw+ggpKFDVGhYlRURmTSKLEhLRA0ipiK+GaKe6t895r7efZe/0e+7FbLVNFYZrz7c/+rbW+v/VV0h2lp9Hm6TV5mstPTve04Ec1PkND5X9J2T1jx45w+Zyhf76JnpNLz/80e06ye75h+fx3++dvjc/fVZ7T8HO6y+efK8/fG59/KD//2+z5R8vn29/+l9KjpNPpjsIXkQJy4MuHAlIjal9Wn/2Ib9algJNPOrn4t7kCvsFCAaf97WmWCvhfBQlUvsw+9tP/vvxVjwL+wVoB3/7Hf6l+VRVQFEDhSTNgQI6IASlrAHyzfgacfJIFA74hkAGniWJAQQBFBtC9BWoAUIkYYM3/et8CBQBYMuAkgQw4XRQDygLoKL4GGJwDchQMsBPBN72cA06WjgGniWJASQDl1wCDc0ALBQMoT4LgGCAPA04XxYCqANJMGJBTKc4BKWoGWL8FRDHgNFEMqAiAuBqsAYDiHDCCmgHynQNOF8WAqgCYMKAIAP/ngBQ9A2SrBU4TxYCaAGgZUD0BUJwDqDtCEtYCp4tigE4A9AwoACCnlipCPwxIMWGAVLXAaaIYoBcA+TmApiucYtAVlq4WOJ0rA3QIAAKgZgBRV9hNWzj4tYAgBkABMJsMqTnZJkPS1QKCGIAEwIoBfmsBRgyQqxYQwgAsACYMUH33BJkw4KSYAUYCMGEARU8wFdcCTBhgFAA9A1SKnuDYuBZgwgATAdAzgKYnGNcCLBhgJgBiBqhEPcG4FmDBAFMByNoTjGsBegaYC0DSnmBcC9AzQMmkeTBA8p5ghGsBJZPhwQDJe4IRrgWUTIYvA+JaQC4GFATAkQGS9gQjXAsUBcCPATL3BKNZC5QEwIsB8vYEI1sLlAXAiwFS9wQjWQtUBMCFAZL3BCNZC1QFwIcBkvcEI1gL1ASQiXxPMJK1gE4AcU8wirWAXgBxTzCCtQAQQNwTjF4tAAUQ9wQjVwsgAcQ9wajVAlgAcU8wYrWAQQBxTzBatYBRAHFPMFK1gIkA4p5glGoBMwHEPcEI1QKmAoh7gtGpBcwFEPcEI1MLWAgg7glGpRawEkDcE4xILWApgLgnGI1awFoAcU8wErWAjQDinmAUagE7AcQ9wQjUAkpDRjQD4rvDIhmgNDSIZkB8d1gkA5SGBvEMiO8Oi2NAQQDCGRDfHRbHgKIA5GFAXAvwZkBJAJIwIL47zJ8BitYgDwPiu8P8GaBomjQMiO8OC2CAog3Kw4D47jB/BiiaJgsD4rvDIhhQIIA0DIjvDvNnQJEAsjAgvjvMnwElAgzKVAvEd4d5MqBMAIlqgfjuMFcGVAggHQPiWoAPA6oEkIsB8d1hXgwoCEBCBsR3h3kxQEeAuCcYxVqgJADpGBDfHebFAECAuCcYvVqgIgDJGBDfHebFAESAuCcYtVqgJoDBuCcYxVrAQIC4JxitWkAvgLgnGMFawIQAcU8wSrWA0q1JxoCll7l5/t3i+YHT86+G56l3o1wLKN3dMjHg8MeLFO5P/yXvRbcWULq7JWLApnsUEU9//8/fjWotoDR1y8OAwz9UBD39P41qLaA0NcnDgH2KsOfCZ9+NZi2gNDXJw4CXxAmg/9aI1gIFAUjDgHMUkQiIZi1QFIAsDLhWoACUH0VzLlASgCQMmCtSAOdfd0YU5wJlAcjBAKECUP4YyblARQBSMECsABZeF8W5QFUAMjDg/wgVgPKXKM4FagKQgAGCBXDtuxH0COkEIJ4BegFMubf2fIfV829QcldH0COkF4BwBug/joutHSKE0+GrgQAWnRE9jxAQgGgGzAUCQArIUbnE9AaRDwEC+h+JnkcICkAwA5AAbBhA5hL7C0DAK2dEziOEBCCWAVgARq9w5Yvs1th1EwEC3o6cRwgLQCgDDAKwOwfkaBjwR4CA1WdE7b6AQQAiGTDVIACbc0ALzTnguvOBAn4btfsCRgEIZICJACwZkKNyi/8cCOCDqN0XMBGAOAaYCcDqHOD3vkDVKL70YnAKeCpi9wXMBCCMAUAA9m5xgrvDlU/41n69An4YsfsCpgIQxQC9AOZY3RfItRDdHa4w4NkpAAG/jNZ9AXMBCGIAEgDzu8PlD/jfwCng/0Xr7rCFAMQwAAuA+d3hEgJ+OUkvgGnPRurusJUAhDDAIADmd4dLny90o191RpTuDlsKQAQDjAJgfXe4hIAfzNMfAi5+Nkp3h60FIIABJgJgfne4+PHeY2EPjUAtYCMA/gwwEwDzu8MFBPwW2UMjdHfYTgDcGWAqAOb7BAuf7iVAAT+N0B4hJdEkDwP0Ajif2z7BAgLeAwKY+m509ggpiYQ8DLAQAPN9giNGjDjH0h4a8lpASSSkYcAxKwEw3yeYGvFrc3to+GuBggCkYYClANj3BMfCxRS/HhuVPUJFAUjCAECACzjvE4T20Nljo7JHqCQASRhgIwDmPUFoD1XeGxuRnaJlAcjBgIk2AmC+T/CnQABXRGWnaEUAUjDAVgCse4LXLQQK+H1EdopWBSADA+wFwLgnOOJH0B4akZ2iNQFIwAAHATDuCV43ByjgX6OxU1QnAPEMcBIA454gtIfeEo2donoBCGcAEAD/jJFnp+kFMO+pSOQLAAGIZgAUAP+MkVsBAl6IRL4AFIBgBugFMFNAxshOgIBJv4xCvgASgFgGLEQC4J0xMuIFgIBbo5AvgAUglAEGAfDOGHm138keGrZawCgAkQwwCoBzxsiIWwACfh6BfAGjAAQywEQAnDNGgD1UmXPdiLBnjZkJQBwDzATAOWNktdXqwLDWAmYCEMYAUwHwzR3+PbaHhjxrzFwAohhgLgC+ucO3OdhDw1YLmAtAEAMsBMC1J4jtoSHPGrMSgBgG6AWwUFTu8DnWqwPDWAtYCUAIA2ZaCYBnT/A30B76Ybhzh60FIIIB1gLg1xMc+yGyh4Y8d9haAAIYYCMAjj3BvyB7aLhzh20EwJ8BdgLg1xNE20PfC3fusJ0AuDPAVgD8eoLQHnqJQ+xwwGsBWwHwZoC9ALj1BK+b6cIeGpZaQOlJyMMABwFw6wlCe+g9TLLHZakFlJ4eeRigF8BE/9njXnuCaHWg8gPy7HGJagGlp0ceBlzgJABePcGrFLg6MMXgHCBJLaD0JORhgLMAOPUEn53vsDowPLVAgQDSMMCFADj1BL8DEHDvWCYMkKIWKBBAGga4EQCfniBcHTjJJQKCWAuUCCAJA1wJgE9P8IfIHppiwwDxtUCJAJIwwJ0AuPQEXwXesIufHTFiRDhrgQoBpGCASwFw6Ql+AO2hKUYMEF4LVAggBQPcCoBHT/AHCrSHjmXDAOHngBoBJGCAXgBT042EDPDQE3wM3BH449ixbiAQvFqgRgAJGKCP75lad/Y4cU/wbZQsPZYJA4TXAnoCCGcAEMBROgV46wleAVcHptgxQGQtoCeAcAZAAqTJFOCtJ/gItId+mBo7NoS1ACSAYAagV0Cd2ePkPcFLwSng6hQ7BgisBYrDIFkYYCAAGQO89ARHQHvoog9TzBgg8BygtPXIwwAjAdIdjcT9gDp6gh9eC+2hKYYMEFYLKG1t8jBAL4Dzz677Off5t9eQ9gSBPbT/FWP6fAhqAaWtTR4GwBRXL8+UF5Yep+sJ7gfJ0srbKaYMEFMLFAQgDQP8C0BR5i6j6wmqMFn6khQ7BgirBYoCkIUBcwgEoCyaTNcT3H8BTJZOMWWAkFqgJABJGEBBAEV5g7AnCO2hH6SYMkDIOaAsADkYQEIAZeEmup4gtIfOeyrFlgECaoGKAKRgAI0AlOsJe4LIHppiyQAhtUBVADIwYCqNAKZOpusJPotWB37ImgG8a4GaACRgwGM0Auh/nqwnqA5Be+h3UqlUuGoBnQDEM+BLGgEoiw7T9QR/OQ+uDsTJ00GvBfQCEM6A9ZcSKeAhQp8gSpZOsWYA53OAMrJNIgZsIDoFzM7R+QSfgvbQpSOYM4BrLaCMHCkPA9KZlfdNIlHAWkKfIEqWTjFmAOdaQBk5UioGZB5c+/xfjY/zJOhe8DHdRugTxMnSOHk62LVAQQAjZToHeM0dngwu9ffvI/QJomTpVCoVolpAyY+UjQHecoeP3w4znwh9gsgeun8EBwZwqwWUfD4cDOjdAvuIlxH6BF9B9lAODOB2DlDy+bAw4A6Y+UToE0TJ0h/i5Okg1wIFAYSDAcfXgEv9yjJCnyDsT/wmxZ4B3GqBogDCwYDjKPOJ0CcIk6UXjU3xYQCPWqAkgFAw4MgNU8Dsdifd3WGcLJ1KpcJSC5QFEA4GvAQ+pisJ7w5fD5OlDcnTwa0FKgIIBQOWwcHNDWR3h7E99PcpPgzgcA6oCiAUDICZT1c10t0dhvbQ1SleDGBeC9QEEAYGzAAIuHAN2d3h1P45JvbQMNQCOgGEgQFocEN4d/jnZvbQENQCegGEgAEPw8HNJrq7w0svBCXGq6lUKhS1ABBACBhwCXaIk90dRl2GFD8GMK0FoACCz4C1cHAzmezu8P/YOQXaQ1PcGMD0HIAEEHwGwMHNx3R3h1PQcXBriiMDGNYCWACBZ8BD8KbgZLp9gnB7aM0eGuxawCCAoDPg+Gw4uCHcJ4iSpYe4MoBVLWAUQMAZcAzt9ThOt08Q20NTqVTwawETAQScAcfgXo9HCPcJrrayhwa4FjATQMAZcBf4mM4h3CcIk6Uv2J/iyQBG5wBTAQSbAZPh5YK1zXT7BG+ztIcGthYwF0CwGfAG3OtBuE/wPbw6kCMDGNUCFgIINAOgQ1x5+BjdPkGULD3EmwH0tYCVAILMAOQQv4dwn6CdPTSYtYClAILMgDUw9m0G3T7BoUWG1YEBrwWUZD58DOiAez2eJMwYORdeQh1KcWYA+TlASSZDyICVcHa7jC5jZMjWHhrAWkBJJsPIgCvBx/QSWcbI0O6f2tpDg1cLFAQQQgZAh/iUG+gyRvajZGlVAAMoa4GiAELIgPvg7JYwYwQlS6d4M4C4FigJIHwMwA5xuoyR/bDE+HdbBchfC5QFED4GwNntc3QZI7uhPfSWlAAGEJ4DKgIIHQOgQ/ziNXQZI0vnO9hDA1ULVAUQOgaA2W3/7XQZI7uhPfTeFH8GENYCNQGEjQH74Ox28jGyjBFoD52yMyWGATS1gE4AIWNAGs5u3yDMHX4BlhhqKhXcWkAvgJAxADrEJ06myx2GydIXLlXFMICkFgACCBkDoEP8bMLcYWQPVcUwgOQcAAUQLgZAh/i1x+hyhy+DJcZ1qiAGENQCSAChYsARuNpnI2HuMLSH/lEVwgCSWgALIFQMeB58TJcep8sd3odWB6rCGOC3FlCSyeHQMuDYXOgQp8sdTsES43pVVQNaCxgIECoGoNU+hLnDOFlaFcYAn7VAUQChZcB0uNpnH13u8G54A+1qVRgDfJ4DTAgQJgZAh/hjhLnD6AbakCqOAb5qgbIAwsqALTCK8GHP6fOGnuDQAmgPVUUxwGctYEqAEDHgOfAxPXrMJwN0tcDHyB6qimSA91qgKoBwMiC9BtpDZzT6YQDoCW5CydKqqgaxFrAgQFgY0IEc4h8db/TBANgTRDfQhlSRDPBcC+gEEDAGrFmx+aEdTgxId6yEyY/LGr0zAPUEcbL0kEgGeD4HWBJAcgY8+Ok0pV9Rblpmz4COjg7oEP+PxkbvDEA9QWQPHRLLAI+1ABBAcBiwstLmn/OWLQPSHUdvmIQd4h4VYOgJwtWB/ZcNCWSA51rAhgAyM+Dl2pz/wbTtW+BI+iO4QPhIo4+3AOwJomRpVTQDvNQCSlcygAxYoftzX+JwEuxADvE1jZ4VgHoCu5eC80X/TnVoKHC1gNLVFUAGXKH/RFdmHN4Cjxod4o0kPcHdMFn6XlU0AzzUAkpXV/AYsB38ud/h0A84MgP88jlb/CgA9gR3wvPFTlUwAzycAwoCCBwDYMz8havSDgqAv/6NIxQMKNUCKFlaFc6AumuBwisgaAxYjoKCn3PqCEH7xvmTG30zoFIRGOyhYhngoRYoEiBgDDiABDDnQaeuMLJvpBv9MqDaEvgArg4ckoAB9dUCpVdAoBhw0TycFX67Q1f4CHSIT53e6JMBtZ4gCijYr6pqsGoBpbUraAx40hAWf8HetIMC4Hav5xsbfTKg2hNsQQEFQ6oarFpAaW0NGAN2GACgKG84TIaOQof4gmP+FFADQK7lbaM9NFC1gNLaGjAGvGT8/JWZ0x0UcAzaNx460uj3LVAGQEvuChhQoKpqoGqBggACxYCVU0wEoGxzmg5Dh/jsI43+FFAZCuRaWqA99NohVTgD6qoFigIIEAO0JWafvzJxfdpeAdOhQ3xtY6Pvc0BOLYIA2UN/o8rBALe1QEkAwWHAqmmmAlC+dHKIbLZyiPt4CxQAkNuN7KG7VVUNUC1QFkBgGHCH+eevzF3voIDpC6FDPO2fAWrp700ooECVgwEua4GKAALCgL1zLASgPO/kEoMLhFc3EjAgV6IAun6iqlIwwOU5oCqAYDDgdqvPX1lw1EEB2CGeJnkLFM4BFvbQYNQCNQEEgAHd62daCkD53MkpCt8ejzb6Z0ClKwSSpfsfU6VggMtaQCeAADBgGxwDwsu/gw4KWDMfLRAmeAuU/EH7EVxUaRjgXAvoBSA9A2ZB1q5A/9PJLQ4ryI8aKRRQeuD1kw9UVZJzgItaAAhAdgZ8Cf6crxmEpd01TvcFYA9p0g3H0jQMaGnBydKqNAxwrAWgAORmwCDs565oQEeC7Q4KaPwU/PIJjTQMKPSEsT1UGgY4ngOQAKRmwEbYcRlsaPgZLMCc7gxtgOGvN6Sp3gI5lCy9c7c8DHCoBbAAJGZAN1r5o2kNe+Hp6y0HBTTCSfJVjSQMKI6FYLL0laosDHCsBQwCkJcBK2Drb1ZhNvg4vP/vdG/won5QRaxJE70FWnLQHjpt6W5VDUYtYBSAtAy4Bjb/i8eCB8Hu9v4/OyngHugkaiRiQMvullsM9tBg1AImApCUAdvR+K+7OByE3Z2Xne4OQz/pxVuIFGBuDw1CLWAqACkZ0A293ZsHy9NB0N1RFjspADnEO2gUkGvJ7YZw+ZEqEwMsFfBP5gKQkQHLkQuwYhCA3Z1HnfYHQI4snN5BxoCHUbK0KhUDLGsBpb01GAx4Gb69LQwC8y5yUgB0iN/VQcaAFpQsrUrEAJtaQGlvDwQDXoev2FU1j9AEGBLptEME1RLTO8gYAJOlJ25SJWOAeS2gtLcHggGwgr/D0iQ4b4eTAqCDa2MHmQJy0Ht+rqqqAagFCgIIAAM2gD/baasGax4hDTZ473PaI4T6iUdw9rh3Bfza1B4qeS1QFID8DIAxgEuASwg2eCdtcFDAUeQQ76BiQG73pWarAyWvBUoCkJ0Be2BKzwa9T1DT4AqQCU67xP4Kfvk5BQQQMeBc0GicvVuVjQEmtUBZAHIzoBvUev33adAqCu8KTVrpoIDpU6FDvOMIlQIOg2Tp/kdUuRhgWgtUBCA1A1CptwO7xeEKkCVO+wShjeC20jo5EgUge2iLKh8DcC1QFYDMDID93ieBS+xP2qAG7wtPW+mggOnQRvBWaZ0chQI2Qe/5b1tUVfZaoCYAeRmwF6b1Lja6xQ+Y7oyxVAD0Ft9TJAANA+DqwNUtEjIAvQV0ApCVAQk4833Z4BYf1GCfeP4qBwVsgbcLZqRx9rhnBWyCv/NlLfIxAClALwBJGTALEnv5OpMbI4+Z74yxUgB8p9xiyB73rgCULL1bRgaAWgAIQEoGJOCZ7RkTt/iftD9b7IyxUMBK5BA3ZI97VcBh5D1/NScdA1AtAAUgIwPWQfP3dvM7Q7dZ7IyxUACcIb6UpmMATJZ+oQVnj8tWCyABSMgA5AXvNr81th1Nix0UgB3iaTIG3ICSpXH2uGy1ABaAdAxYh7zgVvcG4aKOzU75AnDPyJIjdAxAydIga0zCWsAgAMkYoL0J7391W90ag2PehesdFLADtQ7SZAxAq4mXtkjJgKoCjAKQiwFNyAtueW+wG455tzlljEAT5x2NaTIGoGTpw5IyoFwLmAhAKgYg/8Y665ujnyPTqIMCYPdw/pY0GQNQsvT+FhkZUK0FzAQgEwOQF9zm5ii6N/KlU84Q8pgZsse9KwAlSx8GeYOy1QKmApCGAU33wx/rWXZ3hzeiiyMOCkAu0y1pMgbsQ/ZQQ/a4TLWAuQCkYQAs7zcnmhLWCkB3RzcOOigA7vjcnKZjAFpNDPMGJasFLAQgBwMGFsOfpRvtb49Dp8eCWQ5pc+imyfQ0GQNQsvQmkDcoCwMKALB8BcjCAPiefrwpYauAWXAX4OdOeYOvgF9+dpqOAdAeenUO5A3KdQ6wFIB4BjQN3Ay94HudNkjchXbG2CsAOcQXrE9TMaAZrg5csBvkDcpVC1gLQAIG/BjW6ommhL0C8AoZh8zRNOoxpMkYcBglS+dA3qBUDLARgHAGQADM3+O8QwTtjBl0UACsGy49miZjwLlwNfFukDcoVS1gJwDRDPgJMNkucbFDBO+MccgdXg8PDSuOkDFgMvyd3z7cos8blIkBtgIQywDkBd/jZosM3BnzjFPyNDw0XIOzx30oACZL3wbyxqRigHJqu6wMgDP7T5vc7BHCO2McFLAeOsS3o+xxHwzYBFn0W33goFQMUE49VU4GtCEv+M3uNkmhnTGavQKOwkPDY2k6BqBk6RZZGaCMOlVSBtwJveAuN0khB/HyQXsFTIcR8MuPkjFgzcXIHiopA5RRo+RkwI3wD/B1t7vE0M4YzZ4BaPv0PWk6BoDVgf23tEjKAGVUu5wMgCw/4HqXGN4ZM2ivALhlSpmBkqd9MGDpfLQ6EOYOy8IAZdQoGRnQcyM4RPW/436bHNoZo9kz4Ci6dZSmY8CV0HiaQ7nDkjCgQAAZGQD3gj9WxzY5vDNGs2cAdIhP2pEmYwBOlsa5w3IwoEgA6RgwMACbuvfXs08Q7YzRbBmQzsBf/mmajAH/F9pDr8K5w3IwoEQA6RhwN+zQ1LVREu+Mwdnj6NkA+00r02QMWIZWB+ZQ7rAUDCgTQAYG6BAwgHq0dW2UXId2xmi2DEin0faRNBkDcvDa+nM4d1gKBlQIIBcDkBd8oL6donhnTGmVkCUDTBziRAy4DF5Y238Y5g5LcQ6oEkAmBgyAOW3/m/VulUU7YzRbBqQz4Ae1/440HQPQXlJd7rA0s8EaASRiAHJqrKt3rzD8mZ6yUp89bsIA6BCfsyVNxgBoD124SZc7LMtsUEcAeRiAvOD1bpXtbrrFfKmYFQPMHOI0DEDJ0rrcYVl6gsooHQIkYQDygm+tf7M03CtaWCtoy4C3zBziJAyA9tC5k2s5Q7L0BPUEaJekHwBd1du87BY/YLFY1EIB4L/Yvy1NxoAcSpYGWWNS1AJK6ZMv/vyPkuMc8A7ygnvZLb4Y7YzR7BmwFvq416fJGICSpQ/nIAPE1wKK7ue/XY5zAHwj/8zbdvmboKFcc2AAPHX8NU3GAGQPfQTkDcrQE1Sq9K+IQDQDboahHjcOeFIA2hmzd9CeAQ+ZO8QJGPAx3EsK8wYl6Akqup//dilqAeQF95ovAA8SP9PsGXB0kblD3D8DJkPX2T5dyowUPUFQBsrQD3gRWIGnPeA1Y2S7IWHElgHPWzjE/TMA2kMv0WeOytATrAjg6xoBxDLgJ7CE954x8gy8+6nZMwA5xNemyRiwCbrOHq4qQI6eoBkBRDIAe8HbPGeMrEALIzR7BkCH+BWDaTIGoGRpmDcovCdYE8DXNQIIZMB5cDpfbg56UQDKGdym2TNgPXQgvJUmY8AaGHP/qj5vUHxP0JwAwhjwAPKCFz58rwz4HCeN2jPgZ/0whDRNxgCULI2zx8X2BPUC+Fr8XAB5wXuqTiEPCsA7YzR7BjwI75Qsz5Ax4Aao6p0oeVpsT1Dps0CAEAZgL3hblQBeFLDRDAHWDHgcJxCSMQAmS/9HzowBomoBpQ8qQOxcAHnBe3p0XsH6FYB2TG7UbBkwCB3ihQRCKgagZOkbcgYGiOsJKqf0mTFAzFxgK7xQ907x4/eRNYZ2xgxq9gxYAk4BH2XoGPBDaA/NGRggrieonHKKCQPEzAV6XoNe8DZAAA8MWId2xmj2DFg5zRA/RsOA4yhZeg1OnhbYE1ROOcXIAEFzAewF9583iHbGdGv2DJhgjB8jYgBKls5hBojrCRYEYPkW4MwA5AX3nzfYjVbNr9DsGQDdpFNWZsgYAJOlz98PFSCyJ1gUgNlbgH8/YACe2d5PEGSObkO75jV7BkA36VWDdAy4BNlDcfa4sJ5gSQBQAYLmAtgLTpA5ug7FzWzX7BkA3aTl7CEKBjSvRcnSOHdYWE+wLAATBvDuCbbBvs2bPSSZo3hnjGbPgEfNsocoGNAMlxJ+bMgeF9UTrAjAyADePcFfwJptgCZ3GO2M+bNmz4DlptlDBAxohpaTaw83G98CQnqCVQEYGMB7LgBnN3dT5Q4bdsbYMwBd5ciQMeA4BNxvmi0ZwLcWqAkAM4DzXAB5wQeocofxzhjNngHQIT5zfYaKAcehPfTSw83mDODdE9QJwLwa5DUXQF7wQ2TZ42hnTLcDA+D/j7syZAxAqwMfaTZnAO+eoF4ApwicC0Av+MytdNnjeGdMty0DBuFxfe76DBkDULJ0c7MZA7j3BIEABM4FkBecMnscjpgndNszYBBe5Xg+Q8aAybArta/ZlAG8e4JQAKLmAm1PIy84Zfb4HtDin2tInkYMgD6SRUczZAyA9tDVzSYK4N8TRAIQNReAXvBfUWaPNzWBDRCTurvtGTALNiQfypAxAGVWX9Zs/hbg2xPEAhAzF3gRXuZ8oI0uexzPBGcak6cRA+AQeXY6Q8WAHLSHPtpspgDePUGDAITMBZAXnDJ7vKnpTRc1AvUAABU9SURBVDDmP2DMHUYMQA7x7RkyBkB76LxXTRXAuSdoFICAucCLcAq3hzB7vKkJRU9+bpI8jRgAJ0i3ZTJkDEDJ0s3NFm8Bjj1BEwHwnwtAL/h/UmaP4/sBC9aZZY9DBqDUgbcyZAyAydKTdjbbM4BHLWAmAN5zAegFn/QiZfY4viH0pXn6PGQAXCD8coaOATCz+spmOwbw6QmaCoDzXAAW6j9pI8wex9eEa9GTdgxAE6QZGTIG7JyH7KE2DODTEzQXAM+5QP4grI6eJsweNywK2GaVPg8ZANvHt2ToGHAL3EjWa80ATj1BCwHwnAsgLzhl9ngCrQq5YG+TpQL0DIDt43k7jpIxYAYoSS5eY6kAXj1BKwHwmwtsvQDuBafMHk8kHkXRk01NrhgAV47fl6FjALCH9t/ea6UAXj1BSwFwmwtAL/hNpNnjiQ3Qj72qyU4BOgbAfcOTNvy3DBUDULL0pl6btwCPnqC1APjMBT5BXvB3CLPHC8lz4De/0yZ7HDEA7hu+MkPHAJQs3WupAD49QRsBcJkLDEMv+DOHKLPHDclzTQ4KqDEAOsSnrXSpABcMQBvJJlsrgEtP0E4APOYCh5AXnDB73JA8N8E2exwx4Em4qihDxwCYLH1ub6/dW4B5T9BWABzmAsgLfogyezyxCt31SjgroMqAi9DpIUPGAGwP7XXBAHa1gJJ1rwAGc4Fh2Kj/BV32eGKgKfEruG3AIXscMQAuG709Q8aAyXAj2UO9jgxg2RNUstk6GUDaE0Re8EOfEGaPG5PnXCmgwoDlqIOQIWPA2XDenOt1YgDLnqCSzdbJAMqeYBf0gv+OMns8kYCXQg44Zo+jBzrEN2fIGIDsoWt7HRjAtCdYEEB9DKCcCyAv+KFDhNnjiRsXQkN4wq0CSgTQtqM1YxkyBiB7aG+vAwNY9gSLAqiLAYRzga/gD9m2PGH2eOJvcPKcc/Y4euCy/y8zVAw4PhmGIu6zVwDbnmBJAHUxgG4ugL3gw4TZ44l1c+fB5Lkm9wooMWCFhUPcPwNQYG1vr9NbgF1PsCyAbN3VIMFcoAtO6l4jzB5PJBK/gzfDXaXPw2cQligbM1QMMNhDHRTAsidYEYAHBvieCzwNs3pu/IQwezwxgArMpkSiXgZocM3YosEMGQPQvLm31/EcwKonWBVA3QzwPxdAXvBhwuzxxABygnW7yx5HCIBtyhUZKgYcXwPnzct6nd8CjHqCNQHUyQD/cwG8F5wyezyRQAWm2/R5yIAv4WtkMEPFgONXgm/+pV7XDKCuBXQC8PYW8M4ANKkjzB5PJBKwwJy7LlG/AjRNmzXR0iHukwHQHjrl+rPPPvvsc22et/cz6gnqBZDlOhd4AnrBHxgmzB5PJB6zCp6qiwHaZrjsP5MhYwBMlnZ+pt26n0lPEAiA51wAe8GH6bLHexID0Ak288aEJwVo2t6ZaIEwGQNgsrSbZ/ZSFj1BKACOc4EHoOfmRcrs8Z7EAZvgqboUYOcQ98eAR+sVgLK6+OkT9wSRAPjNBT6DXnCKvMHa183z4GXjhEcFDGp7DQuEiRhwfEbdAlD2tdD3BLEAeM0FDsJrck9TZo/39MBE+DvrSp5GDIAV+5MZMgYcX123AK5U6XuCBgHwmQt0wVH9j4kyR8vh43ugn2tPwrMC/qRBU8m8HRkyBuyrWwCXMOgJGgXAZS4AveDKO12E2eM9Pf8JfvPz6k2fhwyAtrJPB+kYcFu9AniFQU/QRAA85gLIC95FmT2ewHcNE74UgBziKzNUDDi21osAqHuCZgJgPxfYhbzgw4TZ4z098LV9X93J00gB94Gm3ZJMhooBx2bXKwAGPUFTATCfCyAv+CdkucMFAkAn2LybEz4VsANl0WfIGPDwpHoFQO8TNBcA47nAJ9AT9T5l9nhPD3KCeUmfhwpADvEGOgbcNaleAZD7BC0EwHYuAL3gs4cps8cT6Hy5OOFbARehBcINdAzYd0W9AqD2CVoJgOVcAHvB2wmzx3t6kBNsIOFfAXCJ4e0NhAxoXPbI2aZPeQh0vUEAxD5BSwGwmwt89T4c1X9FmT3eNgBfL/d7yx6HCoAO8Zl7GwgZ0HjENn1+k1EAtD5BawGwmwvAUf2bXw3TZY+3tSEnWKKHQgFokXGGlAH26fMmAiD1CdoIgNFcoB2O6qfuGibMHm9DuTMrvKbPQwVgh3gDKQNsFJAzFQClT9BOAIzmAnBr093DhNnjbW2/QLkzntPnoQJg3sdfGxp4McBcAIQ+QWVMlogBLucCX/0BecEps8fb2pATrBQ96V8ByGE4q4ETAywIQOgTVMaMoWKAy7kA8oJ/RZg93taGnGAD5eRR3wpAQdQbG3gxwEoAZD1BZQydAlzNBdBe8K2U2eNtI+Fp7e5EeUboWwHd0CF+6WADHwZYEoCsJ6iMyVIzwH4ugLzglNnjbW3YCVbLHvargFmwulzRwIkBUAAM7g4XCEDLAPu5ANwLPv8gZfb4yEPICabLHvarAJRCe4XWwIcBSAD0d4cLBCBlgMNcAHrBPxsmzB4fOfJm2LO9sa302ZMwADnE3xrkwwAsAPK7wyUCMHgLmDIAe8GfIMwez48cCac2v6p+9CQM2Izz57gwwCAA6rvDJQJkiU+Clv0A6AU/jzJ7PI+2zk97oHoEJGHAejhkWj6o8WCAUQDEd4crBBhD1g+wmQsMHwRenf4nKLPH83noBFtSdYgkaBiAVtpqXBhgIgDau8MVAtAywKoniLzgw4TZ4/k8vmnQU1JAwnv2OFQAdohrPBhgJgDSu8M1AlAywKIneBD+EX6PMns8n8db56sOkQQNA7qh1ewjjQcDTAVAeXe42AgiZ4DFXAB5wSmzx/N57ASjyB6HCsBrBwuXB1kzAAqAwd1hPQHGsJ0LfLELHqP+QJk9ns/DV/SPSbLHkQImQIe4xoEBSAD0+wTLjSBqBpjOBZAXnDR7PL8VXuNcfIgkexwqYAO8073SkD1OzwAsAPJ9gpAATOcC2AtOmT2e70HqIsoeRwqAV86WaOwZYBAA9T7BaiOIDQP0cwHkBf+aMns8PzARuPffGSDKHocKgA7x+atKq4RYMsAoAOJ9gpgA7OYCXyCzHmX2eD6P1EWWPY4UAO90P6cxZ4CJAGj3CSqdY9gxAMwF0F7wLyizx/NtaOv835Blj8PndbjYbC/OHidngJkASPcJKp2dzBgA5gJfLEBecLrs8Xw+j5xgbXTZ4+hBMfcaawaYCoByn6DS2cmOAfq5APKCf0GZPZ7PI6MxZfY4fGAM4cz1g4wZYC4Awn2CBQGwYgCYC6CPiDJ7PJ/HTjDC7HH8IIe4xpgBFgKg2ydYFABTBpQIgD6iXZTZ4/k8coJRZo/jBzrE587S2DLASgBkPcGSAFgyoPhkkRecMns8n4dLpxdupcweNzwQZc9rbBlgKQCqnmBZAAwZUCTAO+D0PHPXF4TZ4/k8PJm91kOYPW58PoeHmUGNKQOsBUDUE6wIgB0DCs8pyAtOmT2eNCydpsweNz7rYOTP5xpTBtgIgKYnWBUA037A96BZ72AfYfZ4Mvlj0AT8FWX2uNkDbx/O7tZYMsBOACQ9wZoA2PUDRn2NvOCE2ePJZBIajS98gDJ73OxBDvHtGksG2AqAoieoEwA7BjyhQC84ZfZ4MgmdYHdSZo+bP9sAcZ75k8aQAfYCIOgJ6gXA7ByAvOCU2eNJ5ASbsocye9wCAXCs+WeNIQMcBOC/J6iM7mTOAOwFp8weTybvREunCbPHrRQAtxC9bMgeJ2SAkwB89wSV0aOZM+D74M/r+4TZ48lk/iDI3lBepMwet1LA3vOhQ1xjxwBHAfjtCSqjR7NmAHLrPkGYPZ5MJpHPkDJ73FoB0H72qMaOAVAAjb0eGGBfCxQEwJYBfcgLTpk9nkxuhT+MT1Nmj1srYBUMpd2hMWMAEkBj3Qxw6gkWBcCUAcgL/t1TCbPHk0noBHuZMnvcTgHw4HGfxowBWAB1M8CpJ1gSAEMGZBGjKbPHk8OHkM+QLHfYXgHde6YghzgrBkzHAqiTAY49wbIA2DFgF2T0Hyizx5NJ5ASjzB63Z8Cn4D88QWPFAKMA6mSAU0+wIgBmDEBuXcrs8WRyGNqM7qfMHrdXwAZ4EXWVxogBJgKoRwHOPcGqABgxAHvB+wizx5NJ5DP8JJ/kxoCPYP8xw4gBZgKo8y1g3xOsCYAJA7KI0X2E2ePJ5DDct/4LwuxxRwVAh/iFRgTQMMBUAPUowKknqBMACwZgL/gJwuzxZBL5DA/l6bLHnRUA19E8bsgep2GAuQA89QPMe4J6AdAzIAsZfU0fYfZ4MtmFbEaU2ePOCoALqebs1ZgwwEIAjWQ9QSAAcgZ8vQCA8v0ThNnjySR0gk3cSpg97kYBMJx0s8aEAVYCIOsJQgEQM+AE9oJTZo8nk8Bm1P8aYfa4KwVAh/jCWRoLBlgKgKoniARAy4A+5AXPEmaPd3XBlZNztlJmj7tSAHwDfbmOBQOsBUDUE8QCoGRAFgJg7heU2ePJLmgzepwye9ydAlYgh3g3AwbYCICmJ2gQACUDngEngLtP9NFlj3d1vdgPbUaU2eMuFQCr0N/h7HEKBtgJgKQnaBQAEQOyfSf+AD7/C3b10WWPd3V1QZvRnYTZ464VAB3iiwzJ0/4ZcMRWABQ9QRMBEDEg24e84Nk+uuzx1i7kBHtgmDB73K0C1qF0im5yBnTYC4CgJ2gmAAoGZE858V24F3wXZfZ4a9d5yAlGmD3uWgGJL2Gbo5uYAUfSTgLw3xM0FQAFA7J9yAue7aPLHm9tPYjiYSmzx90rYB1yiDdRM8BRAL57guYC8M2AbF8We8EJs8dbW4ehy+BJwuzxuhgAM+qeMabP+z0HOArAb0/QQgAEDEBe8Cxh9nhrK3aCtRJmj9fDgFlwN9nyddQMcBaAz56glQB8MiCbfQIm7j5BmT3eOgxdBgdIMkfrZ0CiO4Ec4k3UDHAhAH89QUsB+GRA9r+gFzxLmD3e2npoIXQZdBFmj9fHAOQQX2xUgD8GuBGAr56gtQD8MCB74iDyglNmj7d+hVwGVLnDHs4BCbhA+MkmYga4EoCfnqCNAPwwIIu84JTZ44b08ftbCbPH62XAqvlwRXE3LQPcCcBHT9BOAN4ZkIX3deZ9lzJ7vBVtnLtmuKtLGAMSiSXQId5EywCXAvDeE1S+NZoFA5AXPDuKLnvcmD7eSpg9Xj8D9qDLqd1NlAxwKwCvPcEW5VvfYsAAvBc820eWPd7a2opcBp8QZo97OQdAh/iSJlIGuBaAp56gmisIgAEDYJV28fe9P+eZPAtQ+jhh9rgXBmyABe8E0geo65U0kQJ0/YCCACgZcKL4D9geYfpM3EqYPe6JAYkneX2vr3R0NJK9BcrHgKIASBlwIou84Gyfu78gzB73xoCb53ETQLqDlAFqmQB0DCgBYC6/z/+CrZTZ494Y0H2AHwGIGVAhACEDTmSRFZTt89pXw3TZ414ZsJwjAWgZUCUA5Tmg87/4ff618GFxDEg0JR7jSABKBqg1ApAx4ET2xE38BPBZF2H2uHcG3M+TAJQMaGlRxn+LmgGj+QlgygOE2eN+zgHXcPl2V9ebPe7IgFyLMn48NQOyn/E6FaPwYXEMSKzo5/Ht3lFv9riLt4Ayfjw1Azqf4CUAnD4ukAE8EDBvWb3Z4y56gsr40ZQM6Cz+4zNeJUAXYfa4Pwa8Pon9t7vkyNE0OQMKBCBjQGfxrxOdJ37C5wQ4TJk97pMBK+az/nafnF539rgLBSjjx48eP5qKASUFZE90vs8cifNuer+LMnvcNwNuvm8ay+/3mo0essddKKBEABoGdFb/OtHZueu7bp/veXle3NVOmz1OcA5Yt+d1i2fx4sWLL3L3zDB9lm3xlD3uQgFFAVAxoLNyCsjCfzfcG+zrc5E6azEdbm1vrfyTMHucpB/QbZc8bT0dHnSeDh896il73IUCKgQgYECVAEUG2Nway/Y5+wN8bpER6Q9woYCKQYR19rgLBZQFQMCA2kvA+PEbGIAkYMWAdtq9wpz3BzgzgHX2uAsF1AjgmwHZzs4qAZxvjrpiwKiQM0ATz4CqAHwzQE8AUw1gBbhgQHvIGTAongF6AvhkgAMBoAL6sm7OAaNCzgBNPAN0AvDJgNIxsNQKdPMW6Ms6M6A95AwYFM8ASABfDMiWBNCJKkA/tcCokDNAE88AIABfDBhTY0Bn5TDgtxZoDzkDBsUzABPAMwPK/aDO2mvAiQHZPsdaYFTIGaCJZwASgG8G1N4Cnc4MyDqdA9pjBrBmgJEA3s8BBQToPn/nWqDP6RwwKmYAawYYBEDDANcdIYdzAOVu8ZgBZgpQzhpPzIDqS8ANAxzOAZS7xWMGmCpAOesscgaMqZaCzidBx3MA2W7xmAGmClDOOouSAVl4EPB/DqDbLR4zwFQBBQEwY4C7rrDzOSD0cwGBDCgKgBUDbCBQzzkg/HMBgQwoCUAwA7LxXEAYA8oCoGeA0zGgrn5A+OcCwhignHkWKwaMcSgH47mADAxQzjyTngEuIRDPBSRggHLmmWwZ4LIjFM8FBDGgIADGDCA6B8RzASYMKAqAIQPGuH4LxHMBIQwoCeBMZrXAGPcMiOcCIhhQFgBLBrjPGYrnAvwZUBEAQwa4T5qK5wL8GVAVgBwMiOcCvBlQE4AUDIjnArwZoBNAMM4B8VyAlgF6AQThHBDPBYgZAAQQjHNAPBegZAAUQBDOAfFcgJQBSAABOQfEcwEyBmABBOMcEM8FyBhgEEBQ+gHxXICGAUYBBKMfEM8FiBhgIoB4LhAlBpgJIJ4LRIgBpgKI5wLRYYAy7kxZGRDPBXgwQBk3Tl4GxHMB9gxQxo2TlwHxXIA9AwoCGBfcc0A8F/DLgKIAAnsOiOcCvhlQEkCQzwHxXMAXA8oCCPA5IJ4L+GJARQDjgtwPiOcC3hlQFUCA+wHxXMAHA2oCCPA5IJ4LeGeATgCBPQfEcwEfDNALYFw8F4geA4AA4rlA9BgABRDPBSLHACSAeC4QNQZgAcRzgYgxwCCAeC4QLQYYBRDPBSLFABMBxHOBKDHATADxXCBCDDAVQDwXiA4DzAUQzwUiwwALAcRzgagwwEoA8VwgIgywFEA8F4gGA6wFEM8FIsEAGwHEc4EoMMBOAPFcIAIMUC4fF0QGxHMBKgYol18eTAbEcwEaBiiXXx5MBsRzARoGFF4Bl4fzHBDPBdwwQBl3ub0A4rlAuBmgXE6qgHguEDQGlAUQynNAPBdwoYD/D217yDu2RnK0AAAAAElFTkSuQmCC;" vertex="1" parent="WIyWlLk6GJQsqaUBKTNV-1">
          <mxGeometry x="140" y="160" width="50" height="50" as="geometry" />
        </mxCell>
        <mxCell id="Hey_0Endjz0srx_wIcTM-15" style="edgeStyle=orthogonalEdgeStyle;rounded=0;orthogonalLoop=1;jettySize=auto;html=1;" edge="1" parent="WIyWlLk6GJQsqaUBKTNV-1" source="Hey_0Endjz0srx_wIcTM-1" target="Hey_0Endjz0srx_wIcTM-6">
          <mxGeometry relative="1" as="geometry" />
        </mxCell>
        <mxCell id="Hey_0Endjz0srx_wIcTM-1" value="" style="shape=image;verticalLabelPosition=bottom;labelBackgroundColor=default;verticalAlign=top;aspect=fixed;imageAspect=0;image=data:image/png,iVBORw0KGgoAAAANSUhEUgAAAgAAAAIACAMAAADDpiTIAAADAFBMVEX////tPnzRJGbrPHrXKmrHHF7TJmjZLGzbLm7dMHDLIGLJHmDVKGrlNnbFGlzPImTfMnLjNHTvQH7pOnjVKGjhMnLNImTNIGK/FFjBFlrRJmbXKmzDGFzfMHDjNnTDGFrnOHjPJGTxQoHhNHK9ElbLHmDdLm7pOnrTKGjlOHbhNHTnOHa7EFT1RoPnOni5EFT3RoX1RIPFGl63DlLzQoHfMnDzRIHPJGbNImK9FFbJHGC7ElbVKmq1DFDbLG7BFljxQH6/FljTJmb3SIXzRIO5DlLrPHzxQn75SIf7SofHGl7pPHr9TInBGFrvPnz5SIWzCk75SofZLG67ElS3DFL7SonlNnTJHF77TIm1ClDvQHy3DFD/TouzClC9FFixCE65DlT//f398fb/+fv9TIv75e3/+/3+8/f52uX//f/63+n86fD51uP97vT99fn/9/qzCE79Tov64uvkiaz53Of1vNHpmbexCEz99/rwmrn50+HZLm7fX5D1ts3yo8Dtnrzxt834y9zbXI3qXpHfSIDtor7oj7HzrMb2zt3ka5noeqTwkLPzwNPplLTwlLb3ydndN3XhT4baWIzlY5T20uDria3kXY/QL2376/HdPnnrcJ70s8vteKTwssrqZJb75+/sj7LlPXrsmbjhPnrbP3ntgqrpa5rol7fodaDjR4DYNXLfcJzfOXbupsHbMHDtfqfVL270wtXpUongZ5bfWo35z9/WRnzjU4r4xdfviq/lTobbUYbvqMPvrMXyu9DgU4joh6v1y9vTNHHoRoL1xdfRKGj3wtXynLzlV4zjPnrnPnvkbpv0qMTjeaPdXY70yNn97PHbNHLZOnbfY5PTPHbYMXDea5jbR3/kgaf98PT3v9PoSYTLJWXrVo3raJnbOHXogajlcp3eV4vxr8ffQXvocJ331eLXLGzpTobZTIPfRH31r8nkZ5ftdKHvhq3wqcPjOHbhNnXTKmrfNHLYP3ndMnHJImPhOHblOHjNJmXbYZHpP3zjNnbPKmnVLGzHHmCnsUYZAAAACXBIWXMAAAsTAAALEwEAmpwYAAAgAElEQVR42u2de1BWV7rm93ESAxK7Tfe0lWCHatvUGWCOpstUh1zIVGVyqk9NdXdNjskfU1MnyfmguDQCXUPUBj8VjYA3EBFFvCCKaAQFwfsVRCFB8RLwhvcbSiRqRAVNQvymvvt61157s7+9177AWttT/cdRiXz74bfWs9bzvq/QiT4vIM+ECRMm2H1PkPipdj/BvqcHe0ZIPY/GuJ9I/OnufumlMOTpQ57hzicCe546n9+5n3Hi59e//m+e58/Y81+8z5/+9Kc//ZPc839/JfP8m/P5vcTzptTzr//6r2Olnz/84QOJ5387n38nPf/L8/wf0fMX//P/4PMfrkcYpUIB1UHBQcFqFBDp+UVLAePkFPDncX+WVMCflCrgV1IK+L3rF0kBb0opYKzvl0gBfxj7ge8XUQH/7vqlVAF/kVLAf/h+eRUgjBqllgHBVmDAON0Z8Cs5BvxeHQPGyjHgA0MZIIwapZYBQVZgQITuDPgnOQb8Sh0D3pRjwFhDGeAUgEoGBFuBAb8zlwG/V8eAsXIM+MBQBrgEoI4BQZwBkjvBfhjwphwDxhrKALcA1DFA5U5wUDFAaicoz4Cxcgz4wFAGeASgdicYzDgDPBwIlAFvyjFgrKEM8ApALQP4PuD3KrzAWDkGfGAoA4TntCqAeQao8AJvyjFgrKEMEJ7TpgDuBVR5AckTIYQAxjBAeE6TArgXUOUF/DogMGCsoQxwCkDrKsC9gAov4PGDhH3AB4YyQIjWrADuBVR4Af9uIPCbIaoMEKKjKTCA7wNUeAE3AcxmgBDdSUUB3Auo2QeMVXk7TJEBQnQ0BQZwL6DSC0idBxjHAKcANDOAewGVXmCs6oQINQa4CEBlH8C9gJp7gbFmM8AtgE7uBUy6F3jTbAZ4CMC9gJlegHwmaAwDvALgXsA8LyBxJmgMA3wE4F7A3HsBs/YBfgFwL2DmvYBpZ4IIAbgXMPNewCwvgAqAewHz7gVMOxMEBOBewDwvYNZ5ABQA9wJmeQHTzgQxAnAvYFq9gElngsKL0XQZwL2AynoBk84EhRdfpM4A7gU0ZISMPhMUXnyRNgO4F9CQETL8TNApAD0YwPcBqu8FjN0HuARAnwHcC6i+FzD4TNAtgBe5F7DOvYCxXsAjAO4FLHMvYPCZoFcA3AtYxgsYex7gEwD3AhbxAgafCfoFwL2A5WuH9WAAIgDuBaxeO6wHA1ABcC9g+dph+gwAAuBewOq1w/QZIIS/qCsDuBeweO2wEB6uJwO4F7B27fBfnALQnQF8H2Dh2mEh/EW9GcC9gJVrh50E0JsB3AtYuHbYtQToywDuBaxcO+wmQDj3AqzWDnuWAO4FWK0d9hKAewFGa4d9SwD3AmzWDvsJwL0Ak7XDyBLAvQCLtcMoAbgXYLB2GCwB3AuwVzsMCcC9AHO1w9gSwL0Aa7XDwtBwQxnAvYDFaoeFoUONZAD3AlarHRaGDjWYAdwLWKp22CmAocbuA7gXsFLtsEsAhjOA7wMsUzvsFsBQ7gVYrR32CIB7AVZrh70C4F6A0dphnwC4F2CzdtgvAO4FmKwdRgTAvQCLtcOoALgXYLB2GAiAewH2aoehALgXYK52GBMA9wKs1Q7jAuBegLHaYZEAuBdgq3ZYCB1qLgO4FzC3dlgIDTWZAdwLmFo7LISGmssA7gXMrR12CiDU9H0A9wKm1Q67BGD2PoB7AfNqh90CCOVegNXaYY8AuBdgtXbYKwDuBRitHfYJgHsBNmuH/QLgXoDJ2mFEANwLsFU77EYAKgDuBRisHRaGhFqHAdwLGFs77CLAkCEWYgD3AobXDgtDhliHAdwLGF077CKApRjAvYDBtcNC1BArMYB7AaNrh4WoKMsxgO8DDKwdFqKirMYA7gWMrB12CsBqDOBewMDaYZcArMUA7gWMrB12CyBqUHiBR3s33M84Nr1xalqM50mb+tXKGQvXr67gtcNSDPAIYKB7gV1bZlyYFCtIPjFTVy5YcYTXDosZ4BXAwPUC6woX1KYIip646febee0wZIBPAAPSCzwqyki2CQE9E1feW8trh/9AEMCA8wKbb82ZKKh50r+6X8Frh8UCGFBeoHtFbayg/onP37KW1w7jAhg4XmBXZoqg9Yn5rnk4rx2GAhgYXqBjaaJA55m76inztcNQAAPAC3SVJQj0npSFaxmvHcYEYHUvsGtlvED3SVl4hOnaYVwAlvYCzbU2gf6TsvBIH7u1wyIBWNcLdFTp8fpd+8E9D5itHRZGR1mcAR4vsGiN8rXfdj4uLq44JiZV8d9IXs1q7bAwerS1GeDZCdxK6/8txiZOzl6/oWhvh++K4ElF8+pVC27uON+/ZqZfZLN2WBg9egAwYPn0ft5fan7GrYpHouth5/88ct4OV6zeM/mbfr7Egqcs1g47BWB5Bswrll3BZ67f9YiYEIl0a8CTD+jeu+U72bPjHVsZrB12CcDaDFgkt/mL23+3WzYjhCZEuiMjmzOSZC4JFj5grnbYLQALMyB4u/Tqn7Sm4NWeV6UTImPcBMBSYs0ZcZJfMf8ia7XDHgFYlwHz06XIf6BISU6QlBLrXnFB6jwpZhVjtcNeAViUAT1VEi9q1vxFSlJiYySSomEVGVLbgRlPmaodFn452sIMWJ5P9my1Rcqzwm4EiBQQ+WCLxNqy4yJLtcPCyF9alwH1xMU69mZB4GlxQlY47MF98magdDZDtcPCyJGWZUBRDOn11BYEWi8A3SCaFn+wnng4kL6endphIWqkVRlwl7T9S5qnrmJEol6g78gM4nZwxgNWaoeFkSOjrMmAjYTIV+rSHlW1w5EyNUO7dpMU8N1TRmqHnQSwJAOuEU5/5mYFqa0el64ZCuteQTIEF9ayUTvsIoAFGXCQsPlb01odHKRD7XDYkckko3n0AQu1w24CWI4B88U//4m79KsdHrOKEDJNPMxC7bCHABZjwDzxzqxuka61wxWNhA3nRQZqh4WR3sdCDCgU7f9tmdX61g6HRd6PD0gBg6V22CUAizGgXuT/U1sM6CO0OiWgVWCQ1A77CWAVBti7RIczcQWG9BHaK643SD462GuHPQKwEANab4tI3GVQH6Ej4uBR/tpBXjuMEsASDLDPFHG4w7g+QgtFClg5yGuHfQKwCgPW4G9gyXIj+wjtEfnPjMFdOwwJYD4D7uIvoGGRsX2EtuBmwLZlUNcOIwKwAgPO4QYg+arRPUVX4B40ffZgrh3GCWAuA+xz8f3fcuN7iq7G60nSDg/i2mEgANMZgG8ASrPM6Cm6Ab+HzH86eGuHxQQwjwEv3MDW35gCc3qKroiV3AgOutphTACmMqAVi+zb5pnVU/QepsT41YO2dphEALMYsB/7uVtjXk/RPfhZ5OHBWjssEoB5DJiGOcCZdhPnC3yPKWDy8EFaO0wmgBkMsCdjBrDVzPkCfV9hClg1SGuHCQIwiQE58ANPyDJ3vsCRSVgfkcODs3ZYeGukNRjQhbnv+SbPFwjbizWkmD4o5w6/Kbz1ljUYUIcFgMyfL7AKWwRWDMqeosJbb1mCAXexjr5tFpgvMAdzAmsHY09RpwAswIBOmMWwFVph1tgDbFuaMRh7igrD3rIAA55thB/1TUvMGgvbBe+FYvcOwp6iwrBhFmBAJzwDTCm3xqyxsAVQl19JdJS8eGX919Mv5O/YkX9h+tfrVx8eSF5AGDnMAgxohx/0NavMGuubCv9hV8QK+HbPdLzG2Jb03fqLA8ULCMOGmc+AM6WwAsxumVljzfBaaGofVMDWDKm+1bZZey4OCC8gjBxmPgNgHVh8vYVmjWEhwVVIX+Gn9/JlW5fGT589ALyAiwAmM+AZZOgBK80dfgDbiCQ98Crg6fq4/ltX7ljxa6t7ARcBTGZAC0xgdVlq7vAK+ErXe7rLr0pS1oN292yLewEPAUxlAMyBZVts7jAsGkxzIiBs727lfYu/O2xpL+AhgJkMuAGrwMotNnd4K9wHbgkL61ugvAu181TzipW9gI8A5jEAVoKUWW7u8DHw75vUV7FbCOyxHfvJul7ARwDTGPAYxK9Sr1pu7nAF/Hn/ujTwgQRTv7WsF0AIYBIDYA6gyqS5wzIMCJuhfSTFxNlW9QLCsGEmMwAcpdjOGT93uD8GvFRBYUzV31dY1AsAApjBgH1YDMDQucMKGZBBYSxN7D1regGXAMxkQCb4mKYZN3dYOQP6jvSz64+fOuf+6q2H1z49vPXK/RkS04wNZoBSL4ARwHAGRIMtVaJRc4cDY0DY93I/2pO3HA7ri+iL8N0O/7TqK9JY2/QrVvQCHgGYxoBp4DNaasjc4cAZsFfy0D/la1EXmadPIyIOZxDGFKVstaAXEBHAYAaAdvDx5QbMHVbFgMkSc4YWrpVKiPy0ULxuTPrJel7AJwCTGADuWhp1nzuskgHdsyUmjcnNHP32guhvfGW9ewECAYxkwDnw+RzXee6wBgZMFb//hHsP+pk7vEUEgQWWuxdABGAGA0ASILVS17nDmhiwXtxAbGtYf9Pnx13G7wxTL1vtXoBIAOMYUAsOAfScO6yRAevwH+bda8PC+lVAxOEd+KHwUYtlhIAADGdADYjdtus3d1gzA166iTUTfxoWpkQBP+X3swiY7QUkCGAQA06Bz6Zcr7nDNBgAt4GTH7wUpkwBRzEGJFy0VkYIE4DBDAAXQYl6zR2mwwC0SiT5SPdLShVwGNsHHLNWvYAkAQxhACgIzNRn7jCtfQCSDZtYEdmtXAFb4ZlQ/GVL1QuIBGAoA0Cu8pQuc4fpeQFfqWBKc1hkIAq4h20fLFUvIEMA/RnQBo5VKqN1mT1OzQt0Z7hP+JObH7gOh5QrAFaZ2i5bqV6AIADjGLANJK71mT1O0wvsXTA5f869B2Ge40HFCjgKE+RzrFQ7LIQMM48BeejHUqLP7HEd+wgpVwBcBNIPW6h2WAgJMY8BIA56UI/Z4/r2FFWuAHgasNBCtcNCSIh5DAAFAdv1mD2uc09RxQq4DO6T4/5sndphIWSYeQwoRj+VSvqzx/XvKapYAbDp2Grr1A47CWAWA2rQH4sE+rPHjegpqlQBq7HDIMv0EXISwCwGgLvgZOqzx43pKapUAbNASnycZfoIuQlgDgPATUAd7dnjFvMCW2CnCcv0EXITwBwGHAc1oZRnj1vNCxwFxQXHLNNHyEsAMxgA0iAH6c4et54XWAkuvizTU9RLADMYAO4Cj1OdPW49L/C7DeA4+LBVeor6CWA8A6agH8l1mrPHregF1oJM0T2r9BR1HQSZxIBs9BPZRnH2uDW9AKgqn2GVnqIoAYxmABgQMY3e7HGLegEwhGKqVXqKeg6CTGFACfqJ3KA2e9yqXuAyiAePs0hPUUgAYxkwkyCAQewFngIjuDXCGvMFfAdBxjOgCQRtv6Aze9zKXgDEQ1dYZL4ATgAjGVBF3AMMXi8Amg0tsMh8AeQgyGgGNIldgCEMMM0LgOqilRaZLyAmgHEMAOcALVRmj1vaC4AbwYkLZltivgA4CDKYAXnYSaBhDDDJC3wL7oP+Jpy/cP+i6V6ARABDGPDwxH6Ql8+hMHvc4l7gaby4wjw547K5XkBwhJjBgHNTirGPIlv77HHLewFye+nkBd+a6AUEh8NwBjSdbRR/DDO1zx63vBeYKtVKdPe9cWZ5AcHhMJgBNe1ppA+hQevs8QHgBRKlW03FZVw0xws4BWAkA2pyUsifwG2ts8cHgBfYIddrLv3YVjP2AS4BGMaAh+3FUt9/g9bZ4wPACxzrp5fkysvG7wPcAjCIAWdlhmxkapw9PhC8QLOt3+ECF41mgEcARjBgZ63ct35H2+zxAeEFhvffdjo14ydjGSC84zCGAQ/zYuW+8UyNs8cHhhd4cExBY/EthjJAeOcdQxhwJ1H2u775UNvs8QHjBa581f+0ka++NZABwjvvGMGAg+lyvZZPbhvapG32+ADyAk+bt8zYkS6rgJj1vzaMAU4B6M6AQ43S32xa1bYazbPHB5QXiOjr6xu3euEsuSVx90WjGOASgM4MuJMm9X0mfbmPxuzxgZkROrpi5XnpncBqgxggPP+O3gw4K7HqJexfTGf2+MDNCK1dsVJqSxC/xxgGCM8/rzMDcsjmN+n4IVqzxwd0vcDR+8kSEphuSG9x4fnndWVA0xTyud+2Jnqzxwd0vcDTiIjZ0+PJ14SHDWCAUwA6MiAqm/SdJZ5tojh7fBDUDm89RtwRJn2rPwNcAtCNAVH7Sfv+TaFUZ48Pij5C335HWinj9J8x4haATgwYWUXY3ExZFkp19vhg6SM0exbJDFzWmwEeAejCgKjPxd/RkjuhoXRnjw+ePkKrCHdlKZd1ZoBXAHowYJOIarbsJuqzxwdPH6GIo8fE68BEnfcBPgHQZ8Bi0cam+AT92eODqY9QRMQ9cVxmkr5ewC8A2gw4LfpeGk7rMHvccC+wuWOdjj1FD4tHk+/W9UwQEQBdBvxwUhT7fKjD7HFjvMDmXbeWzqiblVjqPbeLT0nakXtz4fzCCtoMGCfODMzQ80wQFQBVBuTg30b2z3rMHtfdCyzfsLAuSSbJk5I/Y8temgyIuI8vnbZ7OjIACIAiA/bhh1s5+swe19ULdGw8kGgTFDwpF9Y0U2NAxBX8jijmW/0YAAVAjQE/4xeAU/SZPa6jF9i1cImil+99Sm+ueEKJAbNjsK+9Q7+MECYAWgzIw76Dqih9Zo/r5QV2lSWpGBGfMH3FEzoKSDBs1hguADoMOI0lXkp+oDhpSncGbF5/W1D7pMxopqCA363GbolTt+rFAJEAaDDg0kys6ONn18HwwGBA/c1UQdOzY1W3di9wBdsJ7tYrKywWAAUGfIGRcecPUa67gQHAgKJam6D5Kc440q11FcBn1d7TKStMEIBmBozEEsDbPFdD1mdAS7JA54nJOKJVAViCPO2oPgwgCUArA85iBwA/+BMClmbA3SUCvSdm4TptCliLiXGPPjVDRAFoY8AluIUqXjbSRwArM6CgVqD7fLO+W5MCtkIrMPEnXeoGyQLQxIAf4edwVr/Z4xQZsPz7eIH6k7xakwL2iBCgAwMkBKCCAT4E5IJ/dq5+s8cpMmB+ipIXaktJuj03Pz8/PzlxYqyiv7DyiAYFjIPl5HHj9KgdlhKAegbsBNvo+MeXdJs9To0BWY39lWwumbNmY3MHuBvcXLBhfebu0v7WgVVaZo1hRmCcDgwQxj9PmQEwBnxAx9njtBhwTc742xLnzC/okbgdHtHT07EhY5bswcHkI+oV8B34SrP06CEijB9PlwE/gBYQtp06zh6nw4Dlk2XOduuudSlIiDzZMEPm5HjiFdUKuJiKDx2mzgBh/HiKDBg2EtsClug5e5wGA4KmSfYsSShpWaQ8I9ScIa2Br7vVKgCGA77WoZeYUwBUGXAAtn24pN/scRoMsC+VOvibO39RoPUCRd9JrQWzKlQq4CLYa5bq0EvMJQCKDLgEttMNes4ep8CAqzMlGjbdrFdVL7Buj0QTnImzVSrgOyXT5rQwwC0AegxYDP7B7cN0nD2unQEd5JPfmLIO1fUCjzaSv2bsKnUKmA3DYfR7inoEQI0BwAPEL9Nz9rhmBtQTf1xTM5drqxfYQJSALUOdAsAXi6PfV9grAFoMAMfpdb16zh7XyoBTCaSq7P3LNdcLPNoykSSBOd1qFHAffI3L1PsK+wRAhwHLwJ7qrK6zx7UxYMI8UpuWxgIq9QKbM0hffPoTFQo4DI6o91DvLS78YjxNBvwIVwA9Z49rZMB1wvb/m43UaocL8kndn9QoAJQMTqY+X0D4xS8oMqAXhMGXDNNz9rg2BmwkvP+S5TL1AkE9BS1rZtzMzc+fOiu/cfr+svlFy+UU8GgLYYVpfKJx2tw31OcLCL/4BU0GgIugKSP1nD2uiQEt4ru/89clU2KthWWTkwi3hcUN32/sGiFVNbZ3rvhvXHiibdqcsJX2jBGnACgyAByrnRqm5+xxLQy4K77La+gip8Sqi9aclGvqZpv0/a11ZAVELhRjZnrgO0Gwo1xFe86QSwDUGLAMfDTLLuk5e1wDA7aL3qgts5qYEisoi1Nw65s+c8MjYuXoavEt87GA3eB0cBpMe86QWwCUGBACjoESfReEFmPAuW9E3v86KSN09eAO5fGfGc2EfcCjCvGMiDWBKmAB2EfSnjXmEQAlBhwHeyp9Z4+rZkCb6Nam+EYQISNUlhBQ/MdWW/iqiAGPnlwQ/bl7ASoADBuLi6A8a8wrACoMcHyJ/ls/13f2uFoG2EVly4ld4oxQV1V64BGwuRvEq8AjUbVvbHNgCjiK7iTix1GeN+gTABUGgHHQ23qHWZEBmaKuNW2ijNDVqlhB1TO1SNxBYgG+FYyr+E1ACiiFM4fpMsAvAAoMcIAfrjv6zh5XyYAW/HXMvToBzwjNKxXUPraVXSIG3Mf/k/mB5QPAUdAV9y0hNQYgAtDMgGEhYHVd1qvr7HF1DMjCr+wbWvGMUEGDpihwyvoROAPW4wpYGFBGCFwJr//vEVQZgApAKwNCQtDC9vReXWePq2NADV77MbcVywidWaM5Hz4rC1fAHpwTswNRwEJQJ+zNC1JiABCARgYMG4YqvVTn2eOqGFCGzyq7imWEyhsF7U/KBlwBC/FtQCBJUXAh+PVTd/0wLQZAAWhjQMgy/BjAYgwYtR1jcVw5lhEqLKZSEWLL7oYC+OMc7E+sDCAtfg/9i9/5qwepMAATgDYGnEb/pSd1nj2uggFnsBOAmAIsI5QnUxp8fu7NNde3F2QtD1rUkdVceDC7Nk3mT+/owlrJfYVJZINyBYCDgMm+HgJ0GIALQAsDoABydZ49roIB2AJg2wYTIvYDkpWek5fWV8OQ0D8HO3sIfS8ZBY4rgApYNwn7/XWKFTAbPwqkyQCRALQwYCeMAw2zGAP2YT+xa2BGqFKiQCC15G61dDe5rIUSGkgpggrYix0szlBcN9gMLKT/9VNhgFgA6hXQCwQwU7/Z4+oYMAqzd3WdICFydS6Z5fMXifMBwSArXHSAeGyUsAEq4BbUX3yzQgVE7AUWIyKCKgMIAlCvACiAXn1mj6tmwHWsq1cbSIhcJUY5GwsV9RPsyiZVBMTeggrAWj7kK+0fcBEIEn39FBhAEoBaBfSCPUCdLrPH1TPgDLzYtU0DCZEzpJ///O1Ke4u/2pFBoEB6IRDAE6xzygplCpAlgGYGCL+lpwAogJMO+rPHtTAAa12aCRIi9lxC3mdjQL3FCwgnCDHNQAHNUCRJ3coUAPYAXw2PoMoA4bf0FOAA5wBzqc8e18SASth+M+kMyAiVEKz81UB7i28Up8GLC+TOg7Yo6iMEi0MmDx9OlQHCbykq4BI4ZHNQnj2ujQGwdaVtO8gIlYkDHoUqeot3iLvMpIHW4t1wEYh7okgBV8AJ0vDhVBngFAA1BfSi+9w0urPHNTKgDZqw70ehGaG7ohOdkx2qeov3iC8SJoOLwSL4X7qvqJ/gChApGz6cKgNcAqCmgFTxZZBFGAB3ADFtaEaoSzTAs8yuds5QkSgFuPQRqoCVEAHdShSwChwfDB9OlQFuAdBSALwODrEOA2rgGf9BNCMkMgC2gxrmDBXgKdL4IvRmqAL6xVVKeoqCUGBG33CqDPAIgJICwEZ4Z2+IZRgwHy7MdjQjhEeEYq9rmjPUhR8oxHWgCsiAfcSU9BUGF0n3+/qoMsArACoKcIDD9B9DQqzCgIfwIP44mhHCbwjT72qcM7QZTwLfRDNC6+AaUahAAeAeaUNfH1UG+ARARQFgpW2nM3ucBgO2wzFMz5ArYjvWGdx2XfOcoQ7sdsBW+EdEAQtgoYiC3uJAvVv7+qgywC8ACgro3QRmBITQmD1OhQHQ5l9HEgLRB7Ef12sU5gxlYZnCxEcIAzaDLWf6uv4VgG4bbGv7+qgyABEABQWANuFLaMwep8KAShDxjqtBAFCOHeKXPUdj5ugu7OZvDZoVhruAPf1OmAAnwaXkztLqGYAKQLsCwFFguvbZ45QU0E6wAJ4HaxLUaKczc3QjdqNcgSigAsgxub8pMw+AC9zRJ6kAdQwAAtCuAOC2doZYhAEgrZ5aiWSEsIjAxDZaM0e/xy7/0YqRm+C39vY3aQpcIq7s66PLAOGvVBVQBzbbIdZgQBs4ntuPZoQgAGynqM0cXQT3lrEViAKKYES8v0lTwFTs6eujywDhr1QVAGzATEeIJRhwDXzg9dF+BZyDJ7eZFGeO7sK+9AhEAeCkYNKISFkFPAVXiKv7+ugyQPgrVQWAFjEpvcMswQCwAiSjKTEI47hKmjNH4flSagdSO7wUrgEjZOcNgqug+LV9fXQZ4BQARQUcAt/aHUeIBRhwBvwI5SAZIQwALVRnjm6GZ8IZSPV4Bdh5LHUiQFoBYAuQLDtlRg0DnEsATQWApS9Hw+xxegwAE2xs55CUGLwizqU4c9SpgFtwfzkCUQDoILV7hNzM0W4QMpgR1p8CAmWAiwAUFQAaRSY5ekPMZ8B+cDiBpsTAeFNbPa2Zo14FwCPhDUgPETASLP2J3Nxh2Cp0RVgYZQa4lwB6CoCtYneGWIAB4CQ1D8mITIMAoDNzFFEARMB0pI8QXANWy80eB+0FYo+EhVFmgIcA1BTQC07WvuxVOXucIgPawIdd/9AvAFgHcoPK7HF0J9iTDA99EQUk40ZQigEPwAqwu/9pc4EywLsE0FKAAzjr4kshpjMAbAGKkfd/BpzXNlKZPQ69ADwP3IL0Evsa5Dw9BCAwoHsVPDcOU6SAQBjgIwAlBTjg0MBNjhCzGQDs2EwkJTaPcENEY/q8fx/wCFz91iL9BDeAfJI/MyRSANhH2A6HhdFmgH8JoKMAx6UY0oWQiQwApwDX/Cmx6GzwEs5QmT2OeYEqcBTwyK+AzfGikwAiA1bDOgVlM0cDYgBCAEoKAN+0sM8RYjIDwE/hPiQnCBK6+6nNHke9AEj0C0VIU1Fglx55O/sAABfDSURBVDeiqUGgAFiuuCVMsQIUMwBdAqgoYDz0AY0h5jIgvA1sxKL9OcHHYHO4ndLsccwLAJEt9L//P4LLogxXAbmYAS8Vgn9jzNqXwqgzABCAigIcwF0Lix0hpjLgFFiRkJwgKBVMGUVl9rjIC4ANSAPSVXi9ZHQcUUD3VKzJ6EsvUWcAXAJoKGA8vH1vCDGXAeAm6ACSEwTnQzNpzB4neIG7wMUv8gsA3AgmeppI4AzYAu8qtwYwe1wxAzAC0FDAJRizP+sIMZMBmfge0MsAEAZv1z57nOgFFoF7iGZkF4jCPRXrKORRwBOYLLvQHRmYAhQxQHjlr7QZ4IBH7MU/m8oAkFA4heQEgUzPaZ09LuUFQE+CjcgaAA54vP1kIAOwvkKFAU2eVsoA4ZVXqDNgGeyyOsURYiIDwHb7DpISAVsAjbPHpb1AhsQusAcAqOg3BAasgGml/MiwgBWggAHCK6/QZoDDkQ3XrjshJjIADanZavwCOAE2Ktpmj8t4AVCRshKZMgNqxPydJPwMqEghthakzQCnAGgzwLEMRm2TLoWYxoAm9MQlBcmJgcbmB7TMHpf1AmCzdxuZMwTQsH6E6OnGhg5NDnjytDIGuARAlwEOh+Nz+I+vCjGNASChMsn//mHHsKUaZo/LewGw2YvxT5qCqaAF/hc/xoMArJ9M+t5IdQrojwFuAdBlgMNxCeu3eNZhFgNA26IGhADgKnDewxd1YUBQcBBYgh75FQDWhmwRABZg9SoZaqbPK2GARwC0GbAJ0+9OsxiwD7QtQpKiwB3cUDl7XIEXAGeBXf5pc+A6aA767p0MWIUVLKY9iVStAHkGeAVAlQGO5x3YVIa4ZSYx4AaYYYIkRYE/26du9rgSLwB2+7v88wYLwe4Q+/mvwDpO2Varmz6vgAE+AVBlgMNxGhu4seQHcxgANvsHkKwwaBtermr2uCIvACrmm/0TJ8HucDq+AsyHcdUZKmePK2CAXwA0GeB4Ht8HCrm9IWYwAMS+9iNZYXA+0KZm9riyVQAsNUX+maPN0pcBzlVgC7oGJD6J1KYAGQYgAqDJAMd4B96Zv6TXDAaAu6AqJCsM1uYzKmaPK1QAKEwu9E+d3QVOeUWbwN8gDEjYO2ZMpF4MQAVA1wucjpFRgGEMEBPAowAyAegzYDKJAMHBGAF6xAcBG2P9Y8bGaFaAJAOAAOgy4CzeLqnukvEMWIzvAbwKAIA6F+jsceUKOEnYA7i6SYFNYA9BAbc8CsgYo6iXmEoGQAFQ3QeMzxY1X/vZcC8AbGBJk18BJwkuQA8GAKEV+GePF2JNZAgK2OBSQF3kGCoKkGAAJgCKDHA4ekXTlyadNpoBd8BGFEmLg/Ty9gBnjwegAFCV0OGfPg+KBr7vIShgzIgN6YIw98mIR2N0ZAAuAKoMWCYavFu82GAGPAbda5v8CgB5kE2BzR4PRAHoTsjW4+sfEAyCKpmv9hAZsDo1ed2ISFoKIDJAJAB6DHA4xu/EN4JC/OfGMqAGnKchSSEQWsgLaPZ4IAroAP1nkQ4Sa8BdBGnytPNWeHaXTNUYFQYI77+iGwMcjvFfiJuo5x4yNB+AXkzGIAIAkcCSQGaPB6QAsNQ3INXjYIM0v0dCASPkqsaoMEB4/33dGOB43uH4UTyF7/wmIxkAVqFDfgGA3eHtAGaPB6YAGEn01w2+Cg6ICnskFDBGpmqMDgOE99/XlQGOTYTRWjOXGZcTBGfx+/wCqAGhvOhwnRgAqiSWBvsVAM4hdvX0SDLAjQDdGOAUgK4MGH+coIDi471GMQCcxJ1F1gCQuLwRrhMDQBVoC1I3iEYSbZt7ZBTgkYFODHAJQN99wFnSLNZJm3qNYQCYaJ8jVTKWo3T2eIAKWA7UX/DPPgWAzWEpkhWUYMAIvRjgFoC+DPgxnTSP6Xb7MiMYcBy7D/Y9IBLUqHD2eKAKAPXB56v9FSOgYCC/R14BI0bQ3AlCBngEoO8+YN958oDV3OM7e/XuIQICAYlNEiVD6TXhujAA5I4muxMCLgGARNiBnp7+GDBCLwZ4BaAvA05Pkhqwmd6Qnde+6az3+fGLxV8E/Jz44gT6LAYKAJu9+BpkFwgcaku4Hgyo/ga0KK321wuUEI4B5BgQqRcDfALQdx/wc26/85Zd/0fjmQQZAEoVTyA1Q+Cguk7J7PGAGQBbEBQg9QJpRBfYz05QDwb4BfC+nmeCDkcepdcbqACigOHOQWqGwFlgfFs4fQb8D/DfLkbqBbqA9jcH96uASL0YgAhAXwY4vjhvjgBA89JapGboC9hCOpw+A66C3W8JUi8ANoeJwcHBpjEAFYC+Z4Ljl800RQDgPac/8yugCRwSpj0Mp84AcN4vzEOioqBF6ZxgJQrQiQHCy+8bwwBnSuzseRMEsAxs9k4hVWNTYDujF2kzoBVURxT3IGlxcAp1LTjYPAYIL79sGAMcjmV1RggAc4PgMDgbqRs8B8d6PAynzADYEjgbSYrWg9/JCg42jwHCyy8bxAC3BjbFGSAAqABwFpjWhNQNwnlxZ/9rOFUGtMLy/nokJgRGyCb5k6ImMMApAGMY4IoKO8ZfyknQXwCoAobApkX7kMrRdmyWVDhVBsAdQDIaFASR5KpgxQrQgQEuARjGANdm8Oec87oLAFVA03nxGuCpHIX/kByZ2eOBMyALHoBfQ95/AWxS/mqweQyIcAvAIAY43MvA+N5NDXoLAFEAvBAsbUIUAHuZ/H1nOEUGwKOvuGp/Sgx2jUhd5E+KGs6A33kFYBQDPJtBx/On20/G6yoARAGwUnUbUjt8CC5HueH0GNAC/1EHkZxgD3AH0/05QRMYECF8+rKRDHAqwAuCS1/k1KXpIIBE7GZoCOxXkYtWj0/BhgaG02JAF+zvUdyK5ARBGk24VR2YAigzQPj0U4MZ4Osn6HounV589nj757JPzpcBPZ//Er8bBGtA/GNEAW1woY7d95AOA6qxgdRL0ZwgqBdNWFRdbSYDhE8/NZoB/q6yDrcKxjtQSYDb4ZDAbofJ+YDQbQJpGxgaGtqE7QKEtEo6DMAGUqe1IimxenArUgKmzRnPAKcAzGKAaPo8zIqSXr4vIBJQPqAJLLqph5D+Ac+wRSj3GY19wEbs5msemhKDc2yLggJXAE0GuARgGgOkFNBvQiTAjBBc6nPQDhKn8BLWh9oZcBcLw9ehKbEu8JuJ+MxRoxngFsCAY0CAGSHYGDrmEKoA/IqqKlwrA25g84jTs9CUGJxTslQ0edpgBngEMNAYEGhOsBZ86nloD5HH+MlkXrg2BtSnYF9wKZoSywLuN3V5kDoFUGOAVwADjAGB5gThfKiEyiZEAddxH1n1UAsDTuGCOnkGTYnBHUAVafa4oQzwCWBgMSDgrDAc5VuFdpFp2i9qZFCjngEtf8e+2DcdSEYo6AZYjOKziLPHjWSAXwADigEBZ4U3Yd1rUQQ8u40roOGxWgbk4Mk3W2EnmhKDEwBmSsweN5ABiAAGEgMCrhdognavoQllwDnRBWXxKTUM6GwTZ1/z0IxQ0Hz4m3clZo8byABUAAOIAYHXC2CtK48DBYiLl2xTVJwJTpsoroW2oxmhDuweNK1AYva4cQwAAhg4DAi8ZqgJliYkPEZ7icHW0Z7KpRsBMuBqlTj4vKQVZIREqcjzRRKzxw1jABTAYGYA1rMqtwkoIIdQqXCgLQAGdM7/hnAv1QYyQtfFfyJ1Hnn2uGEMEN7+lBUGYBmEdthRMptwr3g+55BSBmybS/j7cR0gI9RFCsLY5pNnjxvFAOHtt1lhwB1I6PQ7QAFNB0hXyzFftilgwLOW26S/XJoFEiJ2cgrGlhdsphcQ3n6bGQZUYcGRGqAAPBvgZfSBaQ9lGdBZviaJnEvoghmhMqkAw/fVJnoBpwBYYcAh7Iy2rgmuAgclqtdKy+qjpRhQ3p7/N/LfmnsVZoRapGvj6haZ5wVcAmCFAZgVFHKwztLXY6VeUUzdwX01GAOelV+vSpJ8qZPPwIxQgVwYeu5y07yAWwCsMAA7p7FtwhRwYqJc/XJabXZO+/F5p7a1tB8sm3k7Xe7PZtphQqRcPvw2KcssL+ARACMMwBtYxy6GCvifp2v7CRz+TVEsMWUblhBpXdLP3yitN8kLeAXACAPwReD8HYwBTTkUwsoN5VhC5EyuuBsCvsgUmuMFhNfeZooBuNkrPofPGLmRpPH1x+Z1YgkRO34CGFefKO6VstEULyC89hpTDFiGv97SnbgCnuWka3n/jVmdWEIEywAIQuz2CVfzxfuGpWZ4AeG119hiwE58N158RzRp6vFN1a9/4vHnOrGEiOj9CwdfmBBUTeiWUFVtvBcQ3n2NMQacxdfflH3iaXPbbqt6/QlllaKM0BnRvnKm62bITjh8Lmk13AsI777LGAOiRCd+qdvECmgiHu73s/fPaxNnhMrnkm8IJwRNWCPeCjYuMtoLCO++yxoDokTwjW8nTZ2ddjKg11+8tJKQEbqTJr4h8t0OzxcfPN3uMNgLCO9+yhwDlol/uKsekiZPn/tSaTuL9Jnz7KSM0DzRwISEAiQfUJgq+krOjIiRXsBJAOYYcEjs9JY8JiigaWjTif0x/b79+IbjbcSMUGeZCPLphZ1oQmRXsXgh2R5spBdwEoA5BkSdjiMc3pEYMHTo0If7cmpTpc98E7PnVZIzQp3l4jUkfh7WRygrSS4jYgAD3ARgjQFRO8U/ecL+GrICnCLYfq2qERdNwpKSvBaZmaMtYnbYros6SS0XHxLHz682zgsI777NIgNGkxSQdEJSAUObwocOrdm37frBnLyyKTlLj5/d/lg+I9RWQkr/EHqJtRKuH/KM8wJeArDHgFJSCvCQpALcs8YeNg31RcTkMkKjjqcQzoivE7vJVd+UyIgY4gWcAmCSAaGnSWf+Me1N8gpQVjdYT0p/pd+V6ii5RvyHcxcZ5AX8BGCOAaeJp32Jp5QrQIIB5TdJl8a2Qumeotds5IyIAV7ALQA29wESfUvnbtPCgFFtmRK5ooar0gpoEd8/JWUZ4gVQAjB3HhBaJZHQOtuklgHn9ktfJSaWvyCpgKLz5IyI7l7AKwA2GfDDcYmf1qT2QyoYEH2qTnYqQlyBJAPsBXHkjIjeXgASgDkGjN4nddibfvOLpsAYUJ7Xb9O789ulGdAlzojEbtTfC/gFwCgDDkkPsynNXtyklAHlB+cqGYmS3iK9DyBnRPT2AjgB2GNAVLtMAKi45Prpof0xoGZapuL4gO2apAKCWgkZkcxqnb0AKgA2GTB69E7515d2s31xjYQCos+1ZM6NDejauEyaAdVyGRGdGCAmAHsMGB36eWp/P7hpuVWfbzpx5/GhcNfIuco7N7a1Z8rXBrjv98X/rwN26SkzxIxItZ5eAAqAVQb8cmej8h/hAMafJU57Rnilua2SCnhBIiOinxcgEYBBBoyOOkW/b3VqXs2o6Ojj4kKDJeXSDChMILhHHb0ALgBWGTA66ufPY6i+/vgD5aNc98LbxOvLpHPSCiBmRPTzAsJH73IGeDpILKMoAdvMc76roRviV1pcL60AYkYkWC8vIHz0EWeAr5PUoSl0BhrFl5xDb4fPiZeXhFPSCiBkRNx9RPTwAsJHH3EGIP0Eaz7XPtYsoeoclg8ov0045ZNWwNVaYh8RXbyA8C8fcQaAnqJNm05qGnOc2F4pTohUNhJO+aQVIJER0cMLCK//C2cA3l1+55RSlW8/5uY0ckaohpAQy5SZOkvoJzN5kR5eQHj9dc4AkQKiQhdnFwdu+0rO1jwkZ4RGRY/KJJzynZFWACkjslkHLyC8/jpngJgBzqVgcd6SANaCpKp5Na6koGROkNCCqPGqtAIIGZElm6upM0B4/V3OABIDXM+hs5lLFDSMSCs5/lhBP0FCC6Lb5dIKIGREGlqpM8BJAM4AMgOiokJDo6KWLT5e1SC1HqTfPnDtRGWTwt7i08TnDHFZ0gogZEQOUD8PcBKAM0CaAa7Bg0OGDKm5c6o9J/NmbuPJ27dvN9bOLNmf177tTmVAWeHoUfsmEk75pBVAyIjcon0e4CYAZ4AUA3wKcKeDotwZoSYVWWGXAs4RTvnuSitAnBH5ZjnlnKCbAJwB/TOARr1AdHTlXJmMiFgB4oxIJuWcoJcAnAEKGaChXsD1nMklnPK9IKkAUUYkvYtuTtBLAM4AoxjwbL94L3nTLqkA+1LMPS6k2z/ATwDOAIMYEJ1H6BZ8RloBWEaktJpqLzE/ATgDjGKAbEaEoIAW+Me3U+0rjBKAM8AoBsxLl2wuT1IALB4tozpjBCUAZ4BhDLiRIp0RIewEk8H5cRDNGSOQAJwBRjHgDqESbNoLUgoA0+a+CfIPmtLOAKcAOAMMZ8Co6PJk8bnydcmECFgyFnlMABUvgBOAM8AoBlSKm0jYDkopAKglqxpFgEYGuAXAGWDCPuDMTOmyIVwB4PSoPgh5tHoBMQE4A4xiwLNs6SMhTAGNUgLQ7AW8AuAMMIEB0UvFGZHaVpICwLVgFkYATQwgEYAzwCgGRF9Pl8yIoAq4CoTSGhQEJaCFAX4BcAaYwIDnTokLEdKycAXYr4GzYDv6+tV6gTEeBJAJwBlgGAPqpcuGfAJoBYUltXa7GAGqGYAKgDPAjH0AKSNSCBUAN4tr7LgC1HmBMbIE4AwwjAFtSyTLhtzvH4sT19vtYgao3gdAAXAGmMGASkKbov1nvAq4iuUHkux2ogJUMkCaAJwBhjGgk1AJVpyTNaGzszMrD98jLK0mKUC1F8AFwBlgBgOeESeLpyQmi3PkMcvtdrEC1HsB4T9f5wwwnwHR85UOLF1jt5MUoNoLCG/8J2eAFRjQomxaZdqiCVIKUOcFhDfe4AywBAO2pyhpPHLXnRGSYICKfYDwxhucAZZgwHP7FLSmKPOmxOy0vIDwxuucARZhQHlif++/zv6CrAJUeAEnATgDLLIPuNog//5rW5GkKCUv4CQAZ4BVGEDKiCD9JKpBVpiOF3ATgDPAGgyIfi5H0g7GL7VjaXEqXsBNAM4AqzAgul6ic/WSenG9AA0v4CUAZ4AlGDAqOrpzPsENJM23kypGKHgBLwE4AyzDgOc6W3LBqVBsXYtdomZIuxfwE4AzwBr7ANfc4cp5ZblJMfGx5yflZt5tle4foN0LOAXAGWA1Bninz48aNarTP2WoM4BVQPFOECUAZ4CFGOBXQKcKBSj3Am4BcAZYmQGdqhigcB8ACcAZMGgYoNQLeAXAGTDYGKDQC+AE4AwYJAxQ6gX8AuAMGHz7AAU7QTEBOAOY8gKoADgDGPQCJAJwBjDkBaAAOAOY8wJkAnAGMOMFcAFwBjDmBaQIwBnAiBcQC4AzgCkvIE0AzgAmvABJAJwBDHkB4eM3OANY9gLCxx9zBrDsBYSPP+YMYNkLOAXAGcCwF3AJgDOAXS8gvPcxZwDLXkB47z3OAJa9gPDee5wBLHsB4b03OANY9gJOAnAGMOwFnALgDGDYC7gJwBnArBdwC4AzgFkv4CUAZwCjXsArAM4ARr2AnwCcAUx6Ab8AOAOY9AIoATgDGPQCqAA4Axj0ApAAnAHMeQEoAM4A5rwATgDOAMa8AC4AzgDGvICYAJwBTHkBsQA4A5jyAiQCcAYwtA8gCYAzgKF9AJkAnAHMMIAsAM4AZhggfPIeZwDLDBA++YQzgGUGCJ98whnAMgOcAuAMYJgBLgFwBrDLALcAOAOYZYBHAJwBrDLAKwDOAEYZ4BMAZwCbDBA+/IQzgGUGCB9+yBnAMgOEDz/kDGCZAU4BcAYwzACXADgD2GWAWwCcAcwywCMAzgBWGeAVAGcAowzwCYAzgE0G+AXAGcAkAxABcAawyABUAJwBDDIACIAzgD0GQAFwBjDHAEwAnAGsMQAXAGcAYwwQCYAzgC0GiAXAGcAUAwgC4AxgiQEkAXAGMMQA4bMPOQNYZoDw2WecASwzQPjsM84AlhngFABnAMMMcAmAM4BdBrgFwBnALAM8AuAMYJUBXgFwBjDKAJ8AOAPYZIBfAJwBTDIAEQBnAIsMQAXAGcAgA4AAOAPYY4Dwj884A1hmgPCPf3AGsMwA4R//4AxgmQFOAXAGMMwAlwA4A9hlgFsAnAHMMsAjAM4AVhngFQBnAKMM+P8+0lLLq+wCyQAAAABJRU5ErkJggg==;" vertex="1" parent="WIyWlLk6GJQsqaUBKTNV-1">
          <mxGeometry x="140" y="240" width="50" height="50" as="geometry" />
        </mxCell>
        <mxCell id="Hey_0Endjz0srx_wIcTM-2" value="" style="shape=image;verticalLabelPosition=bottom;labelBackgroundColor=default;verticalAlign=top;aspect=fixed;imageAspect=0;image=data:image/png,iVBORw0KGgoAAAANSUhEUgAAAgAAAAIACAMAAADDpiTIAAADAFBMVEVRKq7///9sPsl0RNF0Q9FcNLtiNLxmO8RtQMtZMLVyQs9uQMt2RtN6SNd8StlmOsNqPMdkOMF4RtWDTt9+TNtoPMVwQs1wQM1eNLuFUOF+TN2BTN2FUOOJVOeBTt9cMrmHUuV8SttiNr+NVuuPWO1gNr14SNWJUuWHUuN4SNeVXPN2RtWRWu9oOsV6StmLVOeXXvVYMLV0RNOTWvFyRNGNVulaMLeDUOFWLrOLVOlqPseDTuFiOL9ULLGBTt2LVumZYPeRWO2TWu9gNL2bYPmPWOudYvtuQM1wQs9uPstcMrdYLrNaMreTXPFaMLV2RNN6SNlgNLuVXPGZXvdULK9+SttQKq1WLrFiNr2fZP2HUONSKq2RWO9eNLlSKq9SLK9kOL+ZXvWbYvlyRM+XXvOPVuteMrlsPstQKKtqPsloPMdOKKtoOsOXXPNYLrWbYPdmOMFmOMNWLLGdYvnj2fXl2/fn3flOKKmhZP/h2fPj2/fl2/r+/f/7+v/n3fvp3fvh1/Ph2fX49f6tkeXx7PufYvufYv3v6Pvn3Pn69/6vkeff1/P9+//07/x9Ttbp3/v28v1NJqnr4/qhZv+oiuN4S9Hf1/HdzfiPaNmjgeOiiNns5fqKYdiOYd+SbdnHt+mtkOOJWeDVx/CggtzFrPG7pefXxvbJs/KymeSlefHRvfWsi+jPwO6/quihZP3f1PaWdNi5nO7AovOdeOKaae3MvO3i1PnBruiaetiYc97UxPGuiPDNuPLFsup+UtSzluqvluKjeeuge+OGXdfTwfXZzPKpgu23oeRqQcOTX+uUa+CFYc6RYuSGVt2BUtjp4fevkeWXa+WNWea7oezc0POFWdebcuS3lvB9WMyRXul3UshySsaGU+BlOsHj1/lzR82wk+enjtze1PJ6Stfn3/eCWNSxju+gcu6/puyzke+DWdWJaM6DUtxoPsJ+TNmTX+1wQ8tuQsnh1/VsQMeDUtp2RtF+Ttt5StWFUuNuQMl0RtGBTtuJVOVgOLuXZO1yQs0KScS0AAAACnRSTlM4////ODg4ODg4rLSMvQAAAAlwSFlzAAALEwAACxMBAJqcGAAAIABJREFUeNrtnQuMVdW5+PcIOgwM03PHOYNerbUXmXhPTJjexLR3YsH8U81f7Gg1tk7jJZ04J43JPUl7e0GjHlqLk0ynDpRSUF4D8hLKI/KUN/IQGLHoLaICdlrtqFhxuCCOPHTgZj/PXmt9a5+99l7fPufMXnuStomEIut3fuf7vv2t79MGVxpPXbXz1BHPcObpMZ4q3vPDH56qgZ7rnGcM9dzgPFebz7eZ51rXc/31553n5txzo+v5yvV8nXhGG89Y5rnVfkYazx3McxPx3MJ//p/xNDLP/fqTsp80+dQzz+3c52c/+9n3vve9h5nnv//7Tvfz4zzPH8xHG1xdWVdZV1lZ7ZeAKg4BNdYPS8B1NWNqxtTUfFEEBIzlEDBSiIBbOAQ0Gj8sASnjhyWgPlVfzxJwu/HDEPCw80MTcKf1QxNg/1AHb/382AbAMoB/AoZXeTqghuOAMcXhgLEcB4wUcsAtHg5o5DggBRKQqocdcDvfAQ9zHHCnkAP+8GMHAN0BlQIOGO7pgCqOA2qKwwGcb4GRcr4FdAMA3wKmAhgHpNL16fo07IB6vgOYbwFbAUIOsL4FcgaQ5YAajgPGFLkDxL4FPBzQyHNAqjFNO0A3gC0BxgA8BzzMc8CdInHAH0wHmABUmxRIcUAVxwE1Re4AUQK4DriF5wA2Ekzp3wJpMA6o5zvgdp4DhOIAKxK0DSAYCXo4oIbjgDFF7wBJcUAjzwEpwAGp+vpcKMgYoJ5nAAlxgBUMOgAYDMhwQJ5scODHAbfwHMBkg2njWyDtBII+skHbAOHjAOtxAVAnJxeo4TnAygZjEAdwHJBiHGAQoJ8/EAdwssFcMBgyDoANIMEB3hWhMXGIA/xXhNKpdGO6nu8AsB5wu5cDfMcBrAGk5QKeDoh1HAA7wCgGAHGAaYD627kloXBxgKkANwCycgEvB4yJdRxAOSBtfwsYFSHIAbcLVYUF4wDLAH20AjAdEJ96gD8HpA0CjIKQSD3gYTlxgGmAPoIAObkA3wGxqQf4cUDa/hZI6V8DAvWA2+XFAToAlANw44DY1wMIB6RTuW8BoXqAtDjAAIAmAD0XUHFAo0sAlgOE6gHS4gATgL7KiHMBVQ/QvwUa9SwwaD1AUhygDb6XIiCKXEDVA3QG0o368aftZCAlVg+QFAdog++9t4/9FsDNBVQ9wPwWSN2fbkw7cWCaQCCqeoA2eBBAAHYuoOoBKV39jboD6t0MwD1CmPUAbfCgQaADkHOBuNcDrB4hnQDjG6DRqgmm4VwArx6gDa7kEaDqAZgOsJqE9CigMW3nAtx3g3j1AN0AleC3QJ2qByD3BzSa3wHplI93g2j1AMMAgAOiyQViHQekrBaRRsP/lgM83w1ixAGmASoHFSgXiHU9IOcA2wL53g0i1AN0AAaBDogiF4h5PcDtgFS6MZ3v3SBGPcAEgOsA1R+AHwfkcoGU97tBlHqAY4CC5AKxrweYAmh01QS93g1i1ANsACoLlAuoekBjYypFxwHcd4Py6wEuAxQkF1D1ADMSIOOAVHT1gBwABcoFVD3AMQDhgKjqAYQBCpYLxP2+gCsX8PNuUEYcYCvADUABc4GY9wcY74YcB+R/NyixHkAZoEC5gOoP0D3g+92gnHoAa4CC5QKqHuCUBI3Tb0x7vhuUWg9gDFCg9wJjYh4HpJw4IO3n3uDt0uIAGoBC5QKqHuCqCabdNUHkegBggILkAqoe4K4JRtYfcCcAQIFyAVUPgGqCfAfIqgeABihYLhD79wLAu0Hk+wIQAAXMBWLeHwDUBLkOkFQP4BigYD1Cca4HADXBfA4IXw+AAShgj1Dc7wu4aoKN6fwOCB0HaINbBvl1gLovEMW9QbsmmLs7jFoP0Aa3tAg5QPUHjI2mJphORVIP0AEQcYC6L4AdB6RccUAE9QADABEHqPsCkfQJpu5PRVMPMAHw7wB1XyDiPkHseoAFQEuR5QJxvy9AXRpCrAdog4e2iDlA3ReIMg5IY9cDtMFDhwZwgOoPiOjeYKNPBwSOA3QAxB2g7gtEcW/QyQbzxwHB6wEGAOIOUPcFIukP8P1uMHg9wARA1AHqvkCk9wYx5wdYAAwtulxA1QPccYARC6DUA7QhQ4cGcYC6LxDl/ID6xvoUUj3AAaA4cwE1PyCF3B+QA6AYcwE1PyAl1iMkXg9wAVB8uYCqB9AjROTXA9wAFF8uoO4LEH2CKYR6gDbk8tAQDlD3BaLoEwRniEiqB2hDLl8O7gB1XyCCPsGUXRT0EQeI1wN0AEI6QPUHFFEcIFwPMAAI5QB1X6DI4gAxB5gAhHKAui8QSRwg0issUA+wALhc3LmA6g8Q6hUWqQfYABR1LqDqAUK9wkL1AAeAos4FVD1AqFdYpB6gDam9LMUBqj9gbGFmioasB2hDamtlOEDdF4hyfoDEeoAOgBQHqPsCpTk/wABAggPUfYGI5wfIqgeYAEiKA9R9gdKbH2ABUFsauYCaHyC9P8AGoCRyATU/gJopKqEe4ABQErmAmh/gygXSUuoBOQBKIxdQ9YBcVbC+UUI9wAVASeQCqh7gLgmmw98XcANQErmAqgdY8wMk9QcQAJRMLqDuC0ibH0ACUDK5QNzrAYK9wh71AAqAEskFVH+AtPkB2pARtdIdoO4LRBIHSJkfoA0ZMUK2A9R9gYjmCMmYH6ADgOAAdV8ggnpAo10PCNMfYAAwQn4coO4LlMg8QRMAFAeo/gD0/oDG1P2pcP0BNgAjSjMXiH0ckGq0t8wErQfYAJRoLqDmB9gzROobg9UDHABKMhdQ8wNcs8SC1QNyAJRgLqDqAU6TUCpoPcAFQAnmAqoekOsTtLaOitYDtCHDRqA6QPUHRDU/oL4xbxwA1AO0IcOGYTpA3ReIok8wRH+ANmRYLaoD1H0B9D7BlMBscaYeoBsA0wHqvgB+n2BKZKYoXQ8wAMB1QN36RVOyZeoRfaY8t81/fwDZISBQDzANgOmAc6vUWQZ9XvhfgTlCdhwgdl/AAgDRARvVOYYg4D9EHSBaD7ANgOWAvvXqFIM/2bJtAd4NCs0TdADAcsAidYxhnuf+Q/i9gI85Qq56QM4ASA6Yog4xVCQYcL9Aym89wAUAjgNU/B/uSyDIDBE/O0fteoDbACgOUGcY7gn4btB3PYAAAMMB6gjlAyCzHkAaAMEB6ghxDCCrHkABIN8B6ggxAJBXD9CGXBiG6gB1hOGeEL3CvuoB2pALF1Ad4P6XaZ/gep7wfibKeX4j+3k0wPNLn8+vzKedACDMPEEf9QAdAFQHuP9lJhjvhusieDdYDG+Hx3L6A/K+G/wV8RUQYp6gn3qAAQCmA0gAKkXfDsexV/hXlAECzxP0Uw8wAUB0AAVAtWinaAx7hSkAgs8Q8VMPsADAcwBoAHV32IsABoDgM0Ty1wNsANAcwABQrWaJ5ekRYg0Q+L5A/nqANuSuC6gO4BhA9QrzCQAACDBDxGc9QBty112oDgAAULPEvAk48UfXI+HusGc9QAcA1QGgAdQssSh2jPhygDbkirtQHQADoGaJRbpjxCMO0IZccQWqA3gAqFliEcwS8+EAHQBUB3gZQNUDCj9LzAAA0wEEAGqWWGHiAI+7wyYAiA4gAVCzxIotDrAAwHMABYCaJVZkcYANAJoDaADULLHiigMcALAcwACgZokVqB7QCDogBwCSAwgA1Cyxguwed64LAHGACwAcB5AAqFliBYwDwFzADQCKAwgA1CyxoosDCAAwHEACoGaJecUBl/6x/bm50yZlJ7f+dcW6P2LsHWYdQAKA4ACyEqhmiXHjgA3rfkf2A09b8UeUeYK5OKA+XU8ZAMEBlAHULDHYASdWdAA94dPfuUV6LuCeLZ6qT9EASHcAbQA1Swwg4NIK3h3a6fsRZ4unAANIdwBjADVLjCHgH9M8rgev+N+bJNcEbQiMbwEWAMkOoABQs8QYB9yxwvtu0NwT8t8LGP3iBgIAAHIdwACgdo+TDjj2Ur4RCu3bbkJ4L2CmhCAAUh0AGUDtHs8R8Orv8t8PnLRNsgPq7SsDsAGkOgAAQO0ezzng2F/93BCdtF++A6yyEAyARAfABlC7xy0CXvB3R3ia3Dgg5bweTnEAkOcAEAC1e9xywDq/t8R/JzsX0OsBugJ4AEhzAM8Aavf46NGjT3T4nhOwTPK7QTsW5AIgywEcANTu8a+PHT0WCgAmtU2HygIdJ26S3yOUTqW08oYrUB3AN4DaPf4Pdi7k2g36u8Fj21YwELx0k7yaoFEMMBWglTc0oDqAC4DaPT52On3Gu0eOtN8Nvrqunfqn+2+6Se6eIcMCOgCoDvAyQLx3j4/eRkl+HdEjdMeJNsoOI2+S/G7QNgCqAzwAiPvu8eeoXJ/uELn0JPlWYIP8/oC0BQCiA7wNEOPd44dfJVOAd9geoUutxK9YJ3XfYMr1FYDpAE8AYr17/B3idLdDPUK7idcET2L0CmvliQZUB+QzQGx3j49+xf1XM/lVoFd45Eji13S8KrlX+P77779fK08kUB2QB4AY7x4n/L4E7hTdQHxNbJPcK5xKpQ0AUB2Q3wDx3D0++jDxDbCB0yv8Ej8IkFEPMA2A6oC8AMR19/huotTP6xVe544CVoyUvXdYDwITCVQHEACo3eM5AogqwAper/Af3Xngc/L3DjdaAOA5gARA7R53no+IEODfOTdGNhCVQvm7xx0A0BxAAaB2j9uPOwvMruPNFT7m/vv7pfTd4zkDoDmABkDtHocMsI43WfoSaQDZ9wZdBsByAAOA2j1uPvuJMhBntvjI3eTbAOl7h90A4DiABUDtHjce4mj/OpZzZ4goF76CcHfYDQCKAwgA1O7xHAHHiDLvq/CdoVuJnsF1CLvHCQAwHEACEGD3+IC9LzCXfBU0GnLAq0RTwEd3yJ8fQAKA4AAKAFEHDNz7AuS7gNbD0L3BW5cQ5cJLCPMDKADkO4AGIIgDBmZ/ANkQtg66N7iBEMB0jBkiNADSHcAAIO6AAXpf4BjxoqdjN3tv8A6iIyS7DGOGCAOAbAewAAwtvlygMPUAsiNoyobDlANupW6NnMCYI8QCINkBAADFlwsUph6wn7r9s590wKsvkf/8lyhzhAAA5DoAAqD4coHC1AOoe6Edy46NdRww9iOqJ7TsI5RZYlp5MoHqABCA4swFInbAjRvoIy6bvGy36YBLa3/DzAq5FWWWmFaeTKI6AAagOHOBaOsBf26DroBNefKFV16aC4wM2D8SZaaoDgCqAzgAFGMuEGk94OZLc4V2CL/gZ+doAAcYAGA6gABAePf4wL0v8KfpQuffeglppqgJAKIDSAAuB3fAgLov8HXB8+/YjzVT1AIAzwEUAKEcMHDuCxwTO/+yd/4da7a4DQCaA2gALoeJAwbIfYGvjv1O7PzX4c0WdwDAcgADQEgHSI0DDnUePNh5KPJ6wLFHhY4/u3Yk3mzxHABIDmABuFwUucDCGcsmTLZKcBOWrVwYXT3gq8O/ETr/ydswZ4u7AMBxAABA4XOBL1ceoTLtjn0rP42oHnD4SeaIvSbFPLlh7GjEHSNuAFAcAAFQ4Fzg87WtYKa19tMo6gGHmbkw03afeIn78V97eCzqjhECAAwHEAAI7x7HyAVmt/L+tttm/PA67HoAe/6Td5+/8cZtYFg4ecml0WNxd4yQACA4gASgNrwDQuYChzwn8209hFwPOPwSe/7mm6HdK+iZME+uPTYWfccIBYB8B1AASHJA4DjgYJt3xNX25y8x6wGHX6Sr/O27nf6Aw/vXPWfNhmp/9JV3Nnx9bAS7xmgApDuABkCKAwLnAnsm54259+DVA26mekD0wTC7qW7xwxvePrHhWHS7xrTyTBLVAQwAUhwQMBeY7WMw46TZ12HVA9jzb99/41eF3TWmlWcyqA5gAagtVC5QtaXdT97dvh6pHvDVPrbEX/BdYzoAqA4AAChULtA5zedk5k6UesBXL7BDwL8q+M5RAwBMB0AAFCYXOPWi39rbhE/l1wPO3/wKU+LdXwQ7R00AEB0AAlCIXGD4m/6rr2/K7w84z3z+O7bd/FXhd45aAOA5AAagALlA5yQg6Xtx1YoXgcSwvVN2f8B59vO/rSh2jtoAoDmAA0D0ucBWOgOfu7bTrA11vskwsOKU3P6A88xiqI6PzhfF7nEHACwHuP+lf11bK9MBArlAT08ndf7TXv6ix3k5/OXLdH2gU2p/AHv+2Y+KZPd4DgAkArgARJwLbKSarDvJBoFOqkVz2RcS+wPOb2fO/x/FsnvcBQAOAXwAoswFek6RH/EnPncf/ym9N+QJsiD4qbz+APj8i2T3uFb+NVwCCABG1CI4wFccMIN887twKtMh0km+JFz5TWn3BZaxLX4Yu8eDOUAr/xouASQAI+Q7wFcu8INVxAGs72GbxL65h9zYKu2+wDK2xUv+7vHADtABQCWAAgDBAb5yAeLj/QLcJUZUaltl3RdYwtzyWXu9950homMQOw4wAMAkgAZAugN85QLziBM4CPUJ1lS9DeQBoesBS8rY889za4wEADkOMAFAJIABACUOyBcJEnqfy+sUJcoBe6TcF2A//+vy3hqjAMCNAywA8AhgARgRfS5w7mViLiuvV5j4tn5Zwn2B6z+Gzj8fATQAqHGADQAaAQAABcgFPnb/MZ7m3Rd4z/2rPpYwP2At4/+PfdwbZADAjAMcALAIgACIPBc4R3wT7+HdF5hNeCL8/ADm/LNLzp/PTwALAGIckAMAiQAQgMhzAULuW3j3Bd6GaoHB5wewn/8l1/u5OQoAgBcHuADAIQAGIOJcYPgm9x9jNue+wCnSAGHnB7zM7v/1d3MUAgAtDnADgEIAAcCwEYgO8MoFiF6A93h3hogj+zjk/ICXmfhvmc+7wyAAWHEAAQAGASQAw/Ac4JULkJXg7Zw7Q6eImv1vw80PYPcCL/N7exwGACkOIAFAIIAEoBbZAbw4YAsxhqcHvjN0iugZXB9qfsBvmc//dt+3xzkA4MQBFADyCaAMgOsAbi4wdRKdBgAOIEKA7KHg8wOuHvMR7/z9EMADACUOoAGQTgANAK4DuLnAZ+4/x8Qe8N4g8Rc/vaqmKvA8wZXM+a+41v/8AOLPgd0fwAAgmwDGAJgO4OcCZEfo09C9wffIb+wqmAA/DljZ4XH++QkgAUDuD2ABkEwAC0BtIXKBg2RD/kHWAdStkfX6+QebJ7if+fy/8heRCRIUALj9AQAAcgkADFCAXGDqImoWwCzKAcMPkv0gbV8aBggwT/DqGR15zj8fATQAqP0BEABSCYAAiDwXoM9fvwNK3hucTXWFvlllGkB8nuBspv38hb+IzRD5DQ0AZhwAAiCTANAAEecCPYuAyUtbOx0HfHPedsrakw+dsgwgOk9wN3P+z/1FcIYICwBiHAADIJEAGIBIc4Gp++BrwFtnvKWf/6GVWyfR39ofu6eJidQD9jD+33dedIoMAABeHMABQB4BHANEmAtwzt+8AjR9OnRjuO1z8/hF5wnesAf6/ItOkYEAQIsDtPKf4xLAAyCyXMDr/HmD+WYH3C+wh6HpuUPic4RAALDiAK3857gEcA0QUS4Q4Pz1GkCQ/QI3rGfmj7y4MMAcIRgApDhAK+/GJcD9L/O48O7x0LnA1CPi5//Zl8H2C7zNnv9fgkyS4gCAEwdo5d24BBAACO8eD5sLBDn/uYeC7RcAzn/h1UEmSfEAQIkDdABQCSABuBChAyrrgp3/vGD7Bd6eQv9Of10YbJYYAQD2vUEDAEwCKACic0A19PnPvpHv/J9YGGi/wJg/T+OfvyABJADI9wZNABAJoAGI0AFTmZkw2ed7dnif/6rXg+0X+DPz+Z+4MOg0OQoA3HuDFgB4BDAAROYA9vzLZtQNr54xxWM81MofVInvF/jiui/Y8390YeBpcjQAqPcGbQDQCGABiMgBwOd/xr/qL4Ze35HlpP/b3wq0b7Cm5mArfP7BCGAAwIwDHACwCAAAiMQBOz9jz996Nzh83jJgXtCkjZ38DROeucA/s+c/fWGIeYIsAIhxQA4AJAIIAIR3jwd2AOf87f6At357hCjaZ198+fOqnh7n5aDQrrE/seffeUOIiZIAAHhxgAsAHAJIAO6KyAHs+XfMoHqE3iM7xY3TH14lvmdoTGeb1/kHIAACAC0OcAOAQgAFQDQO4H7+XQT8D9EDHnzXGHv+cztvuC7MTFEQAKw4gAAAgwACAOHd48Ec4Hn+NgE8AAQd0MksAG3tDDlVFgYAKQ7QyptxCSABuCIKB+ycwJ4/2yVGAPA/QfcNLmQWALb9KexUWQ4AOHGAVt6MSwAFQAQOYM+/YzbQK8wHQMAB7Pm3/umLsFNlCQCw5wjpAKASQAOA7oCdT0Dnz94X8ALArwMWvsGe/5eh5wqTACDPEzQAwCSAAQDZAbzPP+MALwB8OmAhswByysEx4ecKUwDgzhM0AUAkgAUA1QE7H2XPvw+8L/C0JwB+HHBoInv+MmaL0wCgzhO0AMAjAAAAzwF9Oz9gN8Bw7gt4A+DDAdD5S5ktzgCAGQfYAKARAAGA5oAPmfPvWPxvnPsCJAAB9g4zsca0g3Jmi7MAIMYBDgBYBIAAIDmAPf9Je+7l3RegABDdPX6IiTWmvT1GzmxxAAC8OCAHABIBMAAoDgDOfzH/vgANgJgDPmXeNU5++4c1cvYMQQCgxQEuAHAI4ACA4ADg/Lfcy78vwAAg4oDPgfOXtmcIBAArDnADgEIADwDpDmDPv33LTI/7AiwA/h3w6RHO+UvZMwQDgBQHEABgEMAFQLIDPnyD/fz3ed0dBgDw6wD2/F27BsPvGSIAuP68ZAdQBGjlt+ES4P6XeUp497hvAj6Zy37++zzvDkMA+HPAl/vY8/9nCXOFYQCul+4AIg7Qym/DJcADAIkOgM6/0vvuMAiAHwe8ziyAa98jYa4wB4Brr5fuACIO0AFAJcALAGkOgM7feDHgcXcYBiC/A75gF4DuqZEwV5gHwLUIDnB9CxgAYBLgCYAkB8Dn3wcTYOcCHADyOeDUVrbWHGSOkAcBFAAIDnARYAKASIA3AFIcAJ3/ReftIO/uMA8AbweceiXLnH+QOUJeBNAAXIsZB1gA4BGQB4CwDhgEff4nz3eOn393mADg6fy7xw0CTq1iP/8B5gh5E8AAgBkHaFfdhktAPgBCO+Atpidv2vyLPu4O8wHwcABz/tmV4DS5UPUAFgDEOEC76l9wCcgLQDgHXN47lz1/X3eHPQDgOoBZANixsoo3TzB4PQAAAC8O0K76F1wC8gMQygF7W/OdP+/uMAlAvt3jugOqlgGff2OQTE2oucI0ARAAaHGADgAqAT4ACOGA/OfPvTtMAZB3+3zPVPD8q3jzBIPXA0AAsOIA7aomXAL8ABDYAf7OH3YADUBeBzD3irPv2ccvMkcoPwEwAEhxgHZVEy4BBADCu8e9CZjHnv8s3/MDGAC8CTi3BD7/Kq95gsEcwAEAJw7QrmpqRiWABKBBpgOg87/oe34AC4AnAR8z5/8y3SUkqx7AAwAlDtANgOoACgCJDmD9P2WWwPwAAAA+AT1e51/jf46QLwIIAL59La4DDAAwHUADIM0BwPnPE5kfAAHAJYA5f32YsPgcIX8EkAB8G9cBpgEQHcAAIMkB85iZHK2zWkRmiIAAcAjIc/4+5wj5JYACANcBFgB4DmABkOKAecDn/7LQDBEYAJCAtfnPvybAXGEeATQAqA6wDYDmAAKARIMcB5wGPv/zBGeIcABgCehZzp6/8BwhEQcwAGA6wAEAywEkAAk5DpgFnH9Li9gMER4ADAHsAsiPxecIiTiABQDRATkDIDmAAkCGA06z5z9lXovoHCESAO7W2XPs+S8JMEdIxAEAAHgOcAGA4wAaAAkOgPx/uUV0jhAFAI+Ap5mRYkvO9YjPERKpB0AAoDnAbQAUBzAAhHXAsFnMTM62vQHmCFFvA2EChrPnv2O4+BwhsXoACACWAwgAMBzAAhDSAaz/2/b+LcAcoecpA4D7BoHz/0GV+BwhsXoADACSA0gDIDgAACCMA85A5x9oltjztAEAB7ALILdXBZgjJFgP4ACA4wAKAPkOgAAI4QDg/D8JNkuMNQDjAHYB3PZzAWeJidQDeACgOEC7alQTqgNAAII64Mz8yez5twSbJUYCAOwcPTebPf+egLPEhOoBXAAwHKBdNWoUqgNgAAI6YD4b/314OuAsMdoAzAyR2Yz/N/YMDz5P0H89gA8AggN0AFAdwAEgEAHA5//Dy0HnCTIAUDNE2M//1qkBZ4kJ1gM8AJDvAAMATAfwAAhAAHv+cz88fTnoPEEAAPcMEXYB3Nae4cFmiYnWA7wAkO4AEwBEB3ABECXgAvT9fzn4PEGOAfRvgrrKuvX5zx+tHuAJgGwHWADgOYAPgCAB7PlPPxpmniAEgIlAdR10/lPrxOcIBasHeAMg2QE2AGgO8ABAiAD2/N/YGWqmKARAtRUHbGYWQO6bKjhDJEQ9gADg6m/jOsABAMsBXgAIEDCfOZI3PjwTaqIkbAAjDtgyGT5/GQ7wUQ8gAbga1wE5AJAc4AmAbwLWsOe/83S4maIcACrrKvnnL8MB+esBFAC4DnABgOMAbwB8EsA9/xAE8AAAzv/I1Dr/8wPC1wNoAFAd4AYAxQEEAMlgBHicf3ACCACez10ZYotNL071eXdYUj2AAQDTAdqVo0ahOoAEIBABa5iQ/IOdZ0LPFSYBcLrFZwHnf87n3WFJ9QAWAEQCSAAQHEABEIAA6PMvYa4wBYBJQDV7/p9N9XFvUGo9AAAAjwAKAPkOoAEQJmAz8/l/YuaZsHOFL27ZRIwVaFs6qw/+/H/2erWPe4NS6wEEADcgE6Bded8oVAcwAAgSwJ7/xJmnT4ebKXpu+XR2b+AbM85Vsi+bJ7xeXe2DAKn1ABIAZAK0K++7D9UBLABCBGxmXslMmHnmQqiZon27OMtnkyNxAAAV3ElEQVRj5y5nFwC/Xl3tiwCZ9QAKAFwCdABQHQAA4J+AC+z5/3rmhdOhZorOmuh/lXzu/OU7gF8PoAFAJcAAANMBEAC+CVjMnP9T+vd/mJmiyzv8n/8Hr9cZr4aQHMCrBzAAYBJgAoDoABAAnwQsnsT6P9xM0Zkb/R9/2fS3jCaROiwH8OoBLACIBFgA4DkABsAXAezn/5mZZ0PNFJ15ROD833jLqAxX5xCoi6YeAACAR4ANAJoDOAD4IIA9/7/PDDdTVOj8rc+/WwER1QMgANAIcADAcgAPgLwEAOf/tzOhZoq2iPi/ba/zdgjZAUwcAAKARUAOACQHcAHIQ8DiLHv+IecKLxc4/7l7c0NlcR3A1gNgAJAIcAGA4wA+AJ4ELC4Dzj/cTNFZHUE+/9gOAOoBBABjkAnQrrzmPlQHeADgQcAc5vN/5G8hZ4oOesL/+U+aRw6WxnQAWw8gAUAmQLvymmtQHUAA4HfTFHT+Z0POFH2eDfNWb5l37ty8LauZabNley5Ss6WjrAdQAOASoAOA6gASAH8EzAA//6Fmirb00TNlPphtvxga1LeFrg5+QA2Xj7QeMJECAJUAAwBMB1AA+CHgfebLet/fLoSdK0wJILu8z/V2sK/vAMXc7ErqibAewACASYAJAKIDaADyE/B+lj3/0HOFWyZSW56oiZL3Lia7Dvb10QsmoqsHsAAgEmABgOcABoB8BADnf/ps6LnCs8jP/+KLTIfIbPJXvNUXtQOcOAAAAI8AGwA0B7AAeBJwBXv+i05LmCu8lPgtlw5ieoT6Bq0mfsnyvogdkKsHQACgEeAAgOUAAAAvAt4vY8//rIS5wsSq57aZUJfYOSJMPFLZF6kDXPUAEAAsArQrx1+D6gAIAJiAZEND8nkf5x/EATOJuHIG3CdI/J9PpqbLR1gPgAFAIkC7cvx4VAeAAMAENCR35fV/QAfMJyLAmXCn6DkiDpzFbpqKqB7AAQCHAB0AVAfAALAENCQbkruYz//WM3Jmi88gflNep6h7JWB2Rh/ggAjqAV9wAUAhwAAA0wEEAJ4zRRvY81915qyc2eIH3L/rLl6vMPG26D1o21wk9QAuABgEmAAgOoAEwIMA4PO/6LSs2eKriRyQ1y1OZIJL2S0zEdUD+AAgEGABgOeAZ5555pmnrGeB10TJ5cDnX9p+AWLfz3zefYE1xEBAeONkBPUADwDkE2ADgJwL5J8nCPj/QoO0/QKb3L/xFt59gS3uX7UJ2jcYST3ACwDpBDgAjEeuB+QhADp/WbPFa2triTrQjMscAohQ8U3O7nH8egABwHXIBOQAKJgDEqD/N55NyJktbjzu3z+7lHdniMBkObx9PoJ6AAkAMgEuAArngMQBzvlLcwDRYDaBd2eI+Jvfw9s9jl4PoADAJcANQKEckOGfvywH7CVe9HwCE0D8orJ5vN3j6PUAGgBUAggACuSAA+xIzrPJRPi5wi4CWohbvztaQAIWECsI+zz2DuPGAQwAmASQABTEAeznf8HZRMiZorQDTm8ldn7Pg26NzSM43Oqxexw5DmABQCSAAqAADgDOvyHMPEHYAc9TN8yAW2Nky8jz3rvHMR0AAIBHgFYxfnwhHZBcypz/joZEQgIBhANOk68Dy1a10AT0rSL7gnd67R3GdQAEABoBWsVPxxfSAdD5J/U3Q7IdsJV6y0Q5YOYiqgqRZ/c4pgNAALAI0Cp++tPCOSC5mj3/Lr0y0CDdAfPpvt/5bgLWvEH94/l5do9jOgAGAIkAreIbPy2cA9jz32S9GtS7Q+Q6gLkYunXNRZOAi1sWMW2IlXl2j2PWAwgAapAJ0Cq+8Y1IHNB1dM3mOZvXvPZu7vx74fNPGAgkGyQ7YBaTbJZNW7Vp165Nq5jBUGXZWfl2j2PWA0gARHePCxKgA4DugK7Nmz5w/vrbVr1//L+Mz/8m6PwTVnlYjwMICYR2wA7/V8N25N09jhkHkACMwXWAAQCqA/7p5AJq9mo2u29xEjr/1c7xWz1CUh0wc67vq8FT8+4ex4wDKAPgOsAEANEBJ/fB4zfeB86/1/zsZ5LJREZ3gBEJNMhywGm/14MnzWrJu3sc0wG0AVAdYAGA5YB3F/j37tJMrjvIUECmgZJASAdcYO8cQk92ho/d45gOYAyA6QAbABwHrJkicP69mWQyk+g1T783kWkwGoVlOmDYLj9/kOVDfewex3QAawBEB2gV476B5oADWZHPv/FmqDdhM9Cgfwt0UZFA2DhgV94/UXaXr93jmA4ADIDnAK1i3DgkB3QL6L/sQK+rQySjhwDWdYHkWaImEDYXWNzu/edoXzzI1+5xzHoABYDg7nFBArSK8eNwHCB2/rm3wxn7K8BkgC4Mh3XAvA88R0PO87l7HLMeABlgDJYDdAOMR3HA6iDnn8kke12nnzHCAKkOOH3xwCRu+H9gpt/d45hxAAOA0O5xQQIMA2A4YI7I+RP9Ab3G6dvRYEa6A0bs3Qjmgx0b9w7yvXscMw7gGADHAaYB5DvgaLv/81/eTfUI9eq1ACsa1E+8i6wKhY0Dams/WU0PjClrXf2JyO5xTAeAQSBWLqADME6+A5qfFai7fq2X6hHKJHsTdjjYa30PNMjtEWpZs/QZ56tg0jNL17SI7R7HdAAEwHVYuYAJgHQHAF8AcxcceH/X0kWsGeZ2cbrFExkzF0wkJccBVqfo5Q/XLJ4xY/GaTwLsHsd0AN8ACA5wDCDVAV10AWjS6te6m7u7m5ubuzYzcngf6BTtdWpC1uthyXGAfWNk2IgR/z/I7nFMB8AAINUDbADkOoCe87H1eO7lYHP3ZgqPKWcysAMyugDM9wJnkw1S44AwO0ex6wEcAHDqAS4DyHNAM/neLXugu7nb3R9wfAJJwBy2V1hPB616YG+iV38vID8OCL53GLce4GUA6fWAHAASHXCSPN9dTXSHSBc5tvUI1C2eSRIvhxNdCbJFoFgdED4O4AKAUQ8gDCCrKky+6d0B9AgdJ9Kw7FGQgF6rIpRxEMCJA6Q6QEIckMcAch3gBkCaA8iVfF1Ql9hmMgxMgneGMuan304KEonSiAPCOsAzCJSdC1AGkOGA246TX/Bwn+DfiSZszq2x3mSmIWNXhvVssBTigNAOIAAQ3j0uSAAJgBwHEJ/u1ma4T5D8RT/3uD3em3svkJBcEyxOBxAACO8eFySAMUBoB9zWT1z238TpFO1yV4Syxzn3BjPmp99uEsCoCRafA0gARHePCxKgVXx/nGQH3Ea8B17TxCGA6MV/jXt3OONuEjM6RBKlkAuEqQcQAAjvHhckQKv4/vclO6CfONqjnG5x8nXxfP7t8V77jYARFBqvh4s/FwhVDyABEN09LkiADoBsBxB3cLqaOQQQ/Xmbu7s9HNBgtQeYPw0DPQ4gARDdPS5IgAGAXAf0EwF+F+e+QDNRLp7T/TUvBxiRYKI3GY9cgDKA4O5xQQJMAOQ6gPgKOM67MXKANIDXDBHjooD5flAvBzRQJaGB5gDaAGK7xwUJsACQ6YB+90377EnejZEFHjEA4wDDAHYqYESDA9gBjAGEdo8LEqBV3PN92Q5YSr4I4BBAlAuPdvuaJ2gyoJ+4XhFIDFAHsAYQ2T0uSIBWcc89kh3QT3SDPMu5M/Qa0Y7X251nklTGLgiZXwPS7w4XkwMAAwjsHhckQKu4Z5xsB5wkX/Q0gwQQL4wmduedJZYxT95SAHVrcGDVAyAD1GDVA3QDSHZAUzNxG3hRM+SAo0Rj7mof0+SMdvFeMyPMyL87XET1ANAAWPUAwwCyHUAO3NjczxJA1gHL1jT7ICBj+T9plwOk3hssojiABkBs97ggAaYB5DrgPrIldPJr7L1Bcjbc5C5fEyUzRpOY/nrQrAuflXp3uHjiAI4BcOoBOgC6AqQ6oIts/W072kzGAd3ULd0dzf5mivbanQF2e8DAdAALgMjucUECbANIdUA/NY1l8mbCAV30rcHX/M0UzSSNBMCIATL2GJkB6ACuATDqASYAsh1wnL6FvUj/GjAB6J5D38pZ5H+ucK/dIGBeGOiixokNDAdAANRg1QNyBpDpgPvYm8HP7jp5vPfdo5s3MTMjsif9zxXWJWA0CNjtAVQgMCAc4GEA+fUAGwDJDnhXYDTIjn8SmCzd69QE7TlCpdErLFIPgAFAqge4DSDRAf3+Lwe3visyW9y4NuhMEUmwQ0QGQD3A0wCy6wE5ACQ7YKPP88/ObxbcL2BfGLDujZpfAwPpvgAPAJR6AGkAeQ7o7/rAHwC7xDdM9BpXBawhEuZ7gQF1XyCPAeTWA9wASHVA07ttfs5/UzN5a8yfAxpy8+TMCyMDqj+ADwBCPYA2gDQH9Pcfb81//guMG8PiDjCvC+TuDg+oHqG8BpBZDyABkOmApv7jeb8FDnQH3jSVsHtFzbvDZwdQPcALAOn1ANYA0hzQdF+X96Cw9jndQfcMZfQ4wCgG9dp14YHjAB8GkFcP0Cq+dQ+eA5rmTOOf/9+Phtk1ZscBZpvggLov8IQnAJLrAVrFt76F5oBRo/rfXcCZzdk2pznUrjF9sKzVLm70B9AtIiVcDyAAEN49LugAHQA8B4wadd+o45vaoWHhvU1h9w32JuxQ0OoPIC8Olm4cQAIguntcMA4wAMB0QFNTf++cRUSP0NxNJ5ubJGyczCSdFpHc++EBEAdQAAjuHheMA0wAMB2gR4P93SfnLN246Nkjixbs2ny8X97WWeulkFkT7BogNUEaALHd44K5gAUApgPMr4Km/v6mpv5R/fp/ydo5msndG7RGSg6ImiADgNDuccFcwAYA1wHuu8NS9w5nrGFidqdQw0CoCbIAiDhAsB7gAIDuAJzd470J++Kg/oI4MSDuDRIACO8eF6wH5ACIzAFNCA5IWn2CmbMDoB5AAiC6e1ywHuACoIQdYA2SMssBJT8/gARgeCAH+K4HuAEoWQdYcWCvEwmWdhxAAxDIAX7jAAKAUnVAxmoVtubLlnocQAMQxAG+6wEkACXqgFxBIKN/+5f6u0EWAGEH+K8HUACUqgOsl0LmC8JSfzfIAiDuAN/1ABqAEs4FrHjQ2C/QUMpzhSEAqrDqAVrF3d8aEA4wigFJqx6QLOm5whAAw7HqAVrF3XcPDAckjDsjGbs/xLw1VJLzA2AAkOoBOgCYDrhmjutZg5sLNLgGyxr5YInuF4ABQKoHGABgOqAsaz9l2Wf7kXMB956pLqNVtBTjAB4AKPUAEwBEBxD3A1HjAOvSkJ4INFjj5EozDuABgFIPsADAcwAMAGYuYDeLJ0t1tjgfAIR6gA0AmgM4ACDmAtamKcP9JVkT5AOAUA9wAMByAA8ArFwgY6aCDcmko4BSiwO8AJBeD8gBgOQALgBo7wbtLsGS3TPkBYD0eoALABwH8AHAjAOsmYKls2fIXQ/wBkByPUCr+M7dqA4gAIjmvYD1FaDnA6UyW5yoBxAACO8eF6wHaBXf+Q6qA0gAIuoPcC0ZKcE4gASgTo4DeHGADgCqAygAonGANUwwYTYJlVocQAEgxQHceoABAKYDaACi6g9I5paMlNq+QRoACQ7g1wO0ige/g+oABoAIHGDsGrO2DZZOHOA4gAFAggO49QBNe/BBVAewAETUH5DINFj1gFKLA1gAZDiAUw/QtLsfRHUAAEBEPULOvcFSiwMmsABIygUAB+gGQHUABEBE/QFJu0m0tOoBIAB1WPUAHQBUB4AARFYPMPsDSigO0BUAAoBVDzC+AjAdAAMQUT0gY9UEe0tl73BdZSUPAKR6gPkVgOgAAoDoe4WdLpFMSbwbNAjgAIBTD7ANgOYAEoCI+wSJYXLmpbHivi9gIMADAKUeYBoA0QEUAIW4L2BtGWDGBxShAwwCuABg1ANsANAcQANQgPsCxvgAIyIshVliHgbAqAfkAEByAANA1A5wZsgkkyUwS6yaNoDw7nHBeoDbACgOYAGI3AHOyklr73CxzxIjAaiW7QCyHuAGAMUBAAARO6DBujBi/WfxzxKjAEBxgFMPIA2A4AAIgII4wFoyY9SDirseQAOA4gA7DiABQHAAMRz4WUnPM+DzFPw8/vjjT+k/+n88/tQE8397PI9znl/znwlSn3YaAAQHOPUA2gDSHVCmnlCP8O5xwXoADYB0B6gjlAGAdAc49QDWAJIdoI5QCgDVWPUATfvFg6gOUEcoBwCseoCm/eIXqA5QRygJAKR6gKZ99xeoDsiqMwzzZKurcR2gad/9LqoDWtUhhnla66pxHaADgOmA8RvVIYZ5tlZW4jrAAADTASfVIYZ51lfWVaI6QNMe+C6mA8aPW6BOMfiz0XxFiOgATXvgAUwHjBvXv0DFgYHPv8dsFUV0gKY9+ACmA3QETm5sVQyIx/+tW9e7OkWxHKAb4EFEB1gQFM9ESeJJME+RdonhOcAwAKIDxtvHH5KA2yRPk5NKQK0cAvSXwxwC8BxgGgDXAeOLa6oshgNqZTmA1yeI5gDLAKgOGDfwHTBMlgM4fYJ4DrAN8OADyPUA5YBw9wWwcgHHAA/g1gOUA8JFgmi5gG4ASwHKAUV/ZwjBAQYAygGlkQ1iOMACQDmg+B2AkwsQBlAOKO47QxgOcABQDohnLkAZQDkgbrmACwDlgDjmAowBlAPilQsQACgHxC8XAAygHBCnXIACQDkgbrmApv3kAeWAGOcCmvaTnygHxDgX0AFQDohxLmAAoBwQ31zABEA5ILa5gAWAckBccwEbAOWAmOYCmvbQT5QDYpwLaNpDDykHxDgX0AFQDohxLqBpDz2gHBDjXMAwgHJAfHMBwwDKAfHNBSwDKAfENRfQ00DlgBjnAo4BlAPimQuYaaByQGxzAZcBlAPimAvYaaByQExzAcIAygHxywVyaaByQCxzAcoAygFxywXcaaByQAxzAcYAygHxygXINFA5IHa5gKb96CHlgBjnApr2ox8pB8Q4F9ABUA6IcS5gAKAcEN9cwARAOSCuucBwCwDlgHjmAlUOAMoBMc0FHACUA+KZC+QAUA6IZS7gAkA5II65gBsA5YAY5gIEAMoB8csFSACUA2KXC1AAKAfELRfQtEd+pBwQ41xA0x55RDkgxrmADoByQIxzAQMA5YD45gImAMoBsc0FLACUA+KaC9gAKAfENBdwAFAOiGcukANAOSCWuYALAOWAOOYCmvafjygHxDgX0LTH/lM5IMa5gKY99phyQIxzAR0A5YAY5wKa9tgjygExzgV0AzyiHBDfXMD4CnjsEeWAuOYClgGUA+KaC9gGUA6IaS5gAvCYckBccwEbAOWAmOYCLgMoB8QxF8gBoBwQy1yAMIByQPxyATcAygExzAUoAygHxC0XIAFQDohdLsAYQDkgXrkADYByQMxyAcAAygFxygVYAJQDYpULgAZQDohPLgABoBwQo1yAYwDlgLjkAjAAygGxyQU07fePKQfEOBfQtN//XjkgxrmADoByQIxzAQMA5YD4OsAEQDkgtnHA/wHXJIAExHenyAAAAABJRU5ErkJggg==;" vertex="1" parent="WIyWlLk6GJQsqaUBKTNV-1">
          <mxGeometry x="380" y="380" width="50" height="50" as="geometry" />
        </mxCell>
        <mxCell id="Hey_0Endjz0srx_wIcTM-3" value="Data Visualization" style="text;html=1;align=center;verticalAlign=middle;whiteSpace=wrap;rounded=0;" vertex="1" parent="WIyWlLk6GJQsqaUBKTNV-1">
          <mxGeometry x="390" y="440" width="30" height="30" as="geometry" />
        </mxCell>
        <mxCell id="Hey_0Endjz0srx_wIcTM-4" value="Scheduling System" style="text;html=1;align=center;verticalAlign=middle;whiteSpace=wrap;rounded=0;" vertex="1" parent="WIyWlLk6GJQsqaUBKTNV-1">
          <mxGeometry x="230" y="250" width="60" height="30" as="geometry" />
        </mxCell>
        <mxCell id="Hey_0Endjz0srx_wIcTM-5" value="Cloud Computing" style="text;html=1;align=center;verticalAlign=middle;whiteSpace=wrap;rounded=0;" vertex="1" parent="WIyWlLk6GJQsqaUBKTNV-1">
          <mxGeometry x="230" y="160" width="60" height="30" as="geometry" />
        </mxCell>
        <mxCell id="Hey_0Endjz0srx_wIcTM-17" style="edgeStyle=orthogonalEdgeStyle;rounded=0;orthogonalLoop=1;jettySize=auto;html=1;entryX=0;entryY=0.5;entryDx=0;entryDy=0;" edge="1" parent="WIyWlLk6GJQsqaUBKTNV-1" source="Hey_0Endjz0srx_wIcTM-6" target="Hey_0Endjz0srx_wIcTM-0">
          <mxGeometry relative="1" as="geometry">
            <Array as="points">
              <mxPoint x="30" y="344.9999999999999" />
              <mxPoint x="30" y="185" />
            </Array>
          </mxGeometry>
        </mxCell>
        <mxCell id="Hey_0Endjz0srx_wIcTM-20" style="edgeStyle=orthogonalEdgeStyle;rounded=0;orthogonalLoop=1;jettySize=auto;html=1;entryX=0;entryY=0.5;entryDx=0;entryDy=0;" edge="1" parent="WIyWlLk6GJQsqaUBKTNV-1" source="Hey_0Endjz0srx_wIcTM-6" target="Hey_0Endjz0srx_wIcTM-2">
          <mxGeometry relative="1" as="geometry" />
        </mxCell>
        <mxCell id="Hey_0Endjz0srx_wIcTM-21" style="edgeStyle=orthogonalEdgeStyle;rounded=0;orthogonalLoop=1;jettySize=auto;html=1;entryX=1;entryY=0.5;entryDx=0;entryDy=0;exitX=0.5;exitY=1;exitDx=0;exitDy=0;" edge="1" parent="WIyWlLk6GJQsqaUBKTNV-1" source="Hey_0Endjz0srx_wIcTM-6" target="Hey_0Endjz0srx_wIcTM-19">
          <mxGeometry relative="1" as="geometry" />
        </mxCell>
        <mxCell id="Hey_0Endjz0srx_wIcTM-6" value="" style="shape=image;verticalLabelPosition=bottom;labelBackgroundColor=default;verticalAlign=top;aspect=fixed;imageAspect=0;image=data:image/png,iVBORw0KGgoAAAANSUhEUgAAAgAAAAIACAMAAADDpiTIAAADAFBMVEX///9GYuU8SM1CWNs8Ss9EXN9CWt06RstEXuE6RMk4QsdGZOc+TtM4QMU+UNVIZulAVtlAVNdIaOtAVNk2PMFGYOM8TNFEYOM+UNNAUtdCVttKau02Or8+TtFAUtU+TNE4PsNCWN1KbO80OL02PsM8TM9McvM0NrsyMrkyMLdCWt80NLtMcPFOdvdMcPNIausyNLlKbu82OsEwLrU0Nr02PMNKbO08Ss1McvVKbvE4PsVEXOFIaOlOePkwLLM+UtVOdPU0OL8yMrdQevs6SM1OdPc4QMdIZuc6QscyMLU6SMtMdPVQfP1EXuNMbvFIZOdGZOVOdvkwKrEwLrNIau0uKK8uKrFCVtlCXN82OL86Rsk6QslQePswLLFQePlQev2lreyrs+1Sfv+zu+8wMLWzvfFdYMxuivK3xfloeOKzue39/v+vseb7/P9mduBkcNtvjfVQff/09f5ibdeyt+z4+f4uKq9oeuRkct7g4/lcXslkdN21v/RofObr7Pzy8/3v8f3R1/hrgOizue+vvfepsu6qt/To6vvCyfRmeOGur+anquWlqeZEVNRQZ+LZ3Pd2g+Cquvjj5vpkctuTnei8wvDm6Pqvtexfa9hkcNrW2vdldN+vuvRRY9xdcOFre+LN0/eho+Lc4Pnt7/zb3/hvhemFluvEx/GOm+pIU8/M0PRRXdTAxvJDVdePl+OLl+hUcOmIkuNZZNW8xvWeouSipuOoruuhqOlqc9lWbeNRYdjDzfd+j+qZoOZ2ielzf99RWs9HWtl8ht/Fy/PHz/Vieun19/7S1fWYpu+3xPZKY+OEkOVYaNtxe9xjbtq4vu+ir/GDit89RsmUou2grO5cXMlDTcyZo+pdd+rKzfJDUNBsd9ucpepKYN4/S8x+iuJGWNguJq1eZ9Wdqu+BjeVJXt1IXNt6iuZGYOGwuO9ofuivv/n5+f9KZ+c9RMdDV9lJYuE+SMtGXt5MaOavv/c+TM86RMdFXN1GYuNEWt1EWNlATtFATtNig/U2N7s+QsNQHqKaAAAACXBIWXMAAAsTAAALEwEAmpwYAAAgAElEQVR42u2df3AVVZ7oGyJREUZyV5+puRDddRiZjVs31FTBP3mDlfeHkbc1WloWTqpmKnmuuhAD8wiIkR8BZjFRCUQkQTIkMCQBAiEQGPk1hN8QhLDIjyGGnw5khMwzIGZzDboTX3X37Xv7nD794/T59u3u3NPuWFO1u/zI+fSnz/me7w8hTXpSdJ4R6udO9EkiP8nk55Uh5OcB8vNY7HlU9fSpn0HR5wX0eUh+nn/+Wex5WH4y8ScgPSHlCaLPOMLzT//0T2Px5+mxv/zlL3/5NPn5qc7zv8XnGc3zL+Tnf2LPb+Tnf+k8/0p8/u//wR8hjUDApOg/1glITrpHImBI8hA6Am4xEPD8C8/SEBDIDGWGKAgYG/kHIeCXY58e+7T0XywS8Ez0H6sE/Eb6h4qAf7VMgAKAjgMmUTngHtkBQwa+A56244BnqBzwG2ccEAWA7IAUKgckkR2QPPAdMNaOA35K5YB/ccYBMQDSyAagccA9sgOGDHwHPG3HAc9QOeA3zjhABQDJAe7sBP3ngLF2HPBTKgf8izMOUAOQRjYAd4C5A56244Bn6BxAvRO05AAEAK0DUrgDLDlgrB0H0J8GHTgLoACkkQ3AHeCIA56hdwD8PgADAHdACneAcw6gjwg5cBbAAUhL0QkJcQfAO4A2IuTEWUADgHeiwgPeASoXuHcW0ALAHRB3B7h5FiAAwB0QZwc84+ZZgAQAd0CcHeDmWUCYkMYd4LIDnnHzLCBMmMAd4LYDaOMBkGcBYcIE7gCXHUAbEwQ9Cwg/msAd4MeYINRZQEj9EXeAD2OCYGcBITWVO8CPMUGos4CQmsYd4MOYINhZQEhN5Q7wZ0wQ5iwgGoA7wI8xQaCzgGQA7gC/xgTZzwKyAbgD/BkTBDgLRAzAHeDPmCD7WUAxAHeAH2OCAGeBqAG4A/wZE2Q9C8QMwB3gx5gg81lAZQDuAL/GBFnOAmoDcAf4MybIdBZADMAd4Nc8Qfv7ABEA7gC/5wkynAUwA3AH+DMmaP8sIAPAHeDvmCDDWUBjAO4Av8YE7Z0FFAC4A/weE7R5FiAYgDsgkWqHYwBwByRk7TDRANwBiVM7LAxL5Q5I5NphYdgw7oBErh0Whg3jDkjk2mFh1DDugESuHRZGjeIOSOTaYWHUKO6ARK4dFgHgDkjg2mEJAO6AxK0dlgHgDkjY2uEIANwBiVo7rADAHZCgtcNRALgDErN2OAYAd0BC1g6rAOAOSMTaYTUA3AEJWDuMAMAdkHi1wygA3AEJVzuMAcAdkGi1wzgA3AEJVjusAYA7ILFqh7UAcAckVO0wAQDugESqHSYBwB2QQLXDRAC4AxKndlh4fBR3QCLXDguPP84dkMi1w8Ljj3MHJHLtsAgAd0AC1w4LvY9zByRy7bDQ28sdkMi1w0JvL3dAItcOC6N7uQMSuXZYGD2aOyCRa4eF0aO4AxK5dlgYPZo7IJFrh4XRo0eNBnXA5rap5Oc99TNZ95k160rSvaQB6YCn3zB+fht53vht9L+iz99/Cl47LBlgFJwDqruKBdZnVpIOAX53wBvMP5rp//V34NphCYDRYA74fa0gQACQNCD3AW8A/HBqfwtbOxwxAJADqiHWX5iclJQ8IPcBEADk1/4dtHZYMQCMA1YIIAAkD9CzwBsgP57/B1o7HAEAxgGbiwUgAwzMswAMANN/Clk7HDMAgAPaBDgDDEQHwAAg/B2ydjgKAIQDZgvABhhgDgAC4LeQtcNqAzA7ABqAgeYAOADgaodVALA7wAEDDCQHhAABAKsdRg3A6AB4AAaWAyABgKodRgBgdYAjBhg4DgA1AFTtsHDfaDgHOAHAQHIALAAwtcPCfffBOYAMQPGrlM/uAXo3OO7op+Lz79af6YYAgNQOC/fdB+cAHQPkUd4O3xmo+QHjxtHkB4wd+6GxAUBqh0UAwByg9wnIIySI8PwA0/yADwUzAABqhyUAoByguwcgOIDnCJk54EPBHAD2mKAMAJAD9DeBWgfwHCETB3woWAGAOU9QGH8fnAMMTgF5WgNwBxg54EPBGgCsMUFh/HhGB6gUYHQMxB3A8wQNHfChYBUAxpigML4XzgGGcYA8Ur4wdwDZAR8K1gFgiwkK48fDOcA4EIQ6gOcKGzjgQ4EGAKaYoGgAMAcgAGiTQxaRKga4A7TPf2iTQAwBYIkJSgaAcgACwJRcQwfwegFdB2jf///6d2MAGGKCIgBgDkABSDMigNcM6TqAsP5jzQCwHxOMGADGARgAxgRwB5AdoF3//xhrDoDtmKAMAJADcAC4A+gdQFx/CwDYjQlGDQDhAA0A3AG0DiCvvxUAbMYEFQBAHKAFgDuAzgE6628JAHsxQZUB2B2AAjAhjTuA0gF6648BAFk7HAMAwAEYABO4A+gcoLv+GABjAfsJIgZgdQAOAHcAlQMI66/cDWIGAOwnqAaA2QEfIQD8aAJ3AI0DCOsfvRvEDQDXTxAzAJsDUABSf8QdQOEA0vpH8wO0AED1E0QBYHQABkAqd4B1B5DWP5YfgAEA2E9QGDwezgEYAGncAZYdQH7/o/kBOABw/QSFwYPhHIAbgDvAqgP03n/FARgAT48F6ycoDB4M5wCNAbgDLDkgRF5/VY4QboCnwfoJigCAOUBrAO4AKw4wev9lB2gNANVPUAIAygEEA3AHmDvgXd31jzqAYACgfoIyAEAOIBmAO8DMAe+avP/igwDwhmwAmBkjEQBgHEA0AHeAsQNM1l9WAAaAbACQGSMKACAOIBuAO8DIAYT1J+QJ4gCMBZsxEgUAwgE6BuAO0HcAaf2xLDGSAX4JNmMkBgCAA/QMwB2g5wDy+mvzBPUMwD5jRAUAuwN0DcAdQHaA3vprHKAFAGrGiBoAZgfoG4A7gOQA/fXHHUACAGbGCAIAqwM0AHAHGDnAaP0xAgwMwBgTRAFgdICRAbgDcAcYrz9KABkAiBkjGABsDiAAwB2g5wCz9UcIMDQAU0wQB4DJAcYG4A542Pj9N8gW1wOAfe6wBgAWBxAB4A4gEUBcf30CTAzAEBPUAsDgADMDcAc8bLz+ugSgAEDOHRYmDoZzwDQyANwBOAG6669HAAYA4NxhYeJEOAdMMzUAd8DD5PU3qRjBAYCbOyxMnAjnABQAs97iCesA0vqb1AyhAEDOHRYBAHMABsAw7gASAeT1NyYAAwBw7rAEAJQDVmIAcAcQCCCsv3nVGAYA4Nxh4f6JcA5AAbAwYyQBHUBaf/O6QdwAcHOHhfvvh3MABsAo7gANAaT1t1A3qDEA2Nxh4f774RyAA8AdgBNAfv/N6wa1BoBwQMQAcA7QAMAdgBKg439zBxAMwO6AqAHAHKAFgDtATcC7+Xrvv5kDSAZgd0DUAFAOIADAHRAjQPv+r7JaO0w0AKsDVAYAcgAJAO4AhQDt+78qZLV2mGwAiH2AAgCIA4gAcAfIBOi//xYcoAFgLNA+IAYAhAPIAHAHiAQQ3v9M6/0DPtUxALsDYgAAOEAHAO6A558nvP80/QMIAAA5QMi5H84BegBwBxDff4r+AfoGYHWAkJMD5wBdABLdAYT3n66HCBEAEAcIOTlwDtAHILEdQHr/6XqIGBmAzQFCzv1wDihbGXumbaOdPb7IeMKEfx2wivD+084cfUP1PG0yb5DKAaIBciD3AfZnjw9UBxDe/4epZ44GQ6FgyOrMURoHSJ8AyH2A/dnjBAeU3vG9A17o/hP5/ad0wLhx40LjrM4cpXCAbACPOqB0M2nKkN8c0F1Kfv+pHBAKhsgEsDog8gnwigNy9dfftw546NlS8vtP4YBQMCgu/7gguAMUA3jQAaWb09JIswb95wA1Aats9RESFSAiAO+A6CfAcw4Q1x8nwK/7gMwoAavs9RILyv9EAYBzQMwAXnHAIvX6gzrgm91TF3ZuOX5jUdec0iNr1iytq6urq6wU/710zZojpXO6Ft04vmFv/azdX4M7oCeyE1xlt5eYdAQQ1x/aAapPgKfOAsr6szvg25r6de1dpQtKjgnWnnxBOFZSVbrq+Jb6mq+hHCATsMp+P8FgsEdWALAD1AbwkAMao+tv3wF/fa/z+GtrSvIFhie/ZM2c4+vmnrgF4oBVTP0EpaayogJA4wHIJ8Az+4D1qvW344C2m5criphWHntqj3y27uitW2w7wVVsPUXlXQC0A4QHczzoAGT96RxQfTO39ZjgyHNswaK9uxniAQ8x9hQV9wE940QHAO4DhAcf9KID0owI0HVAzYaKZYKTT74gLNt+7vO4dJAgO0DaCSofAQgHCA8+6EkHpNE64MvyRUVCXJ58oXLOuiW2CHiW3QEhBAF2B4gA+N4Bd6qXtxYI+UIcn4IF53a74wDgeIAEgL8dUN18pEBw4cmvOr47rg4IquMBUA6QAfCvA+6UH8kXXHsKjuyNiwNCodhhMBTsUQeFWR0QAcCnDvhyQ5Hg8lN5Q6UBxxwQCgaCsgLkF3+cKiTE5gAFAB86YFJ110zBA8+x17Y67IBQIBTIDGaGQpnB6E4g9hFgc0AUAN85oDoXYPnzi4sBviAzF/X0OemAUGZQ/kfeCIj7APEbAHIWiAHgLwd80V5M+72uXbtme9f5c1s6by6cVbOkesmV2LXglSVLltTMqr+5d8O5813b16ytpd1VTr9xwiEHBALiNkBZ/2AsIBC7F2JygAoAPzlgtfWAT+2CxkXLb06tRm4H7yV9m2R4O7xk1t5zi7ZX1Vr+bZbVO+SAQGawOygTIH4NgpGzYGQnyLwPEMIP+s8BdxZZeuXrGs+fnHwFTw2QESAliBDyA15ZMnfdZ41rrQgh/90T8A4IBDIDmdLCZwZCgWBkDyBvBUNBiH2AEA77zgHVVab7stauLe8d1M0P0MkQ0csRemDI13M3rKoyvWGo2toH7oBAZqA72K18A0QZxCKC8kaAcR8ghMN+c8DsEsNlmNe4fOp34tr/WDdH6B6JgCFmOUK35p4rnWf8W/8N2gHdwW5JAsEemYFASJR/7G6QPSYoAuAvB/zeYPdX3LilzVKWmO08wZoNpUa//9/A9wGBgIRAbCeYOU59N8gcD5AA8JED/uFj3Z//2vOrvxsxIslCllgyQ57grQdu1X+mG36a/zm4A8RNYCBTdEAoUwwIhAIRCUS+Aoz7ABkA/zjgoM7Pfml7Tcrm+OUKH72xlvznKFoCvg+QFZAZCvRE9gGZoXGqDBHGeEAEAN844DTRvK/+Pr65wmKG2NFF80l/ljmPwjtA3AfK1wLReECm4oAQYzxAAcAnDthPiNtVdX4XvR+Ma73A1+uWEk6D9X0O7AOkrYBIgPwRyFRliMhpgrb3AVEAfOGAlFbND/zwavlqyJ16gfojmj/QAvB7ge5MaRMgHggzQ92yA4Kx22FxG2DfATEA/OCAyfhPu3U1niEQ75qhek1QYiH83aC8EQwEorcC4rVQT4wAhpigCgAfOCAP+/ZviS2/azVDfRumo3+qdx24G+yW40GqmFDkXiBTIoAhJqgGwPsOQLfeVdXeqBvcXYceBBzJEZL2AZnKPiCYGYgcA1jvBoXssH8c8AWyBdx40Bt1g7ceWLIAuYPocSJHSDwLiHHhUKZoATkoqGwFexjuBoXsbP84oA3x/x7v1A7vRqJTn9/CCdjaw+6A7oB4HJQyRILdwUAo+h0IRtoH2KsXELKz/eOA2eofc6OXaoeRLiB/0+QJrvpq+94TzHeDUkBI2gaInwFx/TPH9bDWC4gAeM4Be1pOER2AAFDyRZpn+gecQC6JFmpyhcX/9fxV9cxnAVkBEgJiPEA+DrLFBIWh2R5zQNmh9QX5jUQHIAAIp1O84oBb29FzIFYvMGifkjTy2eesZ4FIfoB4O6jsA4JK8bCtfYAwdKinHPDxDikJZ+bB7wkOQAEQGj3igBNYE6CFeMXIf8TihGvWvcB4L5ApbQWkLFFNnqCNmKAwdKh3HFB2MhpVaSLtA2bjaVirveCAejw9bSFWNXaiVl1XNi+qAXoHBLrliFBmZqgnGhNCosLUMUERAI84YM9O1Q+qlXQWmK0JvL9aneKyA3bP0QSDF2J1g/vwP/WRvS+wxAPEJJFQINQtXw3LDsi0GxOUAPCAA/57dgWSeJe/jXAWmE3IyN5R7aIDvtn97leCDgAxArSICCXHe2w5ICDdC8jxgJDsADk7IHocpI0JygC47YDUTk1EvZ0QD5hNun/96vTbbjlg7qfEbNGFaPX4CeK1cfFnW0/YPwuIp4FollgA+QpQngUiALjqgIvNhCTvIkJAYLZOHs7S5Xvi74AlW9bo1JQsRPoH9O3Ty1reftTWWaBHOgpESoWUgFDkLEAfE1QAcM8BZcvJmZYfWTSAnAZcce2LeDrg673b9euSFqI9RD7VzyT/U739XOGAdDUcCkYCAj3j7MUEowC444Dvy1rm6/x08rRBwdmGqeCNnX+NjwOWrCs1TBFfiHSROWFUwpT/p7/ZzRWWToPR/IBYRIgyJhgDwA0HlLVM16/oKaMwgFKxv3P1Zmcd8E19bpVZNeFCpI/QPpM/c+nR522cBTLl9BAlKBz9ClDHBFUAxNUBj4sSuFZp9KMpT8UdYAaAXBOSe3OPMw6oXnjjiJWKxIVIL7EHPr9RaYzAn47arBeI5AjJYeGQqqEgxT5ADUCcHVBuWNuf33FpGK0Boturpa9uWP1lRAEgDriycPmcOqsVowvxbnJ99a8ZglMwZ6sNBwQi1wKRiGAgVjFCExNEAIinA3a1GpZatu/BboetGiBGUNH2nSd//+UkRgdcmbXufOMyqhryhdqOkn0n9v7JiJ/i4930DpDqBUKh7kjdYAiNCluMCaIAxM0Bm6YY/EiPnb6USswPoAJAafW58dWdzftrDtI64K819VvOz7HVaHQhuafo1vNGNW1F+x6mPgso9wLRoLAcGKaKCWIAxMcBvc3zDX4STV+QM0TS7AAQBaF27ZqKrp0bbpZPrmmrTiIRkFxdUzN5X+eG812Na4pq7f9WIgDknqJ9+4w0oN4KWMsPkO8FpLpBOSosJ4lRxQRxAOLhgEL96t789ftH/bdujhACwMZGht4eM4srK+VG4XLL8MrKYoZ+I/mlazQGIBPw6NbP9Nmf+Vk3tQO6g92ZSlA4djVEERPUAOC4AxrydBeueMc2wywxBIApE2avd7FBmGr5D899YI4GAL2+wre6DRpbrV1I3z8gM1N2QEiOCY/roYsJagFw2AG7dP/6tTu/+N44SwwDYEJaW+5011tEzTk6ZAgBAP3e4n2DCOUkynng3R66PEGxi2Cm2gGhUKyLiJWYIAEAJx1wcbHeS1vZfNE0TxAHYEJa2ZfL69xc/rpzS6T4EAkA/d7iLwz623a9n0NRPV1+QEDqJCkXDahvhkIWY4LC8KFxdECh3mrVXfv+8VGmmaIfIQAoucKz8+a5s/rzuuYqIUKyAYy6yx/VQyA/shOwnCMUlL4EcvG4XDaWiSrAcB8gDB8ePwe06OyBi659bylXGAVAVTGyOq8k3qtf0rVwSCxCTAbAeL6ALgILttLVC0gZQnLdYADPEQqOM+khIgwfHi8HNOjs2UqaL1qsF8AAQKrGprVvjFvH4II1x99DL4gQAP5mdc7Q0VLyT2S+HBOwfBZQygWUiIDqZsh03qAwPDtODviY3Nlt/vKL0u2gFQIwAJC6wQlpaQfLc6sch6CgatHNr7/Fr4f1ADCbMVJfpdNx7FmKfUCkf4B4K6A6DAblusGgaiOIEiArQDRAXBxwhniDWpDXQFEvgBuA0EPk4OrlsMNikOByxbn6K8nJr2jWf8hr6v+7ubeszxobtK7S4DPwrPWvgHI5qDkMyDNGdPcBIgBxcEBvHvGv2fHx6McpaoY0BiD0EElRKAB1QUFRRXv9FaWb2CsmAFDNG3z2OPEou+yoZQeEuuVs8cxYyUjkYkjVTU7PAbIBnHbAxQrix/9kL13NkNYA5F5iKWVpaSl32sq35B6uZLVB8YLXLp+ceyX5n5OTv9XvJ2hkANNJU1u3E3/jfQ9R9RKTLogjdYNywYiSJCR3k9NxgAyAsw4Y30C6+SvIvdhLWTdIMIBpX+Hv3r65Zeerh+tqqUjIr6078tr5DTen/vXePSv9BPUNYGne4F7SIaZgnfV9QCRPUP0ZQGaM6DtAMYCTDthE2v7VrbxKXTdIMoDV+QIpd6onl3duac/tqjjcKkb/5xcXR7Ylx4qL54s3A62HK7py2zecvDl593exKyJtX1lCnqCxAUwJGNTzLumL9dlD1GcBBQApT1C6HYzuBMlnAQUABx1QSLhZK7h80UbdINEA1uYLTFLSxGhyhJLlxtIW8gSNDGBt5ujCZaTDAH0vsWBPMFOlgMhGEEkQIALgnAM+Jlx/rf34qp3aYbIBUqmmzNDlCepkiWkcYAyApZmjPav0CKDrJZYZ6ykaRKfNEfcBMQCccMDE8Xe3Ed7/0w32aod1DGBxxkjUAJQOsJIrbAaAFQe8sI/wo3qXrmZI7CUWil0NKVeD0VRRrQPUBnDCAYT1n37Ibu2wngFoHDCJ2gFW6gXMDWCBgEG7j+gQYLlmSIoLhXoUBwRi1eNyU1mtA9QAwDtg4jbt9rZqm+3+AboGoHBACrUDrNQLmANgae7ws59pzyo3LDugR24qG60ZCqhnjYV04gGoAaAd0KANc1X02u8foG8A6w5wpl4ABWDIAzYd0Ne3VxswXfcw1d2g+CGQ+soG1f3kgnK2uNYBKADADriwUbOrWczSP0ADgA0HOFMzhAEwxK4DBvUd1ZwGCuqpeovLaYLRnqJi9XB0xsi4kOYsgBsA1AErNFlvh5h6iBgZgGXuMLsDcAAYHLB7gbYH/Qu0DgioA0JBZOYo5gAcAEgHNGn+JoVsPUQIAADOHmdxgAYA+w4Y1K3ZCi7roYoHxIKCyD4gOmQEcYDWAGAOuIQHt2qvj2frIWJsADcdoAWAwQEnNPXE25+ncEC30k+wO5iJ7gOi9QIqB2gBgHKAZgNYso21jxARAE84gACAbQf09b3wrmYjSNFbPBgdMBCNCEX2AUEpVxjdB5AMAOMAfLTDsk1XWfsImRnAPQeQAGBwQB8eFZz+OXXdoJQoGpLuBqNJQkpASOUAEgAQDjhbjvt/213mXmLTyAB4wAFEAFgc8Cle+P4sXT/BTGUjKF4KBUKqfoLS0NGYA8gGYHfAAewGYHrh3YnMvcSmmRrALQeQAWDZB/wJe4GOP0+ZKyx+BUKxysEQkiYYuxsUnhjuiAOwD0DBpYkAvcRQANhmj8M6QAcABgf0YKfB6Vup6gXkr4BqzlBmSN1FJBYTFJ54wgkHFGL8nrkL0U8QA2CYdxygBwCDA7Zi1Q5zbPQUlQXQjeQJxuYNhiIAOOEALAVoBUw/wZUYAN5xgC4ADA6oL8CmUVH3D1BSRbU9RWP3AiIA8A44hN5pLL0A008QBcD+7HF4B+gDwOCAc+hPcQF1/4BupKOkdBboCWI5QhIA0A64ixaAFm8D6imKAFBhd/a4Ew7Yrg8Aw70Aliy6z87scR0HhJQcIRkAYAccwjYAUD1FEQDmlY3yjAO+qTUAwL4D0EEkwhHKHiLySUDKEkFLhtT3AhEAQB3wILoDaJ0I1VMUAUDYOcorDhiSKxgBYNcBgx7agL5JR+nnDkcKh1UxwWhPUSkkpBgA1AHX0RPgtrNQfYVRAPKbR3nEAesKjAGw64BBg44QDwJUMUHxf0QBIFVj0cnTUQMAOuDsFPRFhesrvBILj7WkesEB3x7H0njmWpszZMEBjx1F0Dq21U4/weicoSBeMBBUGwDOAQ1It53ihhywvsIr8TuSjXvcd8ASTdbLXIuTpqzsA9CQ8LmHbPYTlGKCCgE90XmDwXEqA0A54Cy6BfwjYG/xldoGLTvL3HXANxu0LSDnWp01ZsEBnxcQT4LUvcS6Q9HR05Hh85HDgBoAIAcgUeBjDXfheouvJBVRdqa654B7naSip7mWp81ZcAByFMzf+sLzNmaMSPkBaENBJSaIAgDhgJyzyCuxA7K3+Eqd7kJl7jjgmy3khldzrc8bNHfAQuSX3mBr1ljkalDcCQTU2wCNAUAccAn5ExdCzhdYqddfLLct/g7YnavXmmguxcRJcwcs06YG0TpA/ggEpLayysBBHQAAHPAJ0v0nB3K+wEr9ct6NJ7+IpwOudB7RrzaeSzNz1MwBgz5Dol825w1KVYNSVFjqJSZ9BeSqIeEnTwA7YD2yBQSdL7DSsPnn4eYvvo+LA+6Vf2o4MGIu1dRZMwd8jpD2ud1ZY4HIwDG8h4jwk5/AOiAHqQW6DjpjZKVZA9iOpjaHHfCPbVtKzZpTzqWbO2zmAOQbsNfWvEGxblAuGVEniEQM8BNYBzQgK3IXdMaIGQDSR2fFtT1OOaD65qI6C30m5lLOHjdxABIK+Mzu3OGAMl5AGTAR2QaIAEA6ILwLuQaAnTNkBQAJgiknP06DdcCIms6uOotNRubSzh43dMCgc+pz4HabM0e7o0HByD5AOQ1KAEA64AxyCISdMWIVACkA0Zp38j/LIBzwXU3noo3FgvUWM7OGkDtJ2XQAchBcMIhl5mggUi4QmzMUAQDOAWGkHKgZdtYYDQDyRdSy9bknZ++x64C//r7zfOPar2h/11l6vcTsOaBHbYBltucOd0ebiIRidYNRAOAc0KL+URy6DTpnCAGg2PoreazocFf7yf3T9lhzwJ6a1Z3LV5TWFVtfc2RfOOtbnV5iNh2gjgbPZ5o9Lt8OivUCypyhKABgDvhA/aO4BDtnCE0J+6jV1tyQ0tNdue3Lmzs7b+4v37966tSp5fvLyzs7m7e056443bixbh59g8Gq/a8RDADmAHW2ybFBg+w6INAdUOYOi/cCkbbCUQCgHDADOQWeBZ01huUEjiqnR8CJlvGdWFKoYgAoB6jPgQWDBrE4IJojJHeUDGYGhUd+AuuAGVgYANIBKABijtClDj8hllgAAB38SURBVLeHhrTuE5uIaAxgZfa4VQcgAPQNsu8AVY5QZqRqLCA88gisA9BPwG3QWWMYAFKeYFvufBfHhbz2nhwbJAIA5QD1X/BYXx+bA6Sbwcg+IBQIigCAOmDoH5FNIOy8QRwAOVe44eRGVzSQv2DDFSU6rGcACAegm8C+PnYHZEr7AOk4GBAeeQLWAegxMAw6bxABYIaqYmTT8qp4M1B0o2ZS7HpABwAQByxBftu+PiAHBMRBU6GQaABIB2QjgaD3YecNogCgdYN7mjriNjAiv/VcTdIk9f2QvgHYHVCv/rXX9PVBOCBaNyYZANQBu/KRUDDozFEMALx6vKw8rygOs2Je7axOSsIuiHUBAHCAOhQsfNrXB+AA6TQg95GSDQDogAv5yGUQ6MxRHABCF5k913ZUfeXU2hfUdW2puXMnSZsfYGQAVgeok8Lyb/T1MTtA7imamSnuAyUAYB2AdIYpDEPOHEUB0O0mV3ZpeQX4EKn5hy/v/+udOz8eQcwQMQCA2QGV6HVwH4ADpHGD0j4gpBgAzAHZSELIYtC5wxgAugQME1VwqmnFxlqIpS+ueq39ZtuIEUkGOULGBmBywFHkD7NVVTXCtA/ols8CkU8ApAOQc2BlDuTcYQwAk+7yqcNSUzdNbd6xvqrW3hGheO3hrg37q++kjBjxDyZZYigA95IBHYCkhJX09ZkRYP1uUCogjxkAyAFDd6FJoZBzh3EDWJw2l5pa1napsyVvfevaecfMVv2r2qKqw1NuiBPn5YtBS1liCACr7yXDOeBWJWEPCOAApamoAgCcA24j3p0RBpw7jAMwyjIBsadsz8dTyzu3bFne3n45N3fRlN+tyM09396+fEvTyUOr364+SOovb06AySeAwQH1aLu4vj44B0itpdUGgHEAehsw8wDg7HGtAUZRECCnB8kZImmq/IAU+V8pKSlphLbCEgOmBJjtAew7oBQ5hux+tA/IAYFuOV08BgCYA9DSsA8AZ49rARhN7QCaLDGlvbz5V8AUALsOQLeAax579FFAB4gbAdQAEA64fXs6WhsGN3ucZABaB9BOmLD2FUABsDJjxKIDEAHkb9B0lGTZB0izx9UAADng9puCJhwM4oDxRANQOiCN0gHW5gxhACRBOeAocn6Z3vOoVQIsxwRxA0A44HXkT51fCDR7vJcIAK0DaCdMWJszhB0Dk4AccAttFvguqass4z4ABQDIAR1owtRZIAfoGYDKAXayxc1rhnAD3INxANonrODzWxQEWHSA1gDsDsg+hR6tm8IgDujVAYDOAbQVI9bmDGGbQEtzhkwJuLUbrUEq1ekszRQPwAEAccDtOrRi63oYxgG6BnDYAeY1Q69qDADggFvY5Ij6R+kIsOQAkgFYHRAevgtLnrgA44BCHQCcdoB53SACwGRrc4ZMCbiB/hSP6HeXZ3CAFgAAB4TD67FRYWEQBxTqG8BRB5jXDaIAJCdBOGAfmuBScPQWNQEWHEA2ALMDXs/HtwEQDtAHwFkHmNcOEw3A5IDHarBk13dvGU2YsO0AYeQjjjjgTSyJ6lA2gANQAGhnjzvpAK0BWB2wBCtFnb/EeMaIXQcII0c64YDwBSwjY+YuAAdgANznHQfoGMC+A75eg91SbjCbMmPTAcLIkY44ILwLv1y/zr4PwAHwjgPIANh3wK1S7Me3xnzOkD0HiAA44YDw0Pc1Q4OYHaABwDMO0DWAPQd8sx3/4e1+zDYBxg6QAHDEAVfxDN35128zOkALgFccoAeAPQfcwgcH5t987LHHnHGADIATDvjh+ky8hrqQ0QEEADziAAMD0Dvg68N4mtKqR61Nm7PhgAgATjggfAZPxZt5ic0BCACNV+/zjgNKdQGgd8ASzfDguhNW5w3SO0ABwJGzwCeaxPpmJgcUol2ox3vGAVeKjQxA54DddZpSlN2W5wzROyAKgCMOWK/JuXw/h8EB6CyyGePHe8UByBcAB4DOAQs1/UePzaWZOUrrgBgADjhg+IWlmrK6DoZ7AWwY3eXxHnHAeUEwNoB1B2yYqbHmPqpZY7QOUAHggAPCDdpivSL7d4P4NMIZF73ggIO/E0wAsOyAW69pKxg2PEo5d5jOAWoA4B0Q/uGAtp/6TNv5ATgAwtpC9x3w9lpBMDeAJQfUVGnrFI7fop03SOcABAAnHHCgUvuXWt8QtuWAQm2h9ulN7jqgOldblD6ZdvZ45NlL6EF7w87scRoHoAA4sA/IPkCo06zcZcsBhaT6rZYG1xyw+ct2Uiu5ybSzx+XTXyPhlzpua+YojQMwAMAdkB0Ov06aqvHmBRsOKCT36Nu5yR0HVJ8ndxKcTDt7XFz/fYT3JP/4K/ZmjlI4AAfAiXhAQxWpz8IpegcU6tXtV5zqjbcDNq+umKnzx5lMO3v8lW+XnCbUr+afsz132LoDNAA4sQ+4sJ70c5rSQFs3WKhf07msZVtvHB3Q1m7Qi2Qy7ezx5HUklRy7+YD9ucOWHaAFAN4B2eHbM4g9F5rP0jmg0LCud2nLtrg4YHO1SUuqyXRzh4fUrCH9KvPmPsAye9yqAwgAOOGAcAvxR7Z0V5jGAYUmvZvyi3acuuisAzavzl1q1m1gMtXc4a8XET8ldbsZZ49bdAAJAAf2AeHhp4j9HPNPH6BwQKGV3o3rl+/63iEHvL280UoD6ckUc4e/WU7uc1n6NePscasOIALghAOGH6giL9gnDZb7CFkBQPo1Oy7v3wTrgC/3tx+22j18svW5wzfJW4mCc9+wzx635gAyAE444PbZFTrtl1ouWHSAVQDkY8b6y+XbvgdwQFt5e8UymiYzky3OHb63eg35F6icCzBz1KIDdABwZB8QPqMzbmle09kcKw6gAkAOOy+tuHxt5SZ7Djj40aH201XTqX/TydbmDi/cqPP/X7oEZu6wJQcIvxoZNwcM/eGA3t+5sumqBQcgAFTOpOCgqGPG5ebyXdvKzB2wec9H5Sdb8tbTzIsoQO5w37Mwd/ig7vLPPAc1d9iSA4Rf/SpuDhC/A016y1bbciHHzAFoStimKTaaf80sqWvtaJyyY2dLe9OW5qbOa9euNTdtaWppv5w7pWL9mqXLiul/zfyKNiQh4D3zucP1G3WHT7z3z3Czxy04QHjyV/FzgBQYrtLdui0+YOIAFIDBg6+fjlt7YIPlL506aRIGgDEB366rE/Rf/1cAZ49bcIDw5JNxdcDQoWdbdN09cwo6YgQnAAdg8OBtecfcXf6vTtdsTklJwQEwIKD6+DzdX21NzSugc4ctOEB48sm4OkA6EK43GMBx6Kq+A7QATLzb0FTk3vJXtlfLl0MaAPSmztZ06RM7fcMQ2JmjVhwgPDky7g4IZ5+q1P+h1v7xgJ4DtABI2eK7ZhS7sfrHKsqj5eNaAEgEfLnOYMhR/pwl3ybDzhy14gDRAPF2wNDwDxc+Mfh6F6wvv0p0AAkAqWLkQnlFnD8FMw+fPKi6HiYAoCGgJs+I0wWzkr8FnTVm0QGiAeLvALGTVIXRHr72g+sEBxABiNQNXjy1Yl68Vr/49LWD6O0gCQCEgCtbDCeczVv3LeycIcsOkA0QdweIfWQKjYe+Ve3SOIAMQKx/wMdNhx0XQUHr5alYT1EdA8QI+PJmo2HQYmbulWTYOUPWHSA8KSvABQdkZ+9aavRj2XUWd4AOAEgnqevNp4ucmh9Ue3jn/oPE/AAyADIBk7uMu9YXvLb7H2FnjNA4IGKAkS44IBz+4fYZ/cEOJXc1+wA9ANBeYuPHHyhf3AqsgoKqvM42pbGwlgAdAEbcSfpxuckv3LU7GXS+ACUBQmT5XXJA+OwZvVPc4rOas4AuAJqeouPvu2/Tqea8DoCJEQVFjbnNs78wzhHSA2DEnTtJRnMNCypqkpMAe4vTExA1gBsOEAnIvn2GHBe7ro0H6AOAdZTslWqGenvvG73pVNOOitYSOxHD2qWH81rK2yxliekCMOLOnd/pf/tfq0kC7CtsiwBlE+iaA7Kzw7f3E/YCSwn3AgYA4J2l1fMGe3t7R23adWj5jtPrW9eWGH4bCmqLqjoqVrSfPNVWJt4MTbCYKYoAMBWtHC3X2ZIU5y5JAuspapsAlQFccoBIwA+X1uM/pSbCvYARAIPxj4Bu1djFTdd3nTpVfu3QyeamppaWlqbm5mvXru3ff+njPV9oeotbzBRFAUArR5OI36GS5eLYUaCeogwOQAzgmgPCt8Ov70Au3vMPEPIDDAEwnT0up4mN7u0dNex/DHtcdSM8KlX+b6mk3uLWMkUxAFACugh+O5mcnATQS4zdAVEA3HVAOPxg+EKzajPQQcoRMgbAbPa4ggBVb3GL2eIoAOiMke9W45/+0nLGHiKADsAM4J4DxLGzt0+tV3ZrZ0h5giYAWHIAbZ6gtWxx3ABI/4DvkBBl0fIrSf/I1kME0gEqANx2gPgMP9AkbQhnXiDlCqMA0M4et1UvYDFbXGMAtQPu5MVujzUvv9sO0BjAVQeEw9nhcOGMY8JpYr0ABsDEeDjAWsWI1gBqB0S+AflVy6t/nJRks3bYIQcgAHjBAeHw7dsXzhQSK0dxAOLggDRrDiAYQOWAO2K8c9n5mjsjku5Q1w067ACCAVx2gPwQK0c1AHjGASQDqBywqPjV1d9ZyxWOtwMwALzhgDC5l9iDCAAraGePO+kAogGiDph05bsR342wkCvsggOIBvCCA0gEoACcnegdB5ANEHXAJKO5w+46QOh/0jcOwAxAO3vcSQf8jmwAK1NnXXaA0N/vHwdgBqCcPe6kA36nY4BJFAS44wChv983DtAYwDsOwAFI8Y0DRAB844Dr6h9zB+3scScdgBT6/Ke1OUPecIAEgF8ccACJqG+63zMOaENS/qqtzRnyhgNkAHzigLPIXX7HXa84YDMigGOWZ415wQERAHziADSPuOKqNxywGe3w12p51pgXHCA81e8jB2CdhjYe8IID9mCVvu0U8wbdd4Dw1FM+csABLG+o9pT7DijHEn7y2yjmDbrvAOGpp/zkgApN2+FNd111QNtp/E9UQTdz1G0HiAD4xwHh65r03pk7DrjmgB+1rdC296+hmznqtgMkAPzjgPBiQnL1m9vccUBb11faP00u9dxhdx0gA+AfB1wlNRjJ7zh0NU4OiClgfyMp3bvuC+q5w+46IAKAfxxwgFxoU7L4ejwdMC2XXNM2v83O7HE3HaAA4BcH5Nwu1KvsqGvZFhcHTPjPy2v1ekb83tbscTcdEAXANw4IF+r3Wah8/9QFZx1Qtn+FfneT4sn2Zo+76YAYAL5xQPh6pVGt/cY/7rrgjAPKTl3eaFTnXzLN5uxxNx2gAsA/DmjoMOnfsnHxoU1XQR3Qdi231aQz5cY9E1LszR530wFqAPzjgLMt5uW+8zt2nim8yOyA1LKPTuZ2mHehKmgvsz173E0HIAD4KB5wvdVaF8fKwx807b9+0Y4Dyj4ub8o9XGmtlrz1bYbZ4246AAXAP/GAnByD5iKEWv+qxryWpvJd2xpMHDCqoe3SoabLKxqXzqf45ed1Ms0ed9MBGAB+uhe48AlFu2jVVr2kaGnH+tMzZszYsTh3cUvL4tzFO2bMmHF6fcfSohJbDQdn7vwijWn2uJsOwAHw091gTsMfXekQifX3zNvDOHvcVQcI6U/51wE5OReaStxd/pL2g2lpqWyzx111gJCe7mcH5Jy9e6gj363Vz++4ViZVkKf51wFCerq/HZBz9sFISXm8n6KdbaomAn51gAiAvx0gQVC4OM49w4t2zI41EqKYOOk5B0gA+NwB8rOpqSNO4yPyl+78OC31v/E2Iv50gAyA/x2Qk3P27NmGQ2+udXhDkL92xbVNWI5QKtXUWY85IALAgHCA1Eim4dD7Sx0yQUFd3qFNhPyANLrJ095ygALAQHCA1EdIzBG9ev3MjtaZoGtfdHr5pTKplZw2TzCVcvK0pxwQBWDgOEB67uZcLTyzs6KOWQZfrW3ceeajsl6IXmJedEAMAC854DaLA6Ld5XMmnp14d9v+psUVrfOotwb5Ja0VO5rKt30P1kvsjicdoALAOw74oOJ29nBWB0QrRu4Onnh34tVNu8qbW3ac7qhaVqvbLfhY7bKqjtM7WsQRk99D9xG6U7rIiw5QA+AVB3wgCBUwDlBli98dfHbiXSVDpGHTtsLCwlOnTp06dEj898qVK7dtarhvdG+vvZ6iFnqIbC4VhEUedICQke41B3wiVfzczh6eDeUAa5mijzvZQ0Rcf0HI854DhIwMjzngk0jN1+1sYAcY9BbvdbqHiLz+CAEecYCQkeEtB3wSrfq7HYbbB5g6wNkeIsr6e9ABIgBecsAfVHWf4PsA2vkCUA6Irb/3HCAB4B0H/AGp/I2jA5zsIaJef885QAbAKw74A1b7HT8HONhDBF1/rzkgAoA3HKAp/a2I41nAKQds1ozK9lQ8QAHACw74gyYy8wFh/X3ngFzNX8tLDogCAOGAH15XPQeepHSAtvT/AzEszH4v4LYDFgnMDtg9OfrMmnUl6V4SmANiAAA44HX1X/JNSgf8gbz+bHeDA8UBSDPqWUk6BNhxgAoAdgfgANDsA0jrn814O+wZBxgSYMUBOABw8waFMRlwDtAAYN0BxPd/+A8SA9wBKACTIecNCmPGwDlAC4BVB5DXX0kQ4Q5AAUgGPAsIWWPgHEAAwJoD9NY/m/krMEAcgBsA7iwgZGXBOYAEgBUHGLz/w3+AyhHytQO0BoBygJCVBecAIgDmDjDxP3eArgEAHCBkZcA5gAyAmQOM3n/QPEEfO4AMAIQDhCwAAiIO0DGAiQOsrX+CO0DXAMwOED8BWRlADtADwMgBhPV3LlfYtw7QA4DdAbIBgBygC4C+A0jr70i9gL8dYGAARgdIe4AMIAfoA6DnAPL6P8EdgBGgDwCrA6RPQBaQAwwAIDtAb/25AzACDA3A5ABBev0zYM4CRgCQHKC//twBKAFGALA5IGoAiLOAIQAjKd5/7gDMASYGYHCAkCVvAUDOAsYAjKRaf+4A6wCwOEBQ3n+Is4AJACOp1p87gMYAth0Q2wQCnAXMABhpvP7xqx32nQPMALDvAAmAMYoBGB1gCsBI4/WPR/8AfzrAggFsOgAzAJsDzAEYabz+3AE6DkABgMwVjgAwRjEAkwMsADDSeP25A8gOwAAAzBXWGIDFAVYAGEle//j3EPGVA3AA4BwQBWBMFntMEAVAt16AtP5x7SPkPwdoAABzgMoA7DFBBID39SpGiOvvRh8hHzlACwCUA9QAMMcEUQB0aobI7/8j3AFGDiAAAOQA4WdZmAMYYoIYAEQCdNb/Ce4AIweQAIBxgPCzn+Hvv/2YIA4AgQD99587wMABRABAHCD8DCeAISaIAUCoHCWs/0hX+wn6xAFkACAcIAKgIoAtJqgxAE6A8fvPHaDrAASA9yBrh4XnfqZ1gN14gMYAmAMM3n/uAEMHoABA9g8QnntO6wC78YB3tAZQE2D+/nMH6DgAAwCwf4Dw3HNaB9iNCeIASAqIEqBd/8UjPdFX2AcOwAGAc4AIgMYBdmOCJANEvwLa9f9kpOu9xf3iAA0AYA6QANA4wGZMUAvAyOhXgLD+j3imt7jnHaAFAMoBMgCknaCNmCDZAKIDniSuvxfmC/jDAQQAgBwQAYDoAOqYIHETKD066z+SO8CaA0gAwDhAAYDgAPqYIAEAuWSI9P33zIwRPziACACIA6IAkL8CdGcBPQP8IZ+w/o94bMaIpx1ABgDCATEAnmOPCRIBIL3/H3hrzpD3HaADAIADVACwxwTJBiC+/16cM+RhB+gBwO4ANQDMMUEiADrf/0e4AygcoAsAswMQAFhjgiQATN9/7gALBCAATIXsK4wCwBgTJABgsP/n+wDrDkABgOwrjAHAFhPUAmDp/ecOMCUAAwCwtzgOAFNMUAOAxfefO8CMABSASYC9xTUAsMQEUQD6Se9//8j+kdwB1A7ADQA3X0ALAENMEAXgKeL77+W5w951gMYAYA4gAGA/JogCQHj/f+WLucMedIDWAFAOEP7NlADrMUEEgGLC++/52ePecMAOzY+uWGsAIAcIP/83aw6wEg94x3Ac8yf9vpk97j0HEAwA4wDh5z+35gAr8YB3TNefO8DuPoBgABAHCD//uTUHWIkJvmO4/r+K0+zxAe+AqSmAs8ZEACw5wEpM8B0L/ucOYHZAzAAADpAAsOQACzHBdyy+/9wBTA6YCjlvUHjJMgHmMcF3zPd/3AHsDpgKOW9QeOklKgcYxgT/bGX9uQNYHTAVcuao8NJLNA4wjgn+WW/9++M0ezwxHDAVcuao8NJzL1F+BfTPAmQAit/Xe94kPw0EBAaEA7Z1TaF7io0AgHGAaADLBJjFBP8sgDyvD1QHrIT5+UyFnDssGoDSAfrxACgAHhmg+wBoACAcIBuAygH68QA4AwxMBzhmAAYHiABQOkA/JghogAHpAHgA2B2gGIDCAfoxQUgDDEQHOGgA2w6QAaBzgG5MENQAA9ABTgDA6oCYAV5ijQlm9F8ANcDAcwAQAG0pKXAOUACgd4A2JpjRXwxqgAHnABgAijej687mALUB2GKC6Vn9WR/AGmCgOQAGgBVpaSlwDogB8Bx7TDDrh3mwBhhgDgABYN6eNJwAFgegBmCKCYoK+HMJrAEGlgMgAJj3tnRNAOYANQDsMcGsrB8+mA8LwEByADsAxSv2pKURCLDvANwAbDHB/qz+rP4Lf1aed/Se1w2fHwbq3WDZSuSZNm3atI9Iz2y9p21zWvQBcgAKAFNMMF1ygMTAUxn9xj1F+3l+AH1+APbAOED4xUv2HYDHBNOz+iUCMp6yM3uc5weY5QcYEmDTAcIvfsHgAHVMMD0WE+zPeCqDfvY4d4AbDhB+8Qv7DlBxINs/XfZAekwB3AEed4AIAKsDpI9AxADiWVByAP3sce4ANxwgAcDmAPH9FzFIz4p8BdLRVFHuAC87QAaAxQGKB+T1j3wGMtKf4g7whQMiADA4QBJAuqiADEn/yl6AO8AXDhB+/Qt2B0iLn56VoT4LpNMTwB3gggOEX/+a1QFj5A+AvA1QtgB2ps9zB7jgAOHXv2Z2wBh5+dOl/0iHgCxb0+e5A1xwgAgAqwPEkGC//B0QKUjPyOrnDvCLAyQAmB2QLv1HgiA9w/b0ee4AFxwgA8C8D8iKxIMyMmQS0iN3Q9wBXndABABWB6RH/pHOAtwBPnKAAgCAA+RdgKiAMRnpWdGIEHeApx0QBQDCARmyArIyuAN844AYABAOiBwE5LOAEhTiDvCyA1QAsDugXwkJZ6VncQf4wwFqAGAc0B+JCMUUwB3gYQcgAADEA/pVl4NZ3AHedwAKAIQD0iNRYTEemJ7BHeBxB2AAsO8D5FsBKR7A9wE+cAAOALMDpK9AZCeYoc4U5Q7wpAOEF38N6wB5Hxi5F+AO8LwDhBdfhHeAdDEQPQtwB3jZAcKLL8I7ID0SEs5iJYA7wHEHiACAOyCyC5TOg2MyuAO87AAJAAf2Af2R2wHxZog7wMMOkAGAdkB6JEGAbvo8d4ALDogAAO6AdPkgwB3gdQcoAMDvAzKUDAHuAC87IAoAtAPSlU1ABvNXgDvAQQfEAHDGAdJhgDvAuw4Q3nrRQQf0KwhwB3jVAcJbbznlgOfGRNKEM/g+wLsOEN56y0kHRJMEuQM86gDhrRedc4A6VZg7wJsOEA3gqAMiFwPcAR51gPQJcHAfkB67GOAO8KIDZAM46ADlfjiDnwU86YDIJ8DBfUC0dJw7wIsOUAzgpAPSY52kuAO85oDoJ8DRs0C/ogDuAK85IGYAJx3ws1gzOe4AbzlA9Qlw0gHpEQXwmKDXHKA2gLNnAalomDvAaw4QXn4rLg5IhzsNcgdAOkB4+eU4OWCM0kyOnwW85ADh5Zfj44DnYp0EuQM85AARgHg5QGkewO8FPOQACYA47QOylKpxHg/wjgNkAOLngCx+L+AtB0QAiJsDYkFB7gBPOEABIE4OSM/i9wLeckAUgLg5IJ3fC3jJATEAXo5bTJDfC3jIASoA4uUAfi/gJQeoAXiZ3wskngMQAPi9QOI5AAWA3wsknAMwAPi9QKI5AAeA3wskmAM0APB7gcRygBYAfi+QUA4gAMDvBRLJASQA+L1AAjmACAC/F0gcB5AB4PcCCeMAHQD4vUCiOED4y8suO4DfC7jqAOEvf3HVAfxewGUHCH/5i8sO4PcCrjpABMBVB/B7AXcdIAHgsgP4vYCLDpABcHcfwO8FXHTA/wd1lAhYRzdXCwAAAABJRU5ErkJggg==;" vertex="1" parent="WIyWlLk6GJQsqaUBKTNV-1">
          <mxGeometry x="140" y="380" width="50" height="50" as="geometry" />
        </mxCell>
        <mxCell id="Hey_0Endjz0srx_wIcTM-7" value="Cloud Database" style="text;html=1;align=center;verticalAlign=middle;whiteSpace=wrap;rounded=0;" vertex="1" parent="WIyWlLk6GJQsqaUBKTNV-1">
          <mxGeometry x="200" y="370" width="60" height="30" as="geometry" />
        </mxCell>
        <mxCell id="Hey_0Endjz0srx_wIcTM-13" style="edgeStyle=orthogonalEdgeStyle;rounded=0;orthogonalLoop=1;jettySize=auto;html=1;entryX=0.5;entryY=0;entryDx=0;entryDy=0;" edge="1" parent="WIyWlLk6GJQsqaUBKTNV-1" source="Hey_0Endjz0srx_wIcTM-8" target="Hey_0Endjz0srx_wIcTM-0">
          <mxGeometry relative="1" as="geometry" />
        </mxCell>
        <mxCell id="Hey_0Endjz0srx_wIcTM-8" value="" style="shape=image;verticalLabelPosition=bottom;labelBackgroundColor=default;verticalAlign=top;aspect=fixed;imageAspect=0;image=data:image/jpeg,/9j/4AAQSkZJRgABAQEASABIAAD/4QCgRXhpZgAATU0AKgAAAAgABQEaAAUAAAABAAAASgEbAAUAAAABAAAAUgEoAAMAAAABAAIAAAEyAAIAAAAUAAAAWodpAAQAAAABAAAAbgAAAAAAAABIAAAAAQAAAEgAAAABMjAyMTowODoyMyAxNzoyNjo1MwAAA6ABAAMAAAABAAEAAKACAAMAAAABAgAAAKADAAMAAAABAgAAAAAAAAD/4QtBaHR0cDovL25zLmFkb2JlLmNvbS94YXAvMS4wLwA8P3hwYWNrZXQgYmVnaW49Iu+7vyIgaWQ9Ilc1TTBNcENlaGlIenJlU3pOVGN6a2M5ZCI/PiA8eDp4bXBtZXRhIHhtbG5zOng9ImFkb2JlOm5zOm1ldGEvIiB4OnhtcHRrPSJYTVAgQ29yZSA1LjUuMCI+IDxyZGY6UkRGIHhtbG5zOnJkZj0iaHR0cDovL3d3dy53My5vcmcvMTk5OS8wMi8yMi1yZGYtc3ludGF4LW5zIyI+IDxyZGY6RGVzY3JpcHRpb24gcmRmOmFib3V0PSIiIHhtbG5zOnBob3Rvc2hvcD0iaHR0cDovL25zLmFkb2JlLmNvbS9waG90b3Nob3AvMS4wLyIgeG1sbnM6eG1wPSJodHRwOi8vbnMuYWRvYmUuY29tL3hhcC8xLjAvIiB4bWxuczp4bXBNTT0iaHR0cDovL25zLmFkb2JlLmNvbS94YXAvMS4wL21tLyIgeG1sbnM6c3RFdnQ9Imh0dHA6Ly9ucy5hZG9iZS5jb20veGFwLzEuMC9zVHlwZS9SZXNvdXJjZUV2ZW50IyIgcGhvdG9zaG9wOkNvbG9yTW9kZT0iMyIgcGhvdG9zaG9wOklDQ1Byb2ZpbGU9InNSR0IgSUVDNjE5NjYtMi4xIiB4bXA6TW9kaWZ5RGF0ZT0iMjAyMS0wOC0yM1QxNzoyNjo1MysxMjowMCIgeG1wOk1ldGFkYXRhRGF0ZT0iMjAyMS0wOC0yM1QxNzoyNjo1MysxMjowMCI+IDx4bXBNTTpIaXN0b3J5PiA8cmRmOlNlcT4gPHJkZjpsaSBzdEV2dDphY3Rpb249InByb2R1Y2VkIiBzdEV2dDpzb2Z0d2FyZUFnZW50PSJBZmZpbml0eSBQaG90byAxLjEwLjAiIHN0RXZ0OndoZW49IjIwMjEtMDgtMjNUMTc6MjY6NTMrMTI6MDAiLz4gPC9yZGY6U2VxPiA8L3htcE1NOkhpc3Rvcnk+IDwvcmRmOkRlc2NyaXB0aW9uPiA8L3JkZjpSREY+IDwveDp4bXBtZXRhPiAgICAgICAgICAgICAgICAgICAgICAgICAgICAgICAgICAgICAgICAgICAgICAgICAgICAgICAgICAgICAgICAgICAgICAgICAgICAgICAgICAgICAgICAgICAgICAgICAgICAgICAgICAgICAgICAgICAgICAgICAgICAgICAgICAgICAgICAgICAgICAgICAgICAgICAgICAgICAgICAgICAgICAgICAgICAgICAgICAgICAgICAgICAgICAgICAgICAgICAgICAgICAgICAgICAgICAgICAgICAgICAgICAgICAgICAgICAgICAgICAgICAgICAgICAgICAgICAgICAgICAgICAgICAgICAgICAgICAgICAgICAgICAgICAgICAgICAgICAgICAgICAgICAgICAgICAgICAgICAgICAgICAgICAgICAgICAgICAgICAgICAgICAgICAgICAgICAgICAgICAgICAgICAgICAgICAgICAgICAgICAgICAgICAgICAgICAgICAgICAgICAgICAgICAgICAgICAgICAgICAgICAgICAgICAgICAgICAgICAgICAgICAgICAgICAgICAgICAgICAgICAgICAgICAgICAgICAgICAgICAgICAgICAgICAgICAgICAgICAgICAgICAgICAgICAgICAgICAgICAgICAgICAgICAgICAgICAgICAgICAgICAgICAgICAgICAgICAgICAgICAgICAgICAgICAgICAgICAgICAgICAgICAgICAgICAgICAgICAgICAgICAgICAgICAgICAgICAgICAgICAgICAgICAgICAgICAgICAgICAgICAgICAgICAgICAgICAgICAgICAgICAgICAgICAgICAgICAgICAgICAgICAgICAgICAgICAgICAgICAgICAgICAgICAgICAgICAgICAgICAgICAgICAgICAgICAgICAgICAgICAgICAgICAgICAgICAgICAgICAgICAgICAgICAgICAgICAgICAgICAgICAgICAgICAgICAgICAgICAgICAgICAgICAgICAgICAgICAgICAgICAgICAgICAgICAgICAgICAgICAgICAgICAgICAgICAgICAgICAgICAgICAgICAgICAgICAgICAgICAgICAgICAgICAgICAgICAgICAgICAgICAgICAgICAgICAgICAgICAgICAgICAgICAgICAgICAgICAgICAgICAgICAgICAgICAgICAgICAgICAgICAgICAgICAgICAgICAgICAgICAgICAgICAgICAgICAgICAgICAgICAgICAgICAgICAgICAgICAgICAgICAgICAgICAgICAgICAgICAgICAgICAgICAgICAgICAgICAgICAgICAgICAgICAgICAgICAgICAgICAgICAgICAgICAgICAgICAgICAgICAgICAgICAgICAgICAgICAgICAgICAgICAgICAgICAgICAgICAgICAgICAgICAgICAgICAgICAgICAgICAgICAgICAgICAgICAgICAgICAgICAgICAgICAgICAgICAgICAgICAgICAgICAgICAgICAgICAgICAgICAgICAgICAgICAgICAgICAgICAgICAgICAgICAgICAgICAgICAgICAgICAgICAgICAgICAgICAgICAgICAgICAgICAgICAgICAgICAgICAgICAgICAgICAgICAgICAgICAgICAgICAgICAgICAgICAgICAgICAgICAgICAgICAgICAgICAgICAgICAgICAgICAgICAgICAgICAgICAgICAgICAgICAgICAgICAgICAgICAgICAgICAgICAgICAgICAgICAgICAgICAgICAgICAgICAgICAgICAgICAgICAgICAgICAgICAgICAgICAgICAgICAgICAgICAgICAgICAgICAgICAgICAgICAgICAgICAgICAgICAgICAgICAgICAgICAgICAgICAgICAgICAgICAgICAgICAgICAgICAgICAgICAgICAgICAgICAgICAgICAgICAgICAgICAgICAgICAgICAgICAgICAgICAgICAgICAgICAgICAgICAgICAgICAgICAgICAgICAgICAgICAgICAgICAgICAgICAgICAgICAgICAgICAgICAgICAgICAgICAgICAgICAgICAgICAgICAgICAgICAgICAgICAgICAgICAgICAgICAgICAgICAgICAgICAgICAgICAgICAgICAgICAgICAgICAgICAgICAgICAgICAgICAgICAgICAgICAgICAgICAgICAgICAgICAgICAgICAgICAgICAgICAgICAgICAgICAgICAgICAgICAgICAgICAgICAgICAgICAgICAgICAgICAgICAgICAgICAgICAgICAgICAgICAgICAgICAgICAgICAgICAgICAgICAgICAgICAgICAgICAgICAgICAgICAgICAgICAgICAgICAgICAgICAgICAgICAgICAgICAgICAgICAgICAgICAgICAgICAgICAgICAgICAgICAgICAgICAgICAgICAgICAgICAgICAgICAgICAgICAgICAgICAgICAgICAgICAgICAgICAgICAgICAgICAgICAgICAgICAgICAgICAgICAgICAgICAgICAgICAgICAgICAgIDw/eHBhY2tldCBlbmQ9InciPz7/7QEwUGhvdG9zaG9wIDMuMAA4QklNA+0AAAAAABAASAAAAAEAAgBIAAAAAQACOEJJTQPyAAAAAAAKAAD///////8AADhCSU0EBgAAAAAABwAIAAAAAwEAOEJJTQQIAAAAAAAQAAAAAQAAAkAAAAJAAAAAADhCSU0EDQAAAAAABAAAAHg4QklNBBQAAAAAAAQAAAABOEJJTQQZAAAAAAAEAAAAHjhCSU0EIQAAAAAATQAAAAEBAAAADwBBAGQAbwBiAGUAIABQAGgAbwB0AG8AcwBoAG8AcAAAAA8AQQBkAG8AYgBlACAAUABoAG8AdABvAHMAaABvAHAAAAABADhCSU0EJQAAAAAAENQdjNmPALIE6YAJmOz4Qn44QklNBCgAAAAAAAwAAAACP/AAAAAAAAD/4gJkSUNDX1BST0ZJTEUAAQEAAAJUbGNtcwQwAABtbnRyUkdCIFhZWiAH5QAIABcABQAYAAZhY3NwQVBQTAAAAAAAAAAAAAAAAAAAAAAAAAAAAAAAAAAA9tYAAQAAAADTLWxjbXMAAAAAAAAAAAAAAAAAAAAAAAAAAAAAAAAAAAAAAAAAAAAAAAAAAAAAAAAAAAAAAAtkZXNjAAABCAAAAD5jcHJ0AAABSAAAAEx3dHB0AAABlAAAABRjaGFkAAABqAAAACxyWFlaAAAB1AAAABRiWFlaAAAB6AAAABRnWFlaAAAB/AAAABRyVFJDAAACEAAAACBnVFJDAAACEAAAACBiVFJDAAACEAAAACBjaHJtAAACMAAAACRtbHVjAAAAAAAAAAEAAAAMZW5VUwAAACIAAAAcAHMAUgBHAEIAIABJAEUAQwA2ADEAOQA2ADYALQAyAC4AMQAAbWx1YwAAAAAAAAABAAAADGVuVVMAAAAwAAAAHABOAG8AIABjAG8AcAB5AHIAaQBnAGgAdAAsACAAdQBzAGUAIABmAHIAZQBlAGwAeVhZWiAAAAAAAAD21gABAAAAANMtc2YzMgAAAAAAAQxCAAAF3v//8yUAAAeTAAD9kP//+6H///2iAAAD3AAAwG5YWVogAAAAAAAAb6AAADj1AAADkFhZWiAAAAAAAAAknwAAD4QAALbDWFlaIAAAAAAAAGKXAAC3hwAAGNlwYXJhAAAAAAADAAAAAmZmAADypwAADVkAABPQAAAKW2Nocm0AAAAAAAMAAAAAo9cAAFR7AABMzQAAmZoAACZmAAAPXP/bAEMAAQEBAQEBAQEBAQEBAQEBAQEBAQEBAQEBAQEBAQEBAQEBAQEBAQEBAQEBAQEBAQEBAQEBAQEBAQEBAQEBAQEBAf/bAEMBAQEBAQEBAQEBAQEBAQEBAQEBAQEBAQEBAQEBAQEBAQEBAQEBAQEBAQEBAQEBAQEBAQEBAQEBAQEBAQEBAQEBAf/AABEIAgACAAMBEQACEQEDEQH/xAAfAAEAAQQDAQEBAAAAAAAAAAAACgECCAkDBQcGBAv/xABqEAAABgECBAMDBQMUCRAIBwAAAQIDBAUGBxEICRIhEzFBFCJRFTJhcZEKgbEWFxkaIzc4Qlh0dneWobS1tsHR8CQlMzlSddLU1RgnNTZDVFVWV2JncpOUlZcmKZK3wtPW8TRIZIKmssX/xAAdAQEAAQQDAQAAAAAAAAAAAAAAAQIDBggEBQcJ/8QAOREBAAEDAgQDBAgFBAMAAAAAAAECAxEEIQUSMUEGUWETInGRByNCgaGx0fAIFDJywSRTguFSsvH/2gAMAwEAAhEDEQA/AJ/AAAAAAAAAAAAAAAAAAAAAAAAAAAAAAAAAAAAAAAAAAAAAAAAAAAAAAAAAAAAAAAAAAAAAAAAAAAAAAAAAAAAAAAAAAAAAAAAAAAAAAAAAAAAAAAAAAAAAAAAAAAAAAAAAAAAAAAAAAAAAAAAAAAAAAAAAAAAAAAAAAAAAAAAAAAAAAAAAAAAAAAAAAAAAAAAAAAAAAAAAAAAAAAAAAAAAAAAAAAAAAAAAAAAAAAAAAAAAAAAAAAAAAAAAAAAAAAAAAAAAAAAAAAAAAAAAAAAAAAAAAAAAAAAAAAAAAAAAAAAAAAAAAAAAAAAAAAAAAAAAAAAAAAAAAAAAAAAAAAAAAAAAAAAAAAAAAAAAAAAAAAAAAAAAAAAAAAAAAAAAAAAAAAAAAAAAAAAAAAAAAAAAAAAAAAAAAAAAAAAAAAAAAAAAAAAAAAAAAAAAAAAAAAAAAAAAAAAAAAAAAAAAAAAAAAAAAAAAAAAAAAAAAAAAAAAAAAAAAAAAAAAAAAAAAAAAAAAAAAAAAAAAAAAAAAAAAAAAAAAAAAAAAAAAAAAAAAAAAAAAAAAAAAAAAAAAAAAAAAAAAAAAAAAAAAAAAAAAAAAAAAAAAAAAAAAAAAAAAAAAAAAAAAAAAAAAAAAAAAAAAAAAAAAAAAAAAAAAAAAAAAAAAAAAAAAAAAAAAAAAAAAAAAAAAAAAAAAAAAAAAAAAAAAAAAAAAAAAAAAAAAAAAAAAAAAAAAAAAAAAAAAAAAAAAAAAAAAAAAAAAAAAAAAAAAAAAAAAAAAAAAAAAAAAAAAAAAAAAAAAAAAAAAAAAAAAAAAAAAAAAAAAAAAAAAAAAAAAAAAAAAAAAAAAAAAAAAAAAAAAAAAAAAAAAAAAAAAAAAAAAAAAAAAAAAAAAAAAAAAAAAAAAAAAAAAAAAAAAAAAAAAAAAAAAAAAAAAAAAAAAAAAAAAAAAAAAAAAAAAAAAAAAAAAAAAAAAAAAAAAAAAAAAAAAAAAAAAAAAAAAAAAAAAAAAAAAAAAAAAAAAAAAAAAAAAAAAAAAAAAAAAAAAAAAAAOB+QxGaekSHmmGI7Tj777ziGmY7LSVrdefcWpKG2m0IWta1mSEkhRqURJMyDV5rvzgOCTQ2TZVTuo8nVDI4CnmHKLSSEzlRFMYWtJxnL9c2uxZpaTQbb6k3yyZXuXhLdIkGGsTOPujB8p7rOnHDH4lW2paY9hmeovg2MhHckOvVFJjEiJFUZbGbab2bsfbde/UQfG1X3RbqS0+hVzwz4dOjdaScar9Qretk+Hv7ym338YsWuvbfYlxyT9IDN/Rvn5cKmdrj1+qGL6gaM2jqyQqXOjx8yxRPUXdR3ePts3CEpV26pOKxkpRuo3FH7oDcRpTrJpfrdjEfMtKs6xrPMckGTfynjdrHsWY0k0eKcKe22pMuunJbPrXCsI0WShPdTRAPT9y233Lbbffftt57/Vt3AVI9+5dyPuRl6gAAAAAAAAAAAAAAAAAAAAAAAAAAAbl579viAoakltuoi3PpLcy7n8C+n6PMAIyPfYyPY9j2Mj2P4Ht6gKgAAAAAAAAAAAAAAAAAAAAAAAAAAAAAAAAAAAAAAAAKGZJI1HvsRGZ7EZnsRb9iLuZ/QXcwHg3EVxE6X8M+lt/qpqpeN1FBTs9MWIg2XbjILV0toNHj8BajXYWs540NsNISbbaTVIfUiM244QQteN3mha+cXlxbUUS4nac6NeK+xV6cUM1TLdnDSam2X8ysIvgTL2TLbJDr8R19uBFNDSY8RKvFU4Gsv76j+lR9Sj+lRkREaj9T2Lc++xeQAAAH9fUv3y7l97v8AHsGievmr3DvlsXNdHc6vcJvY5s+IqrlLKDYsR3DcTBt6talQLSCZmZqizGnmTNRqJCV7qMJgHLl5sWE8WyIOmOqKKzAddI8JomI6ZbbVBn62S6HnseTIV4kS1NBHKk0jzjnV1OKr3nUEUZoNyyTI0kZdiPyLy7f18wFwAAAAAAAAAAAAAAAAAAAAAAAB9u4DwTiO4jNMOGHSrINWtU7j5Nx6jZP2eKwSXLW7tFtqVDpqiKoyU/YSz26CMkttNkpx5aElsoImvEPzy+K3Ui/ltaOSKrRPCmnlIrotdXVt7lciMjqSh62u7SLJbYlvpNK3WaliGw1v0EbqiNYDzHSfnScc2nWRRLHIc8qtU8eStPyhi2aY/W+zTGtz6kNWlQ1AuYbhEZmhyNNbR17GtlREZKCU7wLce2lfG9gr99ira8ZzjHCbZzbALKSw/Y0zrqfzGfAkIJBWFHOUSzhzGkpdQTamprLT3T1BnolRK3237Ht6ef3jP+pkAuAAAAAAAAAAAAAAAAAAAAAAAAAAAAAAAAAAAAAAAB83luV4/hGM32XZVaxKTHMbqbC5urae4hiHX1tbGXKmSX3XFJSlDTDa1bb7qMtkkZmRAIHHMb45Mm409a7C3iyJ1ZpHiDsym0zxjxVtMorzcJuVk05ptw2nrq/cZXKOQaUOQoqmoTJNk0vqDXmZ7+RJSXolJElJFvvsRF6bmfnv8PIiIBQAAAABQyI/P6/My7/e2AdtRXdzjFzV5Jj1pLpr2jnMWVVbQX1xplfPirJ2NKjSWzStl1LqUkZpP30+4rdBqIwnG8rbj9ruMbSIqHLJ8VnXHTeJEhZvXuLS2/kNY4XhVmZwm07k61OU07GuDbI/ZrNpTi0oRKbSQbVgAAAAAAAAAAAAAAAAAAAAAAAdJkOQ1GL0lvkWQWESqpKKDKs7aymOE3FhV8NpT0mQ+tXSlJNtluZGe6j91O5mRAILvM947rTjH1mlQsZsZbWimns2ZVaf1yXFstW7zbqmp2XzW0mRqm3Cm+uAbvePXN9KEkazUYaxTPfYvQi2Ii8u5mZ/fMz7n3Mz7n3MwFAGb/Lr10u9AOLjR/KqqbIi1V1lVXh+WxGXVJYtMcyWa3XzI8lo1eComnpLUxkzT+ZyGSWkveWSg/oKNHuSi7dlbEaSPY9kpI+59jMlEZGZfD75hygAAAAAAAAAAAAAAAAAAAAAAAAAAAAAAAAAAAAAC1S0oSpSjIiSRqMz9CL1ARNOdfzCDz3ILDhG0ntlfiQxawI9Wr2C/u1kORwnXFM4jHeacI1wKN5ol3Be+xMnLRG3WUUwEdTy++e/3wAAAP6/zfhAD7efb6/o8/sAAAA/r9fffv8e5b9wHvHDTxD6gcLmseIax6cz/AGa6xycn2+teJaq3JMfkupauMatWkLQhUK3jbw0rQXtkWTJjWLDiFQzMgn/8M/ERgXFDpDh+r+ndkmXTZJXNrnQFrQqfj94w2hFtj9q2REtmfWy/EaV2Jt5lLcls1NvoUoMgSMj8j3+r7fwHuAAAAAAAAAAAAAAAAAAAAAtNRFvue2xb7n8PLy9f6TIBFs52HMPKykT+ETRzIFewxVkWsuQVbhm3Mko99nB48ptZGTcZxtEm+U31NLUluF1GpCkgIzpmZnuZ7n3L7T3/AAl97yLsAoAAMs+BnSW71p4sdEcGpYjspbmdUV1bONkfhwKXH5jVxZTXtiMm22WImylL2SbjjbXdbiSMP6ILe3T2229PT7+3puW3bYjI9yMByAAAAAAAAAAAAAAAAAAAAAAAAAAAAAAAAAAAAALVKJJbnvt9BGfkW5+X0EZ/eAab+blzA4nCrpc5pjp9ZNua36n1L8etXGloRIwbF3jciz8tkNl1LRJdSbkGnRskzkOnMURtMJUYQn5MiXLkyZc556RMlPLkTJMh12RKkynVmt92RIkLcecWt1SluLWtTjizUpajUZmYcIAA5GmXpDzUeO06/IfWlthiO2b777jikobbYZbPxHnnHFk22yj81ccI0ILcgEjzgH5Ha8+oKvVXi1lW2PVFvDi2ONaUUTyYGQqhPoS6xIzOzfYdVWE+0s3GaquQUxKHCW9NaNPQsM5OITkT8MGbYfLa0OXcaRZ/DiKVSTn7afkWK2UtCCQ2zkdVYHKlsMvuKLexq5CJMVZqfUxJSk2QET3XjQfU3hu1KvtKdWcfk4/lVC8lJ+KlZwLeC71KhXNLOcQ23Z1c9pJOR5bHUnqNUd0m5LL7LQeOgAB/Xz2/f9PrAbUeVpx9WfBxrC3QZXMflaF6kzYdfm0B15zpxq0XszAzuub99tMiuPePcxiQlE2qeMmyU/AimoJylNa115WwbionxLOrtIcSxrrCDIalRJ0GYwh+LMivsKU09HktKJxh5tSm3GzSpBmQDswAAAAAAAAAAAAAAAAABatZIT1GSjL/AJqTUfx8i+gv5vMyIBqc5rHH3X8IWkLmMYRaxHddtRoL8TD4KFtuScYqnEuMTczmNGfUz7MnxmaYzLdyyb8Q0KRGURhB6tLOwubGbb2suTYWlnLkTbGdLfU/IlSZLq33nnXFqUpbjzq1LWtSlK3M+5gPwgADlYjvSnmY0dtT8mS42xHjtJNx6Q884hhllptBKU46/IeYjMtpI1uPyGW0JUpfYJqnKI5fTHC3pm1qzqPVMr1y1LqmnZKH20qdwjEZKm5lbjrROEo2baY2TEzIJBGlS3ijRSJPhOEA3PER99/qI/iXpv8AT3MBUAAAAAAAAAAAAAAAAAAAAAAAAAAAAAAAAAAAFDPYjP4dwGLfF/xSYRwjaI5Rq5mbqH365lUPF8cafaRYZTlEltwqukgE6ZJNbzxEuS6r8zZjIeWsyIi3CALrlrNnXEDqhlerGodtJs8ly2zdnvm64pbNfE6lJg1Ne2r3YtbXxyajxWGtmjbbS6RKNw1mHk3YuxFsXoXnsXoXfv2+kAAXEnfYzMi36tiLuoyR09ZmXYkpSbjajUo9jT17d09wke8lTl3N5hYweLXWOiW5j1NN30jxu5h7sXFrHUbbmaPRHk9LkGvcJbVMbhKRIeUU9O6EoMwlaIaJtRmk9k9JJJsiJKEkW23SSdiI+3cz37dKS6UpIgFykdR77+m22xdj77GX2nuR7pMtty7ANafMs4Dsd4z9HZaa1iPB1kwWNKtdOMgW2klyXGmlOScUsXUoNS6e2Sa1RmTMkQ7fwprRJWuT4gQU8mxu9w/IbrFslqZ9Hf4/Yy6q3qbJg482BYQZDkaVFktKPdt5l1st0bfmjTrLzZm2ozIOiAAD7fXbbfcz9CTsZGSjPYiMjLYzI/QBKB5JvMNU41A4PtW7dKlR0LRozkllKQnxGWvFffwWU+4rqW8hHU5RKM0toIlwEoShDBKCTqgzUkjMtjP+nt9R7eZeh9gFwAAAAAAAAAAAAAAAADHbih4jsB4WtGMv1g1AmstwMdhGVVTe0IYssnyGUjwqjG6htaiN+dZynG2eoiNqGwb06QpLEZ1SQgC8R/EHn3FBq/lusWo89Uy7yac8qFCQpRV9DRoWtFVRVUdRqKNAr4fhNNEkyOQaVS3up2QtRh4UXbsAAHx3MkkXSRGZ7mpSjMiSSe3zSSa1KMySSSASIOSny9D1BySFxaawY+h3BcZmLRpTQXETxI+VZIwl1leXORV7tvU2NvOK+TVOkpMm7SmYlKm4CFGEtNtvw+xGXRsZEkk7beXT33PyItj7e928iSRAOUAAAAAAAAAAAAAAAAAAAAAAAAAAAAAAAAAAAAB0GU5PRYZjd5lmT2cWmx7HKubc3NrNdJmLArq9hciVKecPslDTTalH5mZkSSIzPYBBA5k3HPdcaetU6xq5UyJo/hj8qn02oH1eH7TBQ4aX8osWEL8NdndKT7Qklo64EN1qGkyPxTcDXL9Zmfn5mZ+Z77d99iLySkuyUkSUkSSIiAAANkHLT4GLvjQ1qjxbZmTD0ewaTAuNSLkkPJbmx0uLVGxSueTu18p3avzN4zSr2WCTkhZdmwE7nGMbo8Sx6kxnHK2LUUVBVV9RUVsJhEaLCr62KzFhx2WW0pShDLDLaCIkkZ7GatzM9w78AAWmku57Fvt6+Xx7/RuAjYc63l7Hk9TP4utJaNS8gpozStYKWEwXiW1TFYS1GyyNGaQn+2MRK/AuF+8t9kmnj36TMgis9yIiUR9RdXWZpNGyiWpJo6VeRoJJb/X5gKAADtKW5tMeuKq+pJj9bcU9hDsKywiPriyoM2I+h9iWw6yaV+JHWnxzQkyU+ltTRq2UYCc1yvuPat4yNHIlbkkuFD1n0+hRKvOaltZNLuIzaEx4OWwWV7mUeySSUTGt1mxYpkJPZHTuG0oAAAAAAAAAAAAAAAHU3d3U47U2d5eWEWrp6eDJsbWxmOpZjQYERlT8mVIeUZJaZYZQtx1w+yUJMwEF7mi8edpxl6yvVeNTFs6I6byp1XgFbsSFXcp0nIdtmNgkldLq7YkKZqkKR1QqskqI+qcszDV+ZmZmZnuZnv8A1+BEWxERdkpIkkRJIiIKAADYFy6+CDJONbW2vx12PJh6U4k/DudU8hTu02xSE+SUUEB890ndZCslQYxElZxIxyp6kmiOogE83C8OxrAcSx/CsRpodDjGMVUSlpKeA0hqLAroLJMR2G0I2TuSE9Tq+5uurddWpSnFqUH1IAAAAAAAAAAAAAAAAAAAAAAAAAAAAAAAAAAAACxbiEbdR7b77djMu23wI+/ft8fQBFG513ML/Ffbz+EfRzIHl4zj01CtZciqJJNxru9ZUaWsFZltKJb9dQSHmnb4md0P3aGax1xaa2U2oI4JF5GfYyIyIi7kRGe5mZnso1GZbn6ffAXAH3yL6TPYi+kz9C+kB67oTonnPERqvh+j+nVaqzyjLrNuGwn81KJXQmz8SztrR1kjXGrKyIl16ZI2M2jSlLZLkG02sJ/vCVww4Jwm6KYrpDgrTchFNH8fIMkXFYjWOVZJIJtdndzyaSay9ofQkokc3FFGhNRYxKUTRKMMni8iAAAAAfisYMO0gy66xiR51fOjvRJ0KU0h+NKiSG1NSI77DiVNvNPNLU242tJpWhSiMjAQh+bHwBy+EjVdzP8ACYEhzRDVK0kyqV42etnE8hkJcnT8VkOtmaGWkpQ7IpjMkodipWwhSnWTbSGosvIvUtux/FP6Uy+JGnYyP1LYwFQABkHwwcR2e8K+smKawYDMebnUMom7ao8dbdfk9DIca+VKG1aI+lcSbGQtLbvd6NL9nkN7E0aiCf5w3a/4NxOaRYfrJp9LRIo8phEt+Ebjbsyht46EptcftCbVszY1clfhvJNPvtrbdQamXm3FB7yAAAAAAAAAAAAAsUtKfnHtsRGfY9iIzJJd/rP8JgIu3O15hBvvWPCBpBctrjpNCtZMkqZhLNT5da2cBZkMLPbZKHJGQNe82rZuC6ZG082kIye5mZ/O2L1WZGpSld1Gexn5GXbf49gAAAenaOaR5xrpqViulenlNIvMry2zjwIUNhJKSywt0ky7CWszSiPBgME5JkSXVttspa6uslEkBPy4MOFDCeEHQ/G9LMUjMP2rTSLLNMkJtCJuUZTMSTtnYSXiSbnsjbyjj1sYzNtiGy0SS6lrMwy3SWxbfX8PifftsXfz8i+oBUAAAAAAAAAAAAAAAAAAAAAAAAAAAAAAAAAAAFqldJb7b9/iRfh+Bbn8fhuA1Ac2nmAxOErStWn+ntwhvX7U+qlxsaON0vP4NjrrrcKwzaanq6WZZKWcPHYiumTKnk5PbI4tVJNQQkJcuVYTJNhYPvS58p5+S9LkrW7KXKlPKekvPOuGa3XH/GmE/wCJ3cdknIV+bo61h+cAAfoixJU2TFhw470mVNeTGiMR21PvPyVuIaQy202SlKccW60lpvbxXlqNDbSzT7wTZuUly/InCfpUWouoNdBf111Qq4kq3ccjeJMwXEZLTEyvwZiQszJmcbhplZMcbwkuSkRa5XjfJqpkoNxCU9PVue5qUat9tvgRF5mZ7ERFuZn5ehbEQXAAAAAADxTiC0JwPiP0py3SLUSuanY9lVY/G8Y2kLlVFgkiXX3Va6tK/Z7Cslpalx3GzQszaNtSvCW4Rh/P+4quGfPeErWfJtHM/aN6XUOplUF8xGcZrcqxuWalVN7XdSnSJuQ0XgSWEuvHEsWZMEnHltEpQY5gAAA2vcqjj7m8HOr6cZzedMlaE6lzmIGXRCfUtGJ3briYdZm0RhzdBFGJaWr9phpEmwrlLeS467Bhw1hOLrLKFcQIdnXSY82vsIsadBmRHkSIsuHMZRIjSY77Zmh1l5pxK21oM0rQZKIzIwH7wAAAAAAAAABQ99uxbn9e37+x/f7eQDVRzT+Pit4PNHnaPE5ceTrbqTXTa7CIRLbcXjcBTiI8/NLOPua0xoZKXGp0qJo5Nw4wrxEMxZCkhBvtbWyurOxuLWdJsLS3my7C0sJTzj8mxmTpBy5UqS84fW889KUt43VmatlqQZdJ7AOvAAHMxHelPMxo7TkiTIcQ0xFYQp2Q+46om2WmGkJUp195w+hplBKcWe3SkzPpATPuT9y92eGnTaPrPqXUpLWzUqnjPtRpkUifwbE5LZPRKVrrWpxizsEOlItjR4K0tqRFUR+8ow3YoQSN9vXp8i2L3Ukkv3iIi+BERem5heAAAAAAAAAAAAAAAAAAAAAAAAAAAAAAAAAAAAf0Fv8AQAxn4s+J3AuEzRfKNW86mtJTVxXIuN0niIRNyjJ5La01FDAS4pJKdlvkSpC07nHhtyJBls2ZGEATXzXTPOIzVfLdX9RLJc7JMssn5q2EmZQqmCpf9hUtex8xqvgxUtMMs9PvJTu94jhrWoPGgAAASOOSny8jzC6rOLnV6kQ7itDPQ5pFQ2bXW1eXsU1IVmL7Lv8AdIFK+pBUhmlSVWrKHkn4UYtgleJZbQo1pSRKMukz3PuW+/qf1Fv57ElO/SlJEHIAAAAAAAChpI/Mt9vL8P8AX7PIBrL5nPApT8aGislugiQoWtGnsazudNbt1CWPlJ5UJfteG2slKSefq73wW24/ieKVbZFGmxjZNT5rCCjfUNzi95b43kNdKqb2hsplRdVU1s2JdZZVz64kyI+2rc+tuQ0sj28t+4DqgABUlbefkfumeyeoyURt9lq7JX0qMkuObobVs4sjSkyMJRnJL5hjljBr+DzVy7eVaQUO/jLZFaSHJBy4afEee06dXJM5ZrrEdb+KtuOG4UBt+jIkJgRdgk0IMzQkzPqMy8z6dz+vp93fbz27ALwAAAAAAAAGP/E7xEYLwuaN5ZrDn8xLFVj8RSK6vSskzcgv5LT3yRj9ak+7k2ykNGhJJ7tx25Eg9kMqMB/P/wCJLiFz3ie1iy7WDUGap63yKwUuFWoeU7XY/UNJ6K6jqmDM248KFHV0bIIzmOrenPqcemOqUHg4AAAJB3Jb5eqdVcoh8UurtG9+IHC7JK9Mqiag0RssyqGvpcvn4y/dl0tMbqmY3Ua25FqlS1tqbaQSQlzpbQgiJCekiIkkRb7ERFsREXp2IvLz2LfyIBeAAAAAAAAAAAAAAAAAAAAAAAAAAAAAAAAAAAAA6LJcio8Vx+5yTI7OJUUNFXS7S3s5y/DiQq+EyuRKkPK9UNtNrPpQSlrVs2hKlqJJhBP5mHHZe8Zms8sqea/E0bwZ+VWadUijWyiZ0OkUrLbBsvffmXDqCcYNTaEx4ZMstdRdewa1C+8ReiSLbp79y+kzPdW+/qAAKkRmZEXmfl5F5EZmZ7+RERGZmfYi7mZANjHLZ4HMg4z9a4UGdGfh6S4S/Cu9Rr80rQy7CaeadjY3XrL3H7e5X0MoQoj9ghnLnFs60kgE7jEsSx3B8do8SxCmg0GM47WQ6ekqK5luPCrayAyTMSJGZbJJIabZI0ER9Suo+o9+4D6cAAWmpJevrt5Gf0ehf12P4GIiYmZiO3XO3p3wiqYojNXT0iZ6+kZk6k7b79vv/wD3E1e71/CM+vbJTVFcZpnb12/9sKE4g9z37F9Cv6O/3hETnpEz/wAav0KpimMzVTj0qifymfkqS0mW5H2+o/6AmYjrt90oiqJjMbx1zif0V6iM9t+/3xPWM9v326qo3jMdFQABGd51vLwVdxLHi+0goEFaVzJHrJj9VGT7RZQWzaYYziNEZM1PTYqTbj37bCXXH4iEWymepiStsItOxF5ERFuZESTSpPumZHspBmk9zIz7KPtsryUkzAAAO3x++usWvKjJMds5VNeUdhEtai1hLNuXXWUGQ3JiTY6y7k6w43ulJl0r6jSrZJmYCdDyxePKn4zNGo0e/mMR9Z9P4UKq1EqjLwnbM/BJETKa5jyegWpoUqQaOpqNN9pjmpPhGA2gAAAAAAAA6u4uauiq7K4uJ8Wtq6mDLsLKfMdSzFgwoTC5EuVJdUZJbZjsIU66szIkoSajMBBl5pPHtZcYusMijxSXPi6JaczpdZhtW4rw2shsWFLjy8ynMH07rs+laaw1tocZrlmyae7gDVoRHuoz23UfUe3kRmRbkW/fYj7AKgHwLuZn2IiIzMz2M9iIvXt2L1PsXcyIBnry9eCnJeNTXCsxFLUyBpnjTka51NyaOkktRqNDyd6aFKUk21XFz4bkCK0ybrjLbsp5xCPBIzCeng2EY1p1iWPYTh1REo8Zxmrh1NNVwkJSxEgwo7cdlkttiWskNJ63TIjWZGoy3MB9gAAAAAAAAAAAAAAAAAAAAAAAAAAAAAAAAAAAAA4zc6VGnYvMiL3tvMty33Ii6jPqLpSavdLqMy32IIrfOw5hir+wsuETR68adpKyQ3+PBkdVLM1PXkVxxTGFsSWDJK48Ej675tDy2npfhw1oLw1LUEa4iIt9uxGo1eRepJLbsRERJ6dkpSSUJI9iSXmAqAdi+ceyf0x9uxep9zIjMi8iMy3PtuXmA9b0O0Tz7iE1RxTSLTqnctMry20ar4zSkOey17SOh6fZWb7aFIjwKqN1ypz3X4aUNG31mpRJMJ+/CJwr4Fwk6K41pRhUZC3oTKJ+U3620lPyfJ5UdtNnbzHiPqcSZ7xobKlLREiNoabPqJbiwymL6e5gAAA+KzXOMV0+x+yyfL7mFQUlYhb8ywnvJYaQgjURERq95a1mXS02glOOq6SQkyPqO3qL9vT25rrmnEUx6bzjv3n8u/Sp1PE+L8O4BYuariGoopomKq8VVRmM+9FMTPl0x0jv3xq+1N5qGK009+t0wwSZljbDikqucgslUUF1JdRNvwYTMedZSGFmW5LmIrUOJ7tk6XvJ6G/4itWaeammK/eimYz167+XbbPzeFeIPp90Ghu1xw/SRropq5PZ0zmc+99Z7uOkUxTHlNWHnFBzYb9Mxssq0nqna43CKQ5RZJKjTGWlGRKcaYl17rT6kFufQbrXUexdSSMWKPFdH+zt64xOO2d/zj4sa4b/ABIZ1HLqvD1XJ0zPTfO+8Tjb02+9si0L4qtJdfIymsMulx72PHJ6bjNz4cS7jo7JU6Uc1rRNipUZpOXDdfbI9ic8Mz2Hd6TiWn4hEVUzFNUxmaNvd74jbE48o3+EbvdvDH0h8C8U27NVi5RYvXaKaqtLNVPNa5ozNExtvHlHlLJRtRmoiPt59i8t/h6Fvt8C9PvjmzM01cuIx229P3szqbdMTz0VZpxG3nnv3/cOcSADrrWsg3NbOqbSJHsK2yivwZ8CW2l2JMhykGzIjSWlkpDrLzS1NuIUXSpCjIy2MBB95q3AJO4RNWHsywmqkJ0G1GsJMzFZCEm41itwpJSrTEZhp3SwmG2onKU3FpVMiNqiNNqfiGuSGpruW5H2UkzSsu/urSZpcRuZFv0LJSeoi2VtukzSZGYAABkVws8SuecKGs2J6vYFLc9pqZJRLukU6pEHJ8flLR8rUs5tKvfbdipJ1lZlvHlJZeYQlRP+0hP+4edfsA4ltKMT1c05smp9BlEBLymSdbXKqLNn8ys6WybQe8ewrZZLjvtLIlGafESnwzJQD3AAAAABYpZJ8/o9dtzUrpIvhuZ+QCMLzueYU0SbHg50evlk/wDmStcciq5KkeAS340mDp3Clx3OpS3ktHIynocS2bKmalSFuN2KGAjCGZn5nv5+foZn7xltsRdeyestjTukjbJsjUlQAA/vffPYvvn6F8T9PMB6LpRpZmWteo2JaV6eVLt7lmbXcSjpYSWz2J5/+yHJU40GtMaFBhIOxs30uLREr25Lzq0IaUoBPx4J+EbCuDvQ/HdMMZ8Oxu1E3c5zli4xR5+V5VLYQc+a/sSVtxIjm8GphrNRQ4LDaVl7S4+4YZgkWxEXwIi+wBUAAAAAAAAAAAAAAAAAAAAAAAAAAAAAAAAAAAABqP5sXH5E4Q9JHcLwifGe1y1QrptZi0dp5p2Xh1K+2cSwzeRHSo3I0hpLzsbHDloKLJsmnpK0vsVshh4IQU+fNtZ020s5Ls6ysZT86fOkrN2TLmSnFvSpDzq91rdkPOLeeWZ7uOn4i919wH5AABzxokqfJYgwY8iZMmPNxYsSI0t6VJffWTTUeMy2SnHX3lqJtltCTUtxSUpIzMgE17lG8vqPwraXo1P1KqGD111PqYkuyakIS7IwPGZJHLi4lGcNJGxOdJ9uRkSkbqcnpON4rjEZpLYbkkpJJbEW25mfmZ9z7mff4n3P6e4CoC1R7EX0mZfvGZfgCelU+UZMTMTjtH/X5y/BNmtwYzsuS6TMeMw4/IdX0khtDSVLWtZmXYkoSpRmXYti37GKLdWKKqrtWOuMxiIxGesf5ce/qbek0lepvzFMURM1TM4jERmem3TdGZ4xuJW9151HsYkSfNRp/jFlNh4xWJc8Jh/2V9yOu8ktNeGlcmWs1Mxlu9ZoiIM2+kzUZ4XxPX3NTXdomr6umuummmIiMREzERnE1TOMTO/yjpor9JfjriXHeI8U0FWumvR2OI66xprVu3ZtxRYtai5atRz27dNyqeSmnM1V1VTvPfDD/ZJJIiSSTIzMiSRERdXdRkRERFufnsXfzMY3TTy1zMRO8d5zGds9dnkWmsexj2sc8TVMxM1VV1TPNv8Aaqnyz08lBdiqY6Y+Ufo5E1TVGJmd/LafnGJfRYrlOQYXkNVlGMWkuovKeW1MgT4ry23G3EGRGhwkns9HdTul+OslNOpM+tCj7idPqtRpNR7SzcmiapiZnlpmOsZxFUTEdZ7ORwzinEvDdF/i3DdVc09+nWc1dc8t/wCriqJmIt36bluIxneIz6wk/wDCrrpH1/0no8yWhqLex96nKK5oyUmHcw0E26tBGZuJYmpIpTBr7qStRFsSdi9L0OpnU6am5cnmubRMxERHypiKfP7+0PoR4D8U6XxZ4d4XxDS3YuXKdPRRr8R11EUREzMdKM1ZqxRFMddojEMlxymbgB5gPC+IzQLAeJXSPLdIdRaxqwosngOoYfUhK5dJdMpU7TZBVuK95mxpp/hTYqkKLc21NmSkrNJhAD4ouG7PeFTWPJ9IdQIDrM2klG7S23huHByfGpB9dTfVz5bNLZfieGUttsiTFme0RUkkmSSkMdwABXc9tvQ/MvT6/r9N/Pb3d9uwDbbyo+P+bwjass4XnVpJ/GL1HmxoOSxniU8xh94o249fl8NCT6Ex2zWuJcpQonH4DSJ60reSp0wm8VVnEuIUWzrpbE6unxWJsGZFcS7GlRZSCejvx3kGaXWXWVtuIcTulZLI0n2MB2QAAANWPNK49qng40ckU+MTWpWt2pMKbU4FWsm287j8Y23GLHNrFsyX4UapJxLdW24277dcuxUE07GjzegIM9xcW+QWtleX1lLuLq4ny7O2tZr7kmXY2U95UidNkyHVLceelyFrfdWtRm46tTit1qNRh1oAA5GkuLdaQy2t11TiEtNNpNbjjilESG0JLupa1GSUpLuajIi8wEzTk6cvVrhs08LXPU6rT+PRqfTMqrq6bHbJ/T/CZXhPRqxnxGkSI93kLaWZ9+a/zVmMuJUrX1NTWQG79KSSWxFsX9S/mAVAAAAAAAAAAAAAAAAAAAAAAAAAAAAAAAAAAABQzJJbmZEReZn2IvrMBjnxT8R+BcK+jOU6xZ8/vXUMU2auobcbbm5LfzUmxT49CQ6pPW9Yy1Nk6fSoosVD85xPhRV7h/P/AOITXvP+JbVvLtYtSLApmRZbPXI9naUs4NJXs9LdXRVTDm6m6yuhNsQmScUbikNG44anHFmYeKf17AAB5mRd9z2IvgZmfSSSPy6jPsSd+o/QgEirkpcvFOf3kHi11hx/xcMxqYf4z1DZtKS3kGRRVrbk5bIiukX9qaJ83W6dPSpibardmGlTsJLroSyUJURnuWyekiIu2++5777diIi2JJFvsXme/mHKAALHN9iMvRW/7xiY7/D/ADBM4pqiIzNUctMec5ifyiWOnFZkEzGuHrVm4grUzKjYbYMtPI2JbS53RXE4nbf5hSjM9vItj38zLh8UuRa0F+uJjMU1dNu8Zx923XttlhH0iXb2m8EcV1FqKqblrT11VYn3qYjGZmYnfy236oq6vPfqNSj+cZ+Zme5mZmXbuZ9/rMeZTcruTNU9K5mrr5znvPr5Q+dtuJ1lc6u7VNVWoqq1EzO+ar0+1nrnO9eevT1WiZxiMTv3XK64z7OOkb/LEf5BCgP3S3PsRd9/gReZ/H+vkYpuRmmKqPsY5tunTM+X4dfVXoqP5zW3OH3vd0tzT13K69sRMU5z3n02jPVuA5TeRzkZDqviZqV8nO11LeE31bkmYxLsIDrh9vJaFILbz32PYy7lmPh6/VdpiInNEROfKJxt1+Xl2+Oxv8MeuqijjvC7N6b+k02primrNXLTNM1YjFWJ8o7w3cDKW3AAAADV3zQOAun4ytH5c/HIEONrbgMZ6w0/ulklhVkwSSescSspfmmvtkpQqO6ZH7FYNMvF7il7BBfu6S3xq4s8fv66XUXdLPlVdtVT2VR51fYQnVMyosmO4RLbdZcSaVEZbGRpUk1IWhSg6sAAPLbY+nuRmZeexGW/T5e/079B+itjPsAlPclLmIHkECDwiayXxHd1rSm9F7yyeM12lcyg5EjCZEtxSfFmwfzV6iNZE7IiNuxukzZSlQSVW1pMuyiPdSuki27lufctt9+rY1b+u/x7AOTctt/Tbfv27APBOJPiG094YtIsn1f1Fsii0mOxHDiw2VIVYXlu8hTVbSVbClEb06fKU2wgvJpCluq+ZsYQAuJviLz/AIptYco1c1CnLkWd3McYq6/xFfJ2OY+0tZVtLWRz/uLEBkybUZ7LflKflLSlb60pDH8i2Ii+BEXw8voLci+0BUBQzIvM9u5F37dzPYv6+hdz7dwG/rkv8vhzWHMYfFDqrUE7ppgdr/6A0NjH6msyzGArrTaONPJJK6bHXGWnEukSkzbFTEc901+6gl8MtE1slKehCEdCUJJJISlJkSCSlOxJ2QlJbEWxERdwHOAAAAAAAAAAAAAAAAAAAAAAAAAAAAAAAAAAAAA6TIMgp8Zo7bIb+fEqaWkgSbK2sbCQ1Ghwa+I0p+TJkvuKJDbCGkLNSlGW5JMi3MyIwgscz7jutOM7Wd+NjsqZE0W08ly6nAaVx1ZM28lp5cWyzSwiGokqsLdBSI9epwjOFWuJ8EidcWsw1k7mfc/MzM/tPf8An+wAAUMyLz7bn0kZmRJ6j8iUe+6UmRKM1ElW22xl7xANhnLj4G7/AI1ta6+mmR7Gv0lxKREt9S8ojt+EliuQ8b0HHYTkhKUKtshejGyylJKdjxPanzJKUl1hPGxLEaDB8bosSxSti0mN45WQqemqITRMxIFbAaQ1EjMNp7IJttBdZ91POLcdcM3F9QD6cAAAFjnkX1/zGKqftf2yoqnFVr1u0x+FU/4eTa2Yd+OHpPqBhiP7rkeK21dFIz22nHEdcgq3P/8AVttKPcy2JPpuOLqrMarSXLU/apnEdd8x6YiMx+M/Ccd8X6C5xXw9xjh1EZm7prtMRETnPLmIxvny6dZRMrSulU9lYVM9pyPNrJkqBMYdQaHGZUR1TTrS0GRGlRKSrzL0P6B5ndt+yuXLf+3crt9f/Cqafj275/F84NdoNRwjVanSVRVFOl1N/TRE7bWbtVrG39mP3iPwC2ojlqoiuP6pmM+e+Z3/AA+ICFTPfbcvItvrF21RzW73T/qcTnp2/CVMXv5ai7rI2xNWnzG29WYx/wDc+ceu77lVacTKvHM71MmxlNNZPOj0VO8olbSodSuRImyGVK2JcdUySlttZEZKNpWxmRdsu8M2OTSV14xiqIjzmJ7+W3fffOezbj6AfC13gfDrnEK6Zpji3NfiZ+1zRNXwnG07bTzejbyMlbJAAAALDQR7+u5/Ey8yIjLcj8jIvIBGM52XL19tbn8YOj9C6ubGaaLWegqo5LS9BbJCGs+aYaSbrj0YlpZyJxBHtFZRLNJ+zOmYRfSP6DI++5GRlsZKUky38j2NJkexnsojL0IzAAAO2or24xm4rMhx+ymU95SzotnU2te8qNOrrCG6l6LMiSG9nGX2HEktCkGXciJXUg1IUEu7l685jTTVnHqbTDidvq/T7VargRYTWb2Zog4hnhskTJSZEzrNmmyB8iQ7KYfbZhSnTdfakNGo2wGynWvj54UtDMOl5Zl2r+I2JFDcfrKHFrqBkWQXjxNqW1GrYFZIfV1PKIkofkuMMJM9zc8twhtcfvMA1D43tQCnSyl4vpVjzziMJwFMg3Go5EtXRdXafmTb50iNXtCy6YpLNMdCdtwGvft22LpLYuxGZlvt7x7n3M1q3Woz7mpSjAAAzIu59i+OxmRH6b7bmSd9iNWx9JH1GWxGAzo4AeC/LeNHW2qw6C1Jr8Cx96Jd6lZKSOlqrx5l5PjV8d1aTaXZXJk7Bhskfiqb8aSRJQz74T2sA0+xXTHDsawTCamHRYvilTCpqerhMpZYYhQWUtM7knbqfc2U/KfURuSpDi3nVGpQD7YAAAAAAAAAAAAAAAAAAAAAAAAAAAAAAAAAAAAAAaCOfhr7facaB4Bo9jdg/Xv60X1ujJn4ryo70jFsObqZcitX4e3XGsbC1htyWyMkqYadaPdDhkYQ/wAz338u57nsRFuo9t1HsXme25+m/kRAKAAD1TRTRzOdfdTcT0n06qX7fKMwtI9ZEQ0y46zCYW6hyXZT1oSZR66Aw2uRMkOKQlDKDQSupwiAT9eDbhSwThB0QxrSjD2WpMyO01ZZfkhspal5VlT7LZWFvJMjUs2kKL2WvacWrwIbLRESVqXuGVxERERF2Ii2L6iAVAAABapJKIiPfse5bHt32Mv5xMTMZx3jE/D9wpqpiqaJnrRVFdP90RMfftMrDZQe3n2+nz7GXf0PYj7fe+Ain3ImmOk9c7zvOZ/fkrneLkYj62MV7dYn8vL4NPPHHwQ2uT29jq5pDWnOtZKn5GWYjEQlEuyeLrcXa1CW0KN+Wo/EOTCJCnpJrU8x1OGTZ45xPgluZrv2aa/aXZqu1e9MxmueaqYjy3naOkZzjtrH9Kv0T1Xreq4pwS1XN7U3b2ru089VyOe9XVdr5aJzjeqcxTtGJjGIaXZ1fPq5UiBZQpkCbEfcjyYs2M5FkMPNKNC2n2HC8Rp1KiMjQ8lhW3dDayMzTh2o0+o0szVcoqqozyxTFM5iZ3idt8Yic59Gq1zh/EOHzXptZpb1q9bqmarlVNUUTTTOOWIxjNWc564js/IZknur5pbqVtvvskt1bnsZbHuWxERrM/IWYuRMZ9jc+U/n2n49Fux/rK/YaaK/b5xvRM9+uMY3/cYiWXHDRwiaia/3sGWdZMx/TxiUhVzlNlHejNSozZkp2JRpebaVPlOF7ilIT4DBGa3JKFkTSu84Vw+9fuTVdomNPc/pjEximrpHNtOcd8+vSJeoeCPoo4v4luTpeKWrlPDrt+L81UxVZmreKomm5TirE+UTHrtukkaf4VQ6d4rQYZjERqvo6Cvar4MVlCCSSWU7KdWpGxeK8s1POntupazM/MZxptLp9HZmzp6ZimZiZmqqapmY6zv+vz6zvBwXhmn4Hw3QcGtW5iNFZi3ZqzM4opiM89U71TMY6zPxmen3AvO4AAAAAHV29XXXFXYVVrDj2FZZQpVfYQJjaHocyDOacjy4splwjQ7HfjvOtPNqI0raWtPSZmQCDfzT+AaXwdaxyMjwqBYSNCdS59jaYdONvrjYpcOuqk22EzZDaVNNKgvPKkY+TpoVLpjaaX4kqFMUQarDLYzLffYzTvttvsZlvt8D23L6AFAABXcy8j+O5dtlEfotJ9ll69KyUnfvsAKPq23IvdI0pPpLqJJ+aSVt1dB/4G/R/wA3YBQ+57n3PuW+xEZkffvsREe3p27AAAA++0u0wzTWbUDFdMtPah+7y/MLeJT08Fgl7ePKcJtUmQ4hKiYhRW1LfmvuETbUVDqlqLYgE+rgZ4PsK4N9DqPTihYiTMplJattQcqaZQmTkmTvMNlKcU6RGs6+EkzhVzJnsiMRuGknHnDAZoEWxEXw7AAAAAAAAAAAAAAAAAAAAAAAAAAAAAAAAAAAAAAAAjW/dEWn9zY4Tw8akxYy3aXFr7N8Ytn0JUaIb+VR8dl1i3TJPQhqSugeabUtRdUg/DT3WRKCKz5Hse5H2MyPsZEZbluR9y3IyUncu6TJRbkZGYAHPGjyJb7EaKy7IkSXm48dplhUlx2Q8sm2m2Y6felOqWZdEdvdx9WzaPeUQCajyi+XxG4XdLmtWNQ6zr1x1Mq40uSzJSansGxaWy27DxuOp1KUt20xrw5d9KRt1rdbipJJMLIw3OoIyIy2294z8zPz7n5+WxmZERdtiLYBeAAAAAAAD862+slERbe8oz6klsr6i/Tb/Ttv9AmmvOaa6No2jOcTG8Z/e/xTEUxExd+uoq+xOKsROfd36RvtHbEvJs00M0m1DdKRmunWKZHKPcjnWFPGdnkRkZbe2E01JIiI/nE+s0mREn6LF7T6e5/Xa9pTnpO/nvtj54/OYY1xPwl4a4rE1azhdq5VXVvMW4iqJ3jmmaZifjtj03fEUXCPw8YzLTPqdIcOTKbUS2nJcF2wNtW+5G2U9yYlJltvslpGx+pCmNJocRH8pRH/ABq8/jj5x+rptH9Gfgvh13+Zs8JtzdzmPdmqfOImnPLPxxvuyDr4UavjNQ4cNEOLHbJqPGYjNMsMtJ8m2m0dKUtp7ERbC9iijlpt2+WmNoiOkRn03/fVmmmt6e3RTZ0ulnR0W6YoozRye7HTGJ9I+PzdgRe8k9jLbf8ASkReW2/9ft27Crlj+rv0xmfy/fzX+aYqiiYmqcZ9pjMdOmfht83KCoAAAAAAHgfEtw94HxQaQZXo3qHAORR5PCc9lsY6UfKWO3sdtfyRkVQ4vs1Z1T7q34ylpUy4nxYz/wCZSFpUEAPic4ctQOFfWDKNINQoCmrOjmunV2bLLrddktC45/azIKdTiC8WDPYUhRpSajiSifhPKJ+O6lIY/gAAAAAAAvbbcdcQ00g3HXFIQ22lJrUtxZ7NoJBbmpS1dkoIjUs+ySMwEx/k38vJPD7p+1xA6s4803rTqLXNvY5BnF7RMwDBZhpkQ2NlpbKPfZI0iPZWaTQUmBDOFWPdMhM9Cg3qJLYtvt+k9i7/AEnttuZdt9wFwAAAAAAAAAAAAAAAAAAAAAAAAAAAAAAAAAAAAAAAPGdetC8A4jNLMr0k1Nqm7fFcqhHHeT7qZVdPZWT9Zc1rykL9ms6qehidCeJKiS+w31EpG6TCFDxc8qzia4YL61k1WHXWqul6JUl2ozzCq1+1cTCekGqMxkFHCS/ZVdi00tDLqUtSI7hsqdacbbUltIYN47olrHltvHocb0r1DubiVIREZr4OH3zj5yXF9CWnOuChtnv3Ut1aEo7ko0mRkQSR+WDyfclwTMaHiB4pa2DCuMfU3PwXSp8mJ70S0ShtMPJMtNKlsInQvBS7Ar0kZtvmTzpkpBEYSXkINO+577n28z2LczItzM9z3M9z7b7kXoAvAAAAAAAAAAAAAAAAAAAAAAABQyM+309+5ke30GXrvsAwM47uA7TTjd07OhyTbH9QMejvrwHUGIw0qypJikreOtnEpKV2eP2DxkU2uW+222pxcuP0SSV4wQk+JvhJ1s4S83lYXq3ikuuQS1qpcohMvy8VyWESulubS26GvZ3yWXdcVw25bJ7ktgtjMBjP8D9DLcjLuX1GZdiV/wA0z6i8zIi2AAAA+ruffYvjsW+25+6R/wDWMiPy33AdlUU9rkFlDp6GtnXdrYvtRoNdUxH7CdLkPOIabjx4sVDr7r63HEpS0hCj2M1qNKEmoglG8sLk8ysOtKHX/iupIi8ghLhXGB6STmmZTNJYIU27EyDNWzJSH7ONtHcq6M1OM18ln2uT1O9ccgkpMskyRJTsSSLYiLfbftue3p5FsRdiLZKSSlJEA5wAAAAAAAAAAAAAAAAAAAAAAAAAAAAAAAAAAAAAAAAFDIlFsf8AXY9y/f8AvfHsA4lMNrSpCyNaF7EpK9lEZepH1EZnv67me2xEnpIgH5Gairjr8SPXw47nV1G4xFYacP8A6y220rV8d1Gat/UB+1LaEnuRHuW+25mZFv5kRb7EX1EQDkAAAAAAAAAAAAAAAAAAAAAAAAAAFppIz33PyIvT0Pf4faA881J0m041fxidh+puH0Wa45PbND9Zf17E5lJ7GSXYy1o8eHJbJR+HKiusyU+fimA0N6/fc/ulOVTbK70B1LstNpElbj0TE8oiOZDjMdSj6vZ4lkytN3Gj9Rnsl4p5o3SRKJJbANXeb8jbjlxaa61RUWE53BQpRNzcfy6BGdcQkz2WcG5OvkNdXb3V+99YD4St5MnMAsZKWFaT1Vck1pR7RaZlRRo2yj26jcYelrIkl3VsyvbY9urzAZu6O/c9+qlq9Fn64au4vh8AnW3H6bDYknJbc209KltpsJiINW2s+6OtTbiUnsZIUW+wb4OFXl28MXCXCZk6e4QzaZkbaEy8+yw27vKHVkgkuHCkSErj07TiupRs1TUdPvGRrVuZAM6PDT28+3T5e6W6TIyP3dvUiI9tiUXuqI09gF4AAAAAAAAAAAAAAAAAAAAAAAAAAAAAAAAAAAAAAAAAAAAAAAAAAAAAAAAAAAAAAAAAAAAAAAAAAAAChpSfmkj3LY9yI9y+H1fR5AKdKT23Snt5di7beW3w2+gBXYj37F37H28/rACIi8iIvq+kAIiLsRERfAi2AVAAAAAAAAAAAAAAAAAAAAAAAAAAAAAAAAAAAAAAAAAAAAAAAAAAAAAAAAAAAAAAAAAAAAAAAAAAAAAAAAAAAAAAAAAAAAAAAAAAAAAAAAAAAAAAAAAAAAAAAAAAAAAAAAAAAAAAAAAAAAAAAAAAAAAAAAAAAAAAAAAAAAAAAAAAAAAAAAAAAAAAAAAAAAAAAAAAAAAAAAAAAAAAAAAAAAAAAAAAAAAAAAAAAAAAAAAAAAAAAAAAAAAAAAAAAAAAAAAAAAAAAAAAAAAAAAAAAAAAAAAAAAAAAAAAAAAAAAAAAAAAAAAAAAAAABYayLffyLfc909tj27+9v8AT5di89j3IgJWSj2Lfy39PL6yMyAXgAAAtNW3oZ/DbbufwLcyLf69i+kAJW5b7GR/Dtv+8Zl39O/f0AXAAAA4ycSZmR7pP032PcviXSatvqPY/oAX9ST9f5vwgG5fEvtIBaay+Bn9BF3L73r97cBcR7/EvrLY/r2PuAqAoZkktz+gvMi8z2LzMi8z+PfyLuAs8QtzIyUXYz3909yI9tyIlGrYz7F7u/xIgF5GR9y/f7AKgAAA4zcIt+yuxmX6XbsZEffq2I+5GRGZGZeRGZbAKpcJR7ER+RmR7djIjIvMt9vPsStjMtzItiMBeAAKGZF5gOM3kJLc+rp2I9yLctzMy6e25kfb1Ii+nzAchGSiIy8j7gKgAAAAAAAAAAAAAAAAAAAAAAAAAAAAAAAAAAAAAAAAAAAALVKJJkXx8i+J9/XyLyMz3ARvOYrzidVOHTiTutFdDajBLqnwuoro2Xz8mhy7OSrM5qHbKXBiLiWcNMSJV1r9ewpHQp12d7Uk19HS2gM9OVdx5XXG9pjmszUCPRVuqOn2SIhXsDHmX4VbKx66aORj1sxXyZUt6OpTkSxr3zN5SXnYftCCbbkNoINqIAAANIHNk5iOt3BFmekdLpVVYXZV+cYvkFtb/ipqJdk81LrLViEwUVUaxgk2ytp/d1CycNS0JNJp94jDPTgF11zHiW4WtNNaM9YqIuVZgzeO2TFFEXBq2vk6+sKphEaO69IdSnwIba19b7h+KpRpNKdkkGZYAAANUHNa41NVuCfTjTPMdKa/FrKyy3N52O2bOV10qyjohRqB2wbciJizYa2H/GSROKI3CW2Rp6Oo9wGjJXP64xlbf+i+kJHtuaU43bmaN+xJX/b1DhLLYzMnGW+xp6er3tgFz9uMk+5YtpKZfEsYuz//AN4B2VZ90A8W8WQ29ZYDpDbQ0KSbzBUd/CRtvstsn42QdO+xn0F1Gal7JIjUZEYbEeHLn9aKZ3YRMb18wC00ds5C2205RTz15Vhuy1obVKsWjiRL6hiIU42txZxbhmMhajkyWUNk44G+jG8ooswoqvJsWuKzIaC7hsWNPdU8tmwrLKBIQTjMqJMjuLjvsuEe/W06skkZdXfciDvz+afp2+k9vs79vo+sBGA4xecNxN6AcWerGiWIUOmUnFsMyqop6qXb0M2TbORJlTSz3VS5LNvHJ17xbB5JKSyjZBI93q3UoJNlHIXLpquW4e7suBElOn723iyI7brnSSjM0p61K6Ul2SXYuwDtQAAARfeLHnC8TmiXFxqfoVidFppLxXEdQImM1Uy3x+wmWxV0n5NWtUmUm5ZbcfSqUtSelhCE9KSJGxbAJNlHJdnVFXOf28aZWQJb3TuSPFkxWnnOhJmrpR1rPpSR7JLsQDtgAB1F9aV9HTWV3ayW4dZTwpNnYS3fmRocFlciS8o90mRIZbWZqJSektz32IyMIjupHPy4kGNQ8wY06xPTAsCYya2i4t8rUs6ZbOUkab4EB6dLZuGGX50iIyuS84lhCW1OIJKUkRkYSceFbXqn4ldAtNdZqVcfozDHocq1iR9zKqv2Eoi3lW4k3XVtriWLUkkJWo1ezqYUZq33UGRAAAAAAAAAAAAAAAAAAAAAAAAAAAAAAAAAAAAAAAAAAAAADHnin1vpuHLQbU3WS7WhTGFYtOnV0JbpNHa30lJwKCpbPzUuxtpUSKRl7yDcJRbI61JCFxwM8L2T8xriS1Kk51a2TyFY1neo2b5THcUypeZZNHtkYsl5xXUtr2jL5rE84Kd2nqqtlRD6W9yIOz5cmueQ8EvHTT0eZyX6KhtckstEtWoEl1bcWMzMt2oLM+V1KJvxMayOHXz35LiVeBGbsGWVeA8k1hO0YNRo94zNW+xnuRkZkRErp29CWSi79+x+mwDmAAEUz7op/PM4bfpwnLUn9KTv4xmX1GZF9gDb5yez35fOgxn3P2LK/wCWN4A2bgAAAjv/AHQ/30K0LL46sWZfbij2/wC8A+V5H3DroVq7wv5nf6n6R4Hn13E1UtYUe1yjHa21nsxPkWnd9mRKlsrd8EnVLWTfUaUqUoyIjUe4bnT4HOD8+58NGj/7i6X/AOQA6LIOX5wWZLXv19rwzaVLZeQbajh4zDrZDZL91TjEqEuK+w4kve8Rp1LhbdjV81QaReP3kjYtjWF5Pq/wmvW8STjcCRdW+kVrLl3LFhBhMLclScPspC1zmJ0RBqkprZ77seTHZcjsdK1ml0PFuRxxlZBhOrX+pVzi5mSsG1BRPdwJmyfWr8TGY17Kn11UJta1Nxod423LZcjNpQgrRUZCi8Js1kEutXzT/r6gIDfM2M/yRniHLfy1Dxvb7+KYgo+/n5qUf1mfxATzMb/2vUX+J63+BsgO6AAABAc5ixmfMj12Lc9vx5Krt/8AtpAE8XGe2P0RenyLV/vQo5F9hAO+ADAaYudVxTvaE8MEjTjHZ/gZvrs7IxWObLpolwsTYYZeymewkj62/amlsUzSk9JtrnPvF2QrYI52k3L9yTUvgM1k4sozc1d1hOTMliVUwTiWLXDsdbkt53anH3P2j2N6dBVEUj3lNU9m2aSVI2MNmHIA4nEV17n/AAt5Nam0xeJXnmnbEt3bezhkhrJaeGRqUlJyYTJW6WEkRGcWWotzUYCU6RkfkZH9R/Hy/Af2AKgAAAAAAAAAAAAAAAAAAAAAAAAAAAAAAAAAAAAAAAAAC1SiSRGfqexeXwM/Uy9CM/qIBFu+6BeKBUyy0+4UsYtDJquaY1I1JjxniL+zJCJMTDqex6VEXQ3FcmXi4q1mfU9VyVIT4aDMNinJo4YWtAuE2ly+1qSiZ9rc7Hzy9kSWFMT2sYWytnDKc1GXWhuPWKlXBILZKpF2az3Lo6Q0s89rhkRpTxD0+veNVxw8W1vh+LfLjNeFDh6j47GiM2KzWXS2zKvahusszJs/EelR7GX7xE8ogkB8q3ica4mOEDArm1tflHPNPUnpnnxvOddg7b4zDjfJdxNSpRuqXkGOOVtqqSvtJlLm+8p1twiDZEAAIpn3RT+eZw2/sKy3+PowDb5ye/73zoN+ssr/AJY3gDZuAAACPD90OfnGaE/tsWf8lHgH3/3P1+hJzv8Abds/4hpgG98AAfnktNPNKbeQlxlxK23kLSlaFsuJNLrS0q3JTbqfcWkyPqI9tjAQJa2FH0x5o0atxNHscPHOK1MOqbiKNomWHs2XEVGZNs9ksezSXGSbTskySpJAJ8Cvmn978JAIDXM2/vjXER+2Hjf8k8OATzcb/wBr1F/iet/gbIDugAAAQHOYqk/ySTXf9uOqV97ppAE8XGf9gKL/ABLWfwKOA74BYa0+8Rn07EZmZ7bERbe8Zn227+vwP4AIMHMP1pybjo47pGG4VJctqCqyaq0Z0uiQlKfZU2zclBsLVLbXdxyxv5EywkPJbSa69LLK1m02kyCY9ofoBhuj3D9hWgdXWRXsUx7CIeKWkR1CHGLk5NcUe/lTEKSZSV2z8ibIkOObrdceI1GZJAQmdYMWzDlxcfk1+oZkwk6ZahQstw1/d5hNzgFpIZktR+sj6ZUWZSPWFO+oi6SeKR1JM0GkwnT6V6iY9qzp7hupOKS25uPZvjtbkVY+0pKyKPYx25BMrUkzJLjDq3mVoPulbSyMiMtgHoYAAAAAAAAAAAAAAAAAAAAAAAAAAAAAAAAAAAAAAAAAA+D1P1Ax3SnT3MNSMsms1+OYRj1rklvLfWSENQ6qG9KdJJn2U874ZMsN/OddcQ0n3lkAgzaG4plHMh5hsOXlDEufC1H1Dn5tm61GtaaPAKRRzHYKnEn0xWI9HBiYyhRF0+0OxmU/mi2wE8eFXxa+HFgQGGoUGFGjxIUOM0hhmJGjMkxHjsNNkSGmWGUNNMtISSGm2ktpLpAYOcx3hlZ4peEzUrT+NBTYZhTwFZzp8omkqlNZjjEeVMixoZ7GtLl3AXYY+bSD2cRZkhXuluQRmeSdxLfjEcVb2lGV2a6vENdWGsNlMyl+HFhahVCpzmKvykvKJLD9jIcsMe6i6Fe2WsNt4iSySUhNVR8xO++/Snffz8i8/pAXAIpn3RT+eZw2/sKy3+PowDb5ye/73zoN+ssr/ljeANm4AAAI8P3Q5+cZoT+2xZ/yUeAff/c/X6EnO/23bP8AiGmAb3wFFHsW/wBXmexdz27n/U/hufYBjTxT8T+nfCnpDk2qWoNrEhFW1038TlIuTGRaZVfpjOKrqaojOOdTzsmQlvxXduiJH65Ekm20bqCHFy58Ayjiy5heHZdYRnXmoed2ms+eSyJa2a2LAmyLhtt9zYiT7RbyIldEUrbrkmZmXQglAJ2Svm/Z+EgEBLmhSPZOYdxIy+jrKNnlA+ZdXSWzWHYi6fUokrURGSDSRpQrZRlv23Abaa37oiKvrq+AfDS6s4UKLFNf4tyLqOOw20ajSdSRp6jQaiSe5kky3PfcB+38sWp/Uzu/u4T/AKKAPyxan9TO7+7hP+igD8sWp/Uzu/u4T/ooBob111u/1R3FPlWtqaH8TP44modTdFQ+2FYnWfm1Sz7MqWltkn1dMZ91SkoLwkeH4hErqIB/Q/xn/YCi/wAS1n8CjgO+Aa4OaTxLp4ZeEbUK+rLNNdm2cMO6e4P4aiKWi0yKNJZnW0ZHUlalUlSmZNU42fU06cYiMnHEbhoc5D/DGepuueU8R2UQVyqLSNtyuxuRLI3mZWoGQsOFKkk6tJpkyKWikPLJSlmqNKsobyd3WzNIS/0J6U9PYiLskiLYiIuxFt++Ajsc/ThhkZhp1hnExjVUb1pppJTi2cPxmyJxWIWzprqrKURJM3WK27mKgmtXvNHZtGWyUdg7DkH8ULGYaSZVw1ZFPWeSaYyfxR4i1IWSnJ2G3bq/b4sUzUa3fkO1SlTjaS2aZtYxJLbqIgkMJPqLft976e5fvGR9/iAuAAAAAAAAAAAAAAAAAAAAAAAAAAAAAAAAAAAAAAABRXkf1H5ef3t/X4AI9nPu4omMJ0exnhrx+xP8Umq0tGR5WyyszVDwXHpHUww+SDSfTe3PgEolH7sStlHsojAYV8mfXPg94WsY1I1J1v1fxnFtUM2lxsYqqWVCup1pUYbUJZsZDjrtfXSWY67+18OStknPEWxU9bhETqDMN5aebPy/SSRHxF42ZkREZ/JWRluZFsZ7KpzUX1KMzLyMzMBRXNl5frhEkuIzGi3UnudVkvbvtuRt1CVF0me5nv8ANJXrsAiFcdtxpFB4wMx1J4Yc5qskwjKLuFqnjlhj0edWoxvKLJ/5Wtq1xiXFhrZeqsghP2jSYzKWjrZzTcdSXmt0hNi4K+I2o4puGzS3WCrdT7fd0Masy6H1pUuszSi2qsphKIveJPytHdfibl78CXFd3PvuGWICKZ90U/nmcNv7Cst/j6MA2+cnv+986DfrLK/5Y3gDZuAAACO/90PmZaE6FmRbn+OvadJfFR4o8Sdz9C323P0Lc/QBo94SeZzxA8Gun9rpvpVBwSVQ3GRSMmkuZHSyrSYU6TGjw1pafamR0FHJMQibT0GfY9z8jMMqfyfTjQ/4I0k/clO/0oA+cyTnpcdOQRFwKqZpzjS3N0HLpsK9qnJM/LwVTbF0kqSZb9So60EnqNaekjAY0UumHHlzH9QYkidA1F1UmuvdH4q8wKdCwPG4Thm08bNjLQ3Q1TLTa1klmrQuYuOh+OzEkJWokBLY5eHADiPA7prJhKmN5RqrmSI8nUPMPC2bfeZI/ApKRKk+NGo4Ct1I8TpXLeSqS62yakstBsZV83t5dvwkAgK8zxluRzFuIll1KFNOah4826lex9bbmGYo2ttJeM0vqWlXuqR1mlREZkAlGUXJ14A5lLUTHtFlG9LrIEl4yy3IU7uyIrTzhmn2s+kzWtXu7nt5b9gHa/kNvL//AORVf7rsh/zoA/IbeX//AMiq/wB12Q/50AfkNnL/ANyP8ZdZER9y/FbkJ7/bK+3uQCJVxi6aYZo3xx6m6Y6fVK6PC8M1SqqbHaj2uRNTDg/2kkkTcmWZuPqU8+8p4yUa2kMkhSnO/UH9ALGf9gKL/EtZ/Ao4DvFK6fh9G/by89z+Hl8T+gBCt533FAnWrihVpZjlqUzCtCoz+Nq8FxxcORnUnw38nfLwyWlxyvcSmmV0NOLUqFs0Zmr3g218BHGby9eE/hl070qf1/xWPk7Vcq9zl9qoyElycxuVIm26X3EVCm1qr/GYq2lbmo24XZRpLYgzN/JaOX5+qLxv/wALyL/Q4DzbVvmOcuHWHTbOtMMn4hMZkUWdY1a47NbcqciJKG7GKhtt9JrplI8SLIS3NZX26HEJcL3kJMgil8IuuzPB5xj4tndHfw8kw3HszdxbI7irW98n5HgdrZuV820ityG476WVVyPlmOhTWxKjH4m+zewf0AqK1g3tRXXVXIRLrbaDDsq+U2oltyYc2M1JjvoURn7i2nUkku23SfnvuYduAAAAAAAAAAAAAAAAAAAAAAAAAAAAAAAAAAAAAAADrLi2rqOps7q1lNQqypgS7GwmPK6WYsOEw5Ikvur8koZaaWtR79iL4mQCBnr7mGbcynj4sImEJVILUXNomC6dpkk65HpsIrHFQYFtMbbLqaitV0ORkVoSPASn2iWtS0+8RhshL7nW1RUW5cReCke57kvE8gcMj3M+ynZq1mnYyNBH0dKTJPhpMj3Cv5XU1S/VGYF+4+8/zkA/K6mqX6ozAv3H3n+cgPHdf+RRrFono7n+qtXqvi+ocjAaJ3J5WJU+P3VdYWNTXutOXEiG85KUz41RVlMuVNKaU5IRAJlhLrppbAeo8gfijRiupGb8LeUzDbrNQmCzTAVyHiS3Fy2hjKYv6hppZl799TFGnNm2lJKk0by1ESpbJOhLMJRH5fvkZehH6/QZAIp33RT+eZw2/sKy3+PowDb7yey25fOgv6yyv+WF2f8AOA2bAAAAjv8A3Q+RnoToYSfM9VbYi38jM8SfIiP4EfkZ+ZF3LuA6XkdaB6Kap8L+aXmomlWBZrbRNU7SBFs8lxyvt5jEEqmskNxGZM1hx1MZtbyzQ37uxmrt5AN0R8GnCmfc+HjSD9w9J/mgDuKbhU4a8efTJptCNKa+SjuiQzg+PqeSZbkRocehOqSe3bfz2My3Ae31lTW00VEKqr4VZDaSlDUSBEjwo7aU79JIYjIbaSREfYkoLYB2IC1fzT+9+EgEBrmbf3xriI/bDxv+SeHAJ5uN/wC16i/xPW/wNkB3QAAAIDfMV/vkmu37clV//WkATxsZ/wBgKL/EtZ/Ao4DG7jW4hKjhf4cdTdXbKU0zPp8dl1+JRnFpSuxzG3bcg4/FaSZ9ThtznW5rxII+iHFkuqMiRuAhVcF/BnqdzC9Xc4qafJIuPIgwJuZ5fnOQRJtpDasrizfKLCfKNu85Z28pc6QylKvDU1XSCWtDbZqINo/5XU1S/VGYF+4+8/zkA/K6mqX6ozAv3H3n+cgH5XU1R9eIvAjL1IsPvO/0f/ik+f1l9ZeYDA7js5WepfA5hmJ59cZzSah4xkVy/jk2dSVEysOhnriKfgnZLmOOOmmwT1MR3EOKbbdR0molbEAkP8lbilVrtwtRdP8AI7L2vOtD5EfE5hPr3mzsVkNFJxayWlX5qskRlqrFuLM1E5ESlW3YBuPLv3+IAAAAAAAAAAAAAAAAAAAAAAAAAAAAAAAAAAAAAAANNfOm4pHNCOFqwwChmnGzfXORKwytNl9LcuDizTbTuWWbXhmbndlbVQ0aVNOePYLWgzJjodDXbyAuF524yjPuKrIoSEV+PIk4Hp8brBES72yaakZVaRFdR7sw65yJWtqStxB+3yW0LMiUZhKlItvh5+hbfb57nt6+oCoAA6+zrYlvBm1s9pMmDYQ34MyM4lKm5EaShTbzKyMjJTbzalNuoUSkLQfSZbGojCBDxM6cZvy8OPG2LFXHIbuAZ9D1H0xmo6kMWeGWk5NxTQnXj6yWhNc+WM3BJ6mjkxZzCiQkgE5TQ7VfH9ctKNP9W8WebepM9xWqyKJ0n1KjLnRm3JcB0y2SiRXTDfgyU7GZPsLQfSaDSQRpvuir88zhvP8AwcJys/r3yCMn+fcB8vwTc57TjhZ4atOtD7vRzLsos8KZtWJd5XZDT18CUdtdzbRpbTMuOt5CWm5fhOe8vZaCPt17JDK38sSaQ/qfM8/dfjn+aALT+6JNIvTh8zv7+XY//wDDDV/MA3C8HfFPScYGidVrVj+LWWIVtpcXVQimtp8WwmNrpZCWHH/aIjbbS23+rqQRIJSTI0nv84BqL+6Hj20L0KP/AKWLP+SjwD777n4PfhIzs/8ApetP4hpgG+EAAAABRXdJ/wBfLuAgNczYv/WMcRB/9ImNl/8AxLDgE8zG/wDa9Rf4nrf4GyA7oAAAEBzmLbFzI9dz33/146o/v9NJ28wE8TGzJOPUKjMiI6aqLue3nDZIvrPt2L1M9gEU7n7cUzWX6hYRww41N8Ss0/ZbyzPCYeJbbuY2zJKpqtRI2PqpKk25UlThdBpuXiQROxVIcDbPydOF53h54Tcdv8grSg57rM5G1CyMnmfCmRqmdG2xKrkJV+aNrh05tSnY69vBnWMtG25KccDbSAAB9yP0+n4AMW+Mrh5qOJ3hy1O0is22jl31BKk43LWg1KrcqrGnJVBPaMlEaFtTENNKWXk2tZ7GW6TCHnyw9frnhB41KbHsseXTY1llvP0n1IhSlGy1Fku2q4tfYSyc26Xqq7ZT1LUSTSy84olISXSsJ1rZ7oSe5HuW+5HuR7nvuk/8E/NPmW22xmXcwvAAAAAAAAAAAAAAAAAAAAAAAAAAAAAAAAAAAAAAGAfFXy6eH/jFzCnzPWcs3sp+O0vyDSwafL7CkqIEM5a5j7zECGjwjmynlmUiSovHNCW0k70tNEgMj+H7QXTvhq0xx/SLS2sfq8OxtMw4LMqU5MmPPz5SpcqVNluESpL7riyQhZls0yyhhokNISgg9tAAAAAYIcV/Lv4b+MfI8cyzWOjvZOQYtUyaStn47fTMfkPVkiYc04s1UMv7IQzKNS2FupWpKlrJKibcWkw9u4a+HPBOFrTaFpNppJyJzDa2fY2VXEyS7k3smuO0f9plxIkqUknWoJSVOPNRzUaG1uum0htKlEA8f4tOADh/4zLjEbzWeBkkybhddMqqVVFkc2jbREsJRS5CX0RS6XleOlCycXupJIShJEk1EsMQy5FnAiXlSaj77ERqRqDdo3JJdJF7pfNURbqTuaVn7yuo+4C78gt4Ev8AgPUf/wAwbr/JAPyCzgTPyo9Rj2+OoFx/8TZ/vANjPDhw46c8LWmUHSXSyPaxMRr7KztIzNvZyLaYUu2cS7LNyXISTiiUtJGzuZdO5pSRJ8w+M4r+DjR3jKxnGcT1kiXkuqxS8ev6pFFeS6N9qxfgLr3HHnoiHDebNhR9LThEhOxKMiPcwHb8K3CdpNwgYNa6eaPRbmJjlvfPZHLZu7qRdyE2UiMzEc8KTKLxkskzGZSlJrMlGRqJKT6jWGTwAAAAC1W/Se3mexeXV5nt5blv9PfyAavNY+Uhwj656tZZrRnVVm7+Z5jaxLm6frsysoNeqbBiQIDK2YDCSaaR7JWxWjbbU2kySpw93VKWoNnUCM3ChRYbRrNqJHZitdfdfhsNIaR1KJKSUZpQRmokkRmZ7ERdiD9YAAANW2rXKP4SdZdXcq1rzKrzZ7N8uyJnJbaRBzGyg152TBRib9ngtkthpkihtmtokF1KWaUmW5bBs1jRm4cOJCZNaWYjDEdojWrfwmWCZb3cSaF/MSajWojM1EaiQXSnYNXWc8nzhE1J1RutXs2h6gZHmGR5UrLLqROzi1OLOsHZyZqoy4SUpYOsSokst1zZNR24hEy0lDajQA2mwIcWBChQobKGIkKLHixWGy6WmY8dltlhptBe6SG220JQRFskkltsA/YAAADjd+Zv8DI/Lfbb123Tv9W+3xAastWeUFwd6xan5Pq3kdDltZlmWWqb61XjuXWdRXKtyJrqnxoEdCWI0hx1lD7iY6iQ8+SnHEmpbilhs0xiiYxjHKPG4sqfOi0NVBqIsu0lKm2MiNXRm4jDs6YtKVyZSmmkG++4RuOOdS1qWszWoO9AAAAAAAAAAAAAAAAAAAAAAAAAAAAAAAAAAAAAAAAAAAAAAAAAAAAAAAAAAAAAAAAAAAAAAAAAAAAAAAAAAAAAAAAAAAAAAAAAAAAAAAAAAAAAAAAAAABQz2Lf+u5nsRffMBwk+n3SPpJavJBLIzP47EokqMk/pz6SNJ9tj8wHMk9y37b+RkRmexl2Mu5Ef2kX1AKgAAA4DkISaiUZJNHztzIti8+o99u23fcuovpAciVko9vXbq8yPdPbYy28yPfzAXgOJbyW+6zSlPf3lqJBGZb9iM+xn2+jzAEOdalERERJ7H75KMj7bEZJ3IjMjMzI1bl27HuewcoAAALFLJPn2L4mexbmexFufbcz7ERmW59gFiXSUZp23Uk9ldJ9RJUfkkz2IyP49SS2Pt37GYcwAAAOFTxI26ulO/cupXSXw941JTt72xbERn3IzIgFSd379Pu7EZK37Hvvv36STtsW5H1GfluSdy3C/q7EexmR9yMu5GXof3y7gK7l9P2H/QAbl9P2H/QAbl9P2H/QAGrb0P7D/oAUSrq9DIy+zv5d/Iz22My9NwFwDj6++xl67dj9fXYj6TMiLbuReuxb+YC4lEfoovrIy+34f19AFwAAAAChnsRn8CM/Pb9/0+sBb17mfYz2+Gx/gP7CLfcBTxUmZF33Mt9tveP6k+fx+G2wC8u5Ee230fABUAAcSnSSexltuokkZmREZmZF6mW/cy7J6leZ9PbuHJuX0/Yf9ABuX0/Yf9ABuX0/Yf8AQAtW4lCTUo+ki23NXupLcyIjNStiItz7n9hGfYAQvrLf3dvilXURnue+x7ERl5GR+Z7nuRbFuF4AAAAAAAAAAAAAAAAAAAAAAAPj9Qaa6yHBstpMbu5eN5FZ49axKC/g+CcununYbpVViwmQ0+wtcWd4DpoeZcbcSk0KQolGQCJRwr8zLi4wbjUxPSzia1Wu8jwlvPLLS7MqS6g0sNuvspE1yig2jrkeuhONfJ9q2w8pxSyS5FcStXV1OdQTAmVKU0hSjSozLfdPzT+lPdW6T/Snue6djAcoAA/HOmR4MWVMlPpjRokd6TIfWaCQwyw0p111w1bkSW20ms9+2yTM+wCH07zFuNDiT45nNK9C9ZchxfT3PNXE4ziFJT1lE9GqMOrZbMedaE9KqJL6kKq623vluvPOKNt5JdXhJbSkJf8AVx3IkSJHdkvTHWIcZh2XIMjkS3WW0tuSJGxEXjuqT4ruxEROOqQRESUkQdkA0Q853j3zbhkpdOtMND8zcxPVXKpz+VZFbwGociXS4dXGUOujuomMymUuX1mt7ZHg+OmNAJaTSiUklBiBymuZ/rbqRxI/jOcSOosrNKvUqkXDwaxt41XFcostqz9tjQ23a+FCb8DIoCJ8SQw71qRYQoBtEg3XjWEppBmZd99/p8zLYjIz2Ii3Mu5kXYjMyLyAXgADQhztOK/X7hi/GBXodqLaYErLXczRkPybDrZXykmsKl9hJ9VhDl9CY/tkkyS10Eo3OpfV0o6Q8X5SXNVzTVLPZ+gPFHnHy5lGXyjs9K86uI1fAcmWBMJRMwGY5CYiwf7M8F+wx194m5C5zc6sefcORVQyCSuAAKH5H9QCKBzX+PPiy4f+MLKtN9I9Y73DMMhYjhNjEooMCkfjszLOnblTpCHJlXLf6pD6lLUSnVJLc0JSls+kwlB6d2M2208wW3snlSrGzw7G7SwmOkneVOmUcSXKkLMulKFOyHFOKPpJJGeyU9PukESbjF46uYhp/wAUWt+G6a5/qjAwXHc8tK3GYdbhTM6BGrGkMG21Flu466uQylanOlxTjhqPczWv5xhjX+SLc0jv/rl6vfNVt/rfMfO6T6d9sXPYurbdRl0pL3lmSSMyD5u35pHMboJCYV7rjndLNW0h9MW3x2jrZJMO+6h32WbjzD5tqUlXhyTSmMe/ZT36QPoGeY7zQZLLUiNqhqzIjvNodZkMYDGcZfaWklIdadTjKkOtrSZKS60ZtOEfW2fQaQHJ+SL80cu56lau7EZGZnp6wZEkj7q2LGkn7pbq+d6eR+RhKd5X2purOrvCPh2ca2293eah2N3lDFpPyCCmssTiw7RTNe2uEUGtNpBR9jQfsqSVuZm4tW5gNhoDTdzieN/KeE7RzF8Z0pv/AJB1g1RvvDqLdhMZ+bjOKUJlLurtmPJZkR3VzpCIdBH9qYeSXynMfb6H4kd1oNWHLP5qmv2U8VOHad8SOrM/K8H1HZmYlVuXUWnhw6nMZqEvY5JN+FXw3EfKEyOVN7zvh+JYNGaNzI0hLdbPqT8djPY/Q0+adj8j90y3Mu2+5egC8AAfnfdNklOGoktpRuozLskiPdSjVv2JKCNRmokoSRGpStiPYNO/GVzl9AeGa0sMEwOOet2p8E32LGtxywYbw7GpyPcTCvsnaKR7TPQslLkVdFGspDCW3US34bySYMNE2oPOb5gGsV27H06soGBwluL9jxzTPCo95NZaNRkhXyhbx7zIH3CQokKWakIW4ojaiI6UkkPjVce3NhxRJXVlm2uMaGezyX8g05UqsNHzyUorDFSj9Bp7KJ9LCNtz3ItwGWOgnP8AteMQkxafiB07xzU2mbeaZmX2PtNYbmMVrpJLri4UUnsfsVoURmlDFfDJzvtKXuRgJHPCtxnaEcYWJtZRpBl8eZNjR21ZHg9t7NXZtikxwj6o11TJlSTXHSrtGtqt+fSzSI1Q7OSZOtshliA0x86XiN1n4aNEtLcs0QzmxwO/vdUnKO4n10evkuT6r8StlM9icRPhzWybKSw08SkoQ4ladicSlRkYR3ajmY8zG/iHPo9XtTLiD4qmfbanEKi0hk8j57XtVdjsqN4qf0zPtHjI/wB0bLYwHafki/NI/wCUrV7/AMvo/wD9MAH5IvzSP+UrV7/y+j//AEwAormK80dSVEeperxEZHuf437JbdvinF1KL6yL75eZBNF4eLvIsl0O0myDLX5kvKLrTvEbTIJk9pLEuTbzqeNJnuyGEoaJl1T7i1LbNlroNRI6SJJJSHswAAAAAAAAAAAAAAAAAAAAAAALHPmK7blt3+gvVRdj3NJbqItu5lsXmAho89Dh3LSfibqNaMdgnCoNaa5VlLfikplDWc46ymNcqJSCJMZ6dFKFPbeIzMn2fdIz3ASVOXjxDp4meEnSjUmZOKwyZmoTiWbum4S3izDF1JqrR2UZ7KKRYIbi226ySbrdi06RbOJMBm6AANXfN24i18PXBxnblVafJuX6npPTTF1tLJMxpV/Gf+XbKGZmRpdrceYs1NqT1dMmRHMyLcjMNR/3Pzw4N3eaakcTGQVhusYhG/EDhL0lBuIavbdhmVfWcNakl1LYplsV7jidyJ6wndzMj2CVoA6a+uq7Ham0vriS1Cqqaul2ljNeUlDUaHBaXKfecWoySlLTTS3DMz2IiM1bEW4CDjdO5DzSeZWTNSmT+JfO85ZZjOSDX/aDR3DluPS3XUERoQ4vHKyU4jq2S9cWcdpW3ip3Dk5jfD/P4CeNmPkelzS8ew6ztKPVzSJUFPgIpVw5MZ61x+Ghsu3yDdw5LEVlKlKOlerGlp6kKATJuGHXCl4itB9NNY6ZTKWs0xqDYWMVg+pFdfMtIj5BXdjUaShWzUpltKj6/AJpSu5mYD30AARi/uiz5nC/+uM//BjoCPzkWi2pulGmWhnETHN1rFNVPluywrJ6h19EujyrBcxusfm1UpxCTfg2zLtI1aQfBWTc2vlE6gjNh9LYTIuVhx61/GHpA1SZfPhsa46bQolZnUEldC7+GZFFrcvgoUsycbskRiKzSkuqNNIlGZsyG1qDauRkf3vTyP1+P1AKgIQvPD/R+Zp+wPAP4iaATN9JPzq9Nf2AYd/J+AA+8VGjKM1KjsKUo9zUppszMz8zMzTuZn8TAWnEi7H/AGNH8j/3Fv4f9UBDH59KG2uNurJCENoLSLDTUSEklOxWF7uZkkiL94BK44UI0ZXDLoGpUdhSj0kwMzUppszM/wATkDczM07mf0gMgfZIn+9Y/wD2Lf8AkgOZCENp6W0JQku/ShJJT38+ySIu4Cx19llDjjriG0NJNbilHsSEpT1KUo/QiT3M/ht8SAQcOMPUjI+Y7zGGsKxCQqTjLuaV+j+mqWkmpiLi1BNlx7u/WlJGT7ltMXfZGp4uya9UNgt0wFGQdrzXuD5ngy19wfI9Lq1VFpxlOP0FpiMuvb9nRV5fhDURq2bUTe6WJ8ubFh3JOKWRbzZLrXWtnoIJYHAtxJU/FNwwaXasxZbK7qdSt0Oaw0qT4tZm+OJKryKI+hJmbXtEqMdrCS50rcrJ0R/p2WewZfgLFmSSI99veSRefvHv2T2I/Py8gEcHnMcye303cm8KWhd+/VZfNr2fx2cxqX/Bm0NbaMNrYw+omtmZxbKzrZKpN5NbM3YVc8zAQpt+bLKMGHHLZ5Ps/iJq6rXPiPct6DSqyJM3GcLhvPQMmzptb3iFa2M9zZ+px6QZbt9KTsLOO6XQ63FXsAlQ6P8AD/o5oPj8fFtJNM8OwKljNIZU3QUkGLNnqZJJNyra1Jg7O4mK941y7OXKk9RmXjrR0pQHr70dp4uhxpDiDLZSVNtqIy9SMlpMjJRHsZeX84YDcTnLX4VOKSFNdzDTWoxrNHm3Si6iYREhY7lCJC/ENh60eixfZMiZaNREqPeRJikEakx5DZmSyDC3l0co604QNb851b1CzWLmEmkdlUGkSqFUqtRNo7GIgp2R5PXqeJDNmTKyq2KdT86G06mbLQ74K4yFBvOaSaSMj38/o2Mz3Uai2M9tzVsZb7bl22LsAj+fdDP6G/Rf9uhf8jLgB91yCmGXODfITdZacMtXcm2NbaFmRKrKVZbGojMtyMz++fqYDeN7JF/3tH/7Fv8AyQD2SL/vaP8A9i3/AJIB7JE/3rH/AOxb/wAkBzkREREREREREREWxERdiIiLsREXkQCoAAAAAAAAAAAAAAAAAAAAAAAKGW5ANZ/Ni4cWeIXg51AjV9d7bmGm7J6kYmppvrmG9jzLr11AjmRKWabKmOWlTKO7r7Mfsoy2MNLH3P8A8Rb2Lar6jcNN/Yk1W6k1JZvh8KQ5+Zt5niUZ1GQsxCUZJJ+2x5DLr5JTu8jHGltbqSoBLYLyL/7/AL4C1auhO5/QX0bmexbn3Mi3Puex7F32AQ0OeRr7L1s4s6LQ3FZK7On0ZrmMYarYjjjsadqRl7kF++acQg+lc6LFcpKFRNkT0N2NaRt0um7sEnTga4f4nDTwxaUaWsw0Rbaux6Na5a9s2T8nK7w1Wdy7IUhJdbrT7xQiI9zbabbSR+53DLwz22+k9vvn5eh+oDTLzseKVvQ3hgk6Z0U5MfOtdnJOJQ+h1SXoOJx0IlZNPUTR+K2mW0lmpbd26VFLkoIyM9yDFHkC8Lh0WH5vxTZHFMpmaOyME0/RJZJD7GP1cpp7IrZrdJKT8rWaIkBW3Sg007qUbpN0lBmBzpOFpnXfhUsNQKaEp/PNCZL+b1qo7RKkz8TUyaMyp/dSbqkKhtsXjaGjJftNQhKT6HFpUGvz7n/4n325Od8LGTWCCaeJ3UDTxl93YylMtNRMuqIhmfSpOxR7dtlvYlmct5PV4h9ISiy8i+ogFQEYv7os+Zwv/rjP/wAGOgMneX9w44FxVcobTjSHUCE05CvPx0lVFwlltyxxrIo+quZrqciq3HCPwZsBwmmjSR+HJiJXGfStt1wlBHIhyde+WFxe7vIcrMz01uiZkxkKcTj+e4dJdjraJlDXSiTS3sJo3EluoochLSN0qYcJ0Jx/DTxEYDxPaPYhq9p9ZR5tRkUFv2+Gh4lS6G9YbJNvQ2TKtnWJtbJS4laHEpNcc2n2yUhzsHvqT6kkZlsfqW++xl2MiPYty38j2Lcu/qAhD88P9H5mn7A8A/iJoBM30k/Os01/YBh38QQAHoYCh+R/Uf4AEMHn3fo2a/8Aaew/+H3oCV5wnfoY9Av2pME/k7AAZBgADV9zbeJp7hs4RsycobUqzP8AVUl6Z4W606TU2Iq8jrbyC4iHv1NqqKJU1XtZEXskiZCWSic8IBqS5AHDOzf5TnnFJk1YT8XFkPYFp3Ilt7toyCxbVYZNaROsj6plZVTUVLbxGo22bmcg3PGR0pDcBzWuF97ib4Rs3q6KCzMzzT5teoOFmbaPaXnqKO6/e1MZZkZm7b0KJ0aLHSXVKsPY2EmlbiVJDR/yGOKE8A1jy/hiyiUqPRasRnMhw05Dikor9QsbjbSqkkq2JtV3j6X23XF9SznUUGPu4cpZEEu0vIvqL4/z9/t7gPNtZNRanSHSnUTVK9LqqtPcNyLL5jW6iN9FDVSrBMZJp79UlxhEdG3fqcLYjPYjCDdwS6S3/Hzx21Raiy37NrI8pvtWdVpiySZOVMCS5dz4Bde5FGmzpFdjjLfk1BlNJSRk30gJ5VZVwKivgVdVEj19bWxIsCBBiNJZjRYUNtDMWMw0jZLbMdlBIabQRJSRJLbYtgHYgAAAAACPv90M/ob9F/26HP5GXID73kEr24OMiSZH+e3kuyvNB+HVUTZl1Fv3Mz3Itj7EfwPYN5HWX0faf+SAdZfR9p/5IC0nSPYtu577EXVse3nsakJI1F3934FuA5QAAAAAAAAAAAAAAAAAAAAAAAAAB+WYyzJYcjSW0PxpLbrEhhxKVNPsuNqJ1l1K/cNpxrrSsldjI+k+xmAgf8TGF3vLz5jEmfijciqr8F1Jo9UMB8IlR2p2D3M4rJqrjuI3S5BRCXZY5IZ36HfBmw3UmTi0gJyenec02pGEYhnmOymptDmeN1GTU8phRONu11zBYnRt1J7E620+2l5G+6HiebMt2+wfG8ROrtLoLolqXrDfvMtV+n+JW9+hLziGyl2TMZbNNXJNfznLK2fhQGkJ3Wp6Q2SSPcBDu5U+jt1xcceP46GdNO5BW4fd2+uGf2c1tUuJYZNOuZFhUokuvpUhT1pks5ct5h33n2Yszw0+GwfSE3dKS7KLffz8/Pfz39D+z0IBxyHUstmtSuhBEZrWf6RBEZqWaj91JJIjNSldkp3UZlsAg7cf+rWTcfvH9+N9gDrtjQ1mVwtFNNWULU6w+1Hs1sX98htvdKW514dlMXIJRoKhgQXeot1mAmZaFaQYzoNpJp7pFibBNUWBYxVY9EdJBNrmuwmCOTOeIjUo3501cqa8pRmo3ZLm5mA9LuayBd1U+mtI7UyttokmtsIb6CWzLhzWHI0mM6kyMjbeZcWhe5bdJmAghaxY3lHLW5hrsvF0SYVbp5qBBzLEUqJyMxcaaXktUlFYpR9XisOY9IsKR0muvw5sbpXsaUgJzmn+c0OpOEYnnuLzmbDH8voKfIamWw4h1t6FcQWJjBdSDMicQl4kuFv7qty+AD7QBGL+6LPmcL/64z/8GOgNkHJd/vdOhv6+1P8A/ermHw7/AGAOk5q/ABD4wdInsqweri/j8abV06XicltthqZl1Qhs3rDC5ko+k1+2khb1KbqjbbsjaaWaWnXAEdHlhcdOQ8EGuUrB9RPbmNG87uUY/qTST0SmZWE3yFeyxc2iQXUGn2ymfcbi5FCJCX5dCp5Kf7PgK6QnHVVjCt62Da1s2HZV1lFZnwJ9dKZmwJkOWgn40mFMjqWxLiusrQtiS0o23mjS4jZKiIghKc8P9H5mn7A8A/iJoBM30k/Os01/YBh38QQAHoYCh+R/Uf4AEMHn3fo2a/8Aaew/+H3oCV5wnfoY9Av2pME/k7AAZBgLFq2277b7kXbczVsexF6fb67F6gIUvOE18ueKPjMjaQ4K7IyWg0xfY0txamrFnLj3Wd29g03kLkJps1syXploqPRodbQt15usYa3MjMgEsLhC0Cp+GTh20p0Zq2YrUnE8bj/ijkRkERW2XWajscqtHFkXU8qXey31NurMzOM3HSR+G2hJBknKQhxlaHGydbUhaXGjIlE42pCkuINJ9lEpJmXT69vXYBBW49NIMq4BOPWdk2BpOsp15ZWa06RyoyTjx01860VaS6PpLdJNU98zZ4++ye/iQDhPOJ6JpbhNH4e9ZqLiC0a041hxpafkrO8Xq7s47ayd9gnSGOizrHF7dXjVtk3KhOdWyjJglmRGoyAY3c0aROjcAvEw5A8UnjwBbbngkal+yu21YiYRkXfoVGU6lf8AzDMvUBoL+5648BziJ1kfeNs7KPpNHZgrMiNwoz2T1xzibUvuSVdEYne+x7tkfzSAS7UfMT2291Pb4di7feAXAACh77Ht57dvXv8AaX4S+sgGsLQ7mtcPmvvECxw4YZQakRs3ftctqSm3VFWxaFD2IN2b1i6qW1bOySbUiqknHI4e7iehSlI33MNniT3Lf4dvs8z29D+jc/QBH5+6Gf0N+i+/l+PQ5/Iy5+JH+A/qAR6eHvNeYDjuDvQuGOy4kq/T8rmSuUxpJBzp3F0XRstokqck45GRXe2pbbYQ+lRdSlOp/TbAPd/x1ecX/wAY+OH/ALnqp/8AIAPx1ecX/wAY+OH/ALnqp/8AIAbCOV9nfMXu+L7EIHETacUM3TJ7HMycs2tTI+et4l7emkIqhcxd3DarEyPaNjipfWR+1JaJnd9SCMJTqfr3377/AFkX2F27EAuAAAAAAAAAAAAAAAAAAAAAAAAAUMiMjIyIyPsZH3I/rIBHd+6AuHBrKdJsB4laSv67vTKzLC8tfjMn4r+JZVI8SjmTFpSe7FBk5EphxeyWXrszWZoNRAPU+RLxEq1O4Z7bR28sVSMl0PuEwa9iQ54ks8HyJT82k8Pc+p1qvmtzIDpkkkMn7MyRkZpIB4j90CcRaqHTzTPhworIkTM5sU55mkNlZKW5jVG8+xQwZSEq60tTrlL0o0LLdRQEvJ/uSVEGUXJE4bnNF+EiNqFc164mW69WbeZSFymzKWjEK5t+swtlRqShXgSoXtN432JLjVw253MyMBubLyL07fYA1080nihXwt8I2eZFSzWoue520vTbAlGs0vxbnKIcuPNu4yU+8p7HqZFjbMbJWgprEJp0iJ9O4Q1uDLiZruE/WuJrdZacs6o3dJV2LGOwLK4k1bdZcWzfhv3r7yI8lcqUmI5IQwRNGpC5Rnvv5Bug/LE+Yl/+W/HC7/8AHWzPv9Z0hGf1n3MBYv7oozDp2Phtx5ZGex7ZtY7kX+EXVSGR/Db4Hv6ANYfH/wAesDjrssHyay0bqdOcxw6JPqnb6tv3rpy9oZDyJMaBOjvVDBsIrpzj0hl9TxJNMhxsuyTIBve5CvE4zqBojkfDrkVqT+T6Oz1XGKsyXkLky8CyOWbxMxy6upxjHrt96IRNkpuNEs69ndLfgpASAQEYv7os+Zwv/rjP/wAGOgNkPJc/vdWhv6/1P/8AetmADae4kzQZJSRn2LYtiMiMyIzSZ9iURGZp9OoiARX+dny71UcmZxeaPUCTqrCSk9aMdq2FJRXzHUGhrOo0RtCk+xzn1JbyRDZIJl5ZWJdKTfUA+v5JfMJclNV/B3q5cqN+G06vRvJLaWlC3o6HSNzBX3HFJLxWSQqXRtERqXu9XtdSfBSkNfXPE/R+ZmfoeB4Bt9P9omz7fHsXoAmb6SfnWaa/sAw7+IIAD0MBQ/I/qP8AAAhg8+79GzX/ALT2H/w+9ASvOE79DHoF+1Jgn8nYADIIzIvP4kX3zPYvtMwGHfHhxHVvC9ww6l6pOzm497Hpn6PC45qST07L71lyDTNMNmolOHGcdVPcJBKUhqKpwy6SMBBj4ZeISLoDxDYvxC5NhjOqN1itxZ5PBq7W2drWXsqme0Ox76XMTEmLkPVM6W9YVpIb3TOIn1Grob2DeB+WJ8v8/wDU3Y5v8fxaWW/p6/IhfAvh5F27EAr+WKMx/U4Y7+7Wz/0IA10cwLmMw+PCjwRi50VqsBy7ALCycrctrshl265GOW0VCbWimQXamOa2l2MWonxZRPEURUWUyZbzkmQbVOQFxRP2dTnPCxkk5a/kLxc+099qeJThwJSks5LTxCMy8VuNJONaJJklJQl6SrYkmowG/wB4h9MGNa9DNWNJnnUMK1AwLJcZiSVmRIiWNnVyWaqYszIyJMSy9lknuR7k1tt3AQruWJrc/wAIfHJjsLUZLuP1VzOyDRzUSPN/sZFTPmzSix3JJOdBEmtyqrgmszMjS2pwj3JXcJ2LDrTrLDjbiHG3Wm3G3EKJSHELSk0LQryUlZGRpUXziMjLcBzAAAAhScshJHzbI3URHvnOvKe5b9ircvJRfVsrYy+B7eQCawjyV/11fhAR+vuhn9Dfov8At0OfyMuQHoHII/QbZD+25kP79PSKP7VGZn8TMz8wG8gAAU2L4F9hAKgAAAAAAAAAAAAAAAAAAAAAAAAAAA8p1s0wptaNKNSNKsjjtS6XP8MvMXlNOtoc8JVlAeZjTWyURpOTBmKjzYiz2UxJitOoPqIjAQxOXHqZecE3MIbwXPJS8erJmSZFofqI1Me9nhtE9anGqriY68ptBxolvWQLSNOWnwiYspK0KNpxJmHV6lzLzmUczd2iplybPH8x1IRjVY6jqNqm0uw1K2rKzQsutqJHTjdPOmpV1dL1hLTHPZcxO4TjqCorseo6mgqIrUGpoq6FT1cJhtLTEOurYzUODGYaQSUNssRWWm2UJIiQ0lCSLsA7VXZKj+g/v9vL74CFzzreI6w144soWiuLTnbjFdFD/EdXVcFTj7VhqPavxyzCQlDJrOVYMrRV0CENJNzqr3I7RGb6yMN53DjyhuEXGNDtNKbVvRfHMz1MYxiFJzjIrV2x9tm5LaddratLTFntR0N18ua5WxktpNPs0RpW5moyIPbfyKbgB/U4Yd95+6L975TAPyKbgB/U4Yd/3i6/0mA6XIOU7wHz6a3rK/QHGKibY1NhCh2sORbFKq5UuK7GasYylz1kT0J11qWjxSW31x0GTajJRGEVHh5zvJuXBzB4iMzOdWwNPNQbPTvUdKiWtc7T27lriSpvhIbbVLjLrSrsniGlJplv1la4jZbSSMJ41bZwreHEsa19uZAnRmZkKawpLkaVFkMtvx5DDyTNDrLzLqFtrQZpUR7kexAIzX3RZ8zhf/XGf/gx0Bsh5Ln97q0N/X+p/wD71swAbUwHSZDj9TlNPaY9f18S2o7usn09vVzmieiWNbZMnGmwpLSiUhyPIjrWhxJp3+aZGXfcIM3Md4Jsr4C9fYl9gXytF0pya4eyfSTKIzzrj2O2sN9merF5tg22h1Nxj6kR3YRqdYduKmPHcaNpTczpDFTip4kr3ip1Hq9Ussr0w8rLAsNxXIpDbvWzbW2K06Kd+6bR/uPyo0wzJea3LpkG4ZESTLcP6Dmkn51mmv7AMO/iCAA9DAUPyP6j/AAhg8+79GzX/tPYf/D70BK84Tv0MegX7UmCfydgAMgV7dKt99jIyPY9uxlsff0+v08wERTn0cTcfUDWLEOGrFp7s2q0tZYvMvixDU4h3P75tTkGH0pSonpVZQOIbJG3Uw7aeF/dTJBBsx4JuUlw1VvDPplI1/0docx1XyChjZLk823XYNP1r94yiZEpEtRZjbbaaqA7HhrT0dXitubmZ9wGV/5FNwA/qcMO/wC8XX+kwD8im4Af1OGHf94uv9JgON3lScAy0LS1w64gwtTakIebkXPisqM0qS81vYmROtLSlaDUSk9SS6kKLcgETS5i5byzuYW+1UOzo0PSzUgn4K1LWar7Sy6lNvIZccNJHITZ4tKXCleGSESJrTiDJt1CySE7HD8mqc5xXG8uoJbU2iyiiqchqpjK0vNSYFvDYsYriHEqPsbUkunz6FEf6ZGwCLJzr+XxeYpmVpxfaS00mfiuUOsSdXqmqjG4/jGRpUhss0aQy24tNTcE20u2ebaQVbbIKc68luYpbYeo8sjnE43CoMY0D4sMhOok1fsFBhGr1o6hVIqtYQiNWUubWBLWmtehMITEavpG0ZmNFc+WXohpckICS5SZFR5LWw7nHbWuvqewZTIgWtPNi2VbNjrQlxD8SdCdfiyG1oURoNp1W/f4GA7XxC7+6rt8C338+ySLuoyLuZJI9gHhOufE5oZw3YrMy/WXUXHcMr4ralR4E6fHVkFw8Rbph0OPoc+VbiUvciNuHGcSzv1SHGWyUsgiCcqfIIGTc0jF8or/ABUV+R5FrNeVzcptUeV7HdY9k9hDTIZWX5g+pl5lHhrV7zrhIbUvYzATcWz3Iz8tzNRF9Cj3Lf4Ht6egCP390M/obtF/26HP5GXID73kErL/AFG+QkZkX+u9kqT3UktjbqqZs+xmSt9077bdiMt/UBvJ60f4Sf8A2i/pAOtH+En/ANov6QFDcQkt+oj+oy+O3xIti8zM+xF3MBRt1LpGafQkmexpURdReXUg1IM+3ckqPYjSZ7dRAOQAAAAAAAAAAAAAAAAAAAAAAAAAAUMt/U/Pfb8H09j79vUBE050fAzqlfcSNPrPorpbmGc1WqOPMHmqcKxW2yFynynF0x6xVpYR6eHMfb+UahcZxKlezlIejSDSrxCLpD33kW8F+oOmV/qprxrNgGR4Lkns8fAcJq8voplJbohTI8Sxyeyah2MWJKbakvN10InjjIS44zL6VmlSkkEk1JERdu/0/vfzbEXpsA8E4mdRcq0v0L1OzPCMYvcwzWpxiwRh+N41TWV9b2eSTmvYqZLFdVRZc1bbM2Q3JfdKObTbUZzrURdwEV/lgcCet+fcaNTqvxE6VZ/jGN6eypuq1nP1CxS5pY2UZ38pKfx6Mhy8jR3Z8iJezF5DLSpvdxuvR4pOJSZKCYwyREgtj37nv332M++xGZFulPzUevQSdzM+4DlAAFppIz3P6Pv7b9j+j3j3ARgueHwP6jZzqfgPEBonpzk+e2WU1r2F6iVeF4/LvLKPY0TbDmL3syDVx5MtcaTUe01a5io60MrrGm3FmqS0QDabypM31Wv+FPFsJ1rwPOcD1A0nWeDuM5vjl5QyL/GorSJGMXENd3W17kxLNc58jSFMJcSlyrS4pRG+SQGBHPq0Z1c1aa4di0s0yzvUZykczp21bwrFrfJV1yX0UfsxTUVMeSuP7UtBk0paNtmnPPctgz75SOE5npzwG6NYfnuMXmG5VVWGo5WeO5JVzqe5hFN1OyudDVJrrGPDlsJfgSYsttS2OlxqQg0mZbGYbLgABjRxYcM+BcWOjOV6P59H2iXMZUilumkkc/F8giNqdqb+vcUpKmnoUskqeS0pJSo3iRXycjuONqCDhqVy+uLzTnOcpw0tA9Vcqax63nV0bIsWwbIbmguojLpnDtK+0gV8mE9FmwlMv7pfI2VuKQv+5mAnz6WMPw9OMBgS2Xos2BhOKRJcOU0qPLiyGKWIy6zJjrPxWXW3G1tLQ4lBkttZbdjIg+/AWrPpQo+/YvQtz+z+u3mAiQ87Hh4191U4vYWS6a6NalZ5QN6UYrBcucTw7IL2tROjzrhciEqXW1cuOT7LT7KnUk8s0ErqWSCMiMJNnDHVWdFw76J0t1Al1VvU6ZYdXWNbPYdizYMyHSRGH4sqO+ht5mQytBodbcbQpKyMjSQD7HVbNpOnOm+b5vDx29y6fjGN21vXYvjFXKuL6/sIkRxyBUVddDbekSpdhL8GM2httXR4huLIm0LMgh8cH3BXxJ8SnHRWak8Q+kuomG4zIzKz1ez65zrDrymrbh+JZtWsPHI0m2jMMyXpcz5Lj+Ek1JRVx0NpQg0rWYTRGCSlpCUESUJLoSlJbJQSPd6U7dulJkZFtuW22x7bAOYAAAEdbnl8FuVauxdONd9IcFvsxzukeXguYU2J0064urDHJbz0+jtVV9ZFflyEVlj7bEcWpvZDUtCvFJCSAZV8mrJtbWOG17R/XTT3UHCL7SW0VV4w/neL3uPrtcLs+qXUxYD1vCjIlooHSlVZJZcWbcREMjI9lLUG221qa28r5tTcQY1lV2UV2DYV85luVCmw5CVIfiyoryVsPsPIUpDrbjakrQZpURl2ARxONPkR0eW2V7n/AAk3Ffh1nNkSbGRpJkT734mXn33VvOt4nfPPvP0iFuLcNistku10dTngQpkCGlKEhqTreHfmscKVsuFgeJ8S2HeHIcRvpXYZVfYzNQ0Z9DpRcVXPqX2V9PWSHYHS5sRuLUokpUH3ttrDzqstgppJ8jjGTDWnwTVW6f5Ri0haHEk1s/b1OL0s1fVvs4b85ZGR9St99wHPpbykuP8A4lMkj32qcO1wetlveLcZrrNks+yuUxvnLXFqXpNlk8mQrc1eCbMJk3PdektEalpCSJwO8sPQPgvJOTU6JWoGr0iEUKdqXkkdluTXMeElqRBxOnZ8Wvx6FLSpSZTxeNczUK2l2C0bNpDZelJJ7Fv9H0F6EX0F5F+/uA0Zc9rSzU7VnQDSam0t0+zHUS4rtWzsZtZhmO2ORzYcA8VtYypkmPWMyXWI5OutN+K80lo1uJLq9AEfbS3G+aroljzuJaR4nxeadYy9YPWrtFiWIZ1T1rljIbaaflqjRK9CDeeSyg1qMtjUW5EXbYPSvxf86f8A4R44/wDwXUT/ADIA/F/zp/8AhHjj/wDBdRP8yAUPPudMZbKsOOQ0n5kVPqMgzL4dSIJqLf122My3Lct9yCV1y8pmrVhwfaMzddnszf1akVF8rMndQmp7OYqlJzTJkV/y03a7WJPFUJgJY9pQj+xUsdBH7yjDNQAAAAAAAAAAAAAAAAAAAAAAAAAAAFvQncz6U7mREZ7FuZJ36SM9tzJPUrYj8tz28zAXbevr5b/Vvt9m5/aYAAoaUn5kR7eW5F28y/AZl98/iAoaUn5pSf1kXx3/AA9/r7gKkRF5ERevbt5+YCoAAALehBKNRJSSlbdSukupXTuadz23PpMzMt/Lc9gAkpLbZKS6S6U7ERdKe3YtvIuxdi7di+ACppJXmRH5H3Ij8vLz+HoAp0J8+lO57d9i/S7dPp6bFt8Ni28gFwAAp0lvvsW/nvsW/lt+Dt9XYANKT23SR7HuW5Eex/Evgf0gBERFsREReexFsXfz8viAqAGRH2Mt/r+juX74C0kpTvslJbmaj2Ii3UZ7mo9vMzMzMz8zM9wFSIi7ERF3M+xbdz7mf1mfmAqAs8NH+Aj0/Sl+l36fT06lbfDqPbzMBeREXYi2L6PsAAAAAU6Ul5ERdzPyLzPzP6z9fj6gKElJGZklJGe+5kREZ77b7mXx2Lf47F8CAXAKbF8C+z4+f2gGxfAvPfy9S8j+sgFdi+ACmxfAvgAbF57FuW+3b49z+31+ICoCnSW++xb+W+xb/aAbF8C+wgDYvgX2EAbF8C+wgDpL4F9hABERb7ERbnuexbbn8T+J9i7gKgAAAAAAAAAAAAAAAAAAAAAAAAAAAAAAAAAAAAAAAAAAAAAAAAAAAAAAAAAAAAAAAAAAAAAAAAAAAAAAAAAAAAAAAAAAAAAAAAAAAAAAAAAAAAAAAAAAAAAAAAAAAAAAAAAAAAAAAAAAAAAAAAAAAAAAAAAAAAAAAAAAAAAAAAAAAAAAAAAAAAAAAAAAAAAAAAAAAAAAAAAAAAAAAAAAAAAAAAAAAAAAAAAAAAAAAAAAAAAAAAAAAAAAAAAAAAAAAAAAAAAAAAAAAAAAAAAAAAAAAAAAAAAAAAAAAAAAAAAAAAAAAAAAAAAAAAAAAAAAAAAAAAAAAAAAAAAAAAAAAAAAAAAAAAAAAAAAAAAAAAAAAAAAAAAAAAAAAAAAAAAAAAAAAAAAAAAAAAAAAAAAAAAAAAAAAAAAAAAAAAAAAAAAAAAAAAAAAAAAAAAAAAAAAAAAAAAAAAAAAAAAAAAAAAAAAAAAAAAAAAAAAAAAAAAAAAAAAAAAAAAAAAAAAAAAAAAAAAAAAAAAAAAAAAAAAAAAAAAAAAAAAAAAAAAAAAAAAAAAAAAAAAAAAAAAAAAAAAAAAAAAAAAAAAAAAAAAAAAAAAAAAAAAAAAAAAAAAAAAAAAAAAAAAAAAAAAAAAAAAAAAAAAAAAAAAAAAAAAAAAAAAAAAAAAAAAAAAAAAAAAAAAAAAAAAAAAAAAAAAAAAAAAAAAAAAAAAAAAAAAAAAAAAAAAAAAAAAAAAAAAAAAAAAAAAAAAAAAAAAAAAAAAAAAAAAAAAAAAAAAAAAAAAAAAAAAAAAAAAAAAAAAAAAAAAAAAAAAAAAAAAAAAAAAAAAAAAAAAAAAAAAAAAAAAAAAAAAAAAAAAAA//Z;" vertex="1" parent="WIyWlLk6GJQsqaUBKTNV-1">
          <mxGeometry x="140" y="60" width="50" height="50" as="geometry" />
        </mxCell>
        <mxCell id="Hey_0Endjz0srx_wIcTM-9" value="Data Source" style="text;html=1;align=center;verticalAlign=middle;whiteSpace=wrap;rounded=0;" vertex="1" parent="WIyWlLk6GJQsqaUBKTNV-1">
          <mxGeometry x="210" y="70" width="60" height="30" as="geometry" />
        </mxCell>
        <mxCell id="Hey_0Endjz0srx_wIcTM-18" value="Fetching Data daily" style="text;html=1;align=center;verticalAlign=middle;whiteSpace=wrap;rounded=0;" vertex="1" parent="WIyWlLk6GJQsqaUBKTNV-1">
          <mxGeometry x="180" y="320" width="80" height="30" as="geometry" />
        </mxCell>
        <mxCell id="Hey_0Endjz0srx_wIcTM-22" style="edgeStyle=orthogonalEdgeStyle;rounded=0;orthogonalLoop=1;jettySize=auto;html=1;entryX=0;entryY=0.5;entryDx=0;entryDy=0;" edge="1" parent="WIyWlLk6GJQsqaUBKTNV-1" source="Hey_0Endjz0srx_wIcTM-19" target="Hey_0Endjz0srx_wIcTM-6">
          <mxGeometry relative="1" as="geometry">
            <Array as="points">
              <mxPoint x="90" y="405" />
            </Array>
          </mxGeometry>
        </mxCell>
        <mxCell id="Hey_0Endjz0srx_wIcTM-19" value="" style="shape=image;verticalLabelPosition=bottom;labelBackgroundColor=default;verticalAlign=top;aspect=fixed;imageAspect=0;image=data:image/png,iVBORw0KGgoAAAANSUhEUgAAAgAAAAIACAMAAADDpiTIAAADAFBMVEX///9uQMtkOMF8Stl2RtN6SNdmOsN0RNFsPslyQs9qPMd+TNt4RtWDTt9eNLtwQs1oPMWJVOeHUuWNVutiNr9wQM2FUONcMrmFUOGPWO2BTN18StuBTt9gNr12RtVoOsV4SNV+TN14SNeHUuOJUuWRWu+LVOeVXPOXXvV6StmNVul0RNOLVOmTWvFyRNFYMLVaMLdWLrODUOFqPseRWO1iOL+LVumDTuFULLGBTt2PWOtgNL2ZYPebYPmdYvtwQs9uQM2TWu9cMrdYLrNaMrdiNr2TXPGVXPFaMLVgNLt2RNNULK9+SttuPstsPstWLrGZXvefZP1QKq1SKq+HUONmOMFSKq1kOL+PVutSLK+ZXvWbYvl6SNmXXvNYLrVyRM9eNLmRWO9eMrlQKKtqPslOKKuXXPObYPdWLLGdYvmhZP9OKKnn3fnFs+ufYvvm3PlQKqufYv21lu6njN738/3NufH+/f/Lt/H39f2hZv9NJqnp4/d2Tsvn3/WZcOXs5PnLuO/18fvp4fmMZtT59/79+//d0PXl2/h6TdPFs+nJtPHIte2zlemdc+fZzPTy7fyPZ9qadd/NufOJZNPUw/N5Uc7f0/ezleypjeG1m+epiuW9puqeeuLi1/eLY9bDq++ifeahZP37+f6LXt707/zx6/ulh+HRw+/7+f+CU9itkeTFr++DWNSnhuede97IsvCXbuGgeOfbzfWXcd3Hs+vj2fd5StTDr+vv6PuNZtfPuvKWaeWIXdh9T9fXyPN8UtCSa9uFWdmjg+C5n+u7o+iSaN/h1fZ0R83WxvO8oO2NXePApu+Vb9x+U9PQvvKvkuezl+imguiHV96NY9ysieuyk+q/qunBqu3t5vuNaNfSwfKEUdyEUd+3m+y9o+2ujuqKWeKPa9bn3fuPYuCSY+SJYtSVbN94T825nurn3/h3SNP7+/92SNGHU+GnieKxleZ0RtFuQcl+Tdl+Ttx0RM9vQcuFUuFyQs1yRM3FtemHVON6Std4RtOJVONqPMWBTtt13IiKAAAACXBIWXMAAAsTAAALEwEAmpwYAAAgAElEQVR42u2de4xUVZrAD9VSdNk7Uq6iLtFAMnGrd/8hQnR045gsSPtgDNHkUjGm0kQzGSfMBDJiy4jyEhoEaewZhAEa6YDA8mhoQR7KQ96iIMhDQOS5+OCliHRb7LZbbu77nHPPrTq36t6653FPu+5mVkbj+fG733fOd74PXNTXz+r6J3X1RFZnx+rQVoXb+t3vqrB1TVvdrfUAtu6016+01VtbJ3rb6w5o3Xbbr4nrn+11s+v6V23d51z/bqxbtPUfjvUvyLrbff2ntmoc6xF1pcyVQVe1Yz3ouv7whz/89re/fca5/vjHh6D1ZIH1V2OBGzwSUOFCQJXx40rANQYIuI9MwC333eKFgLtdCKjRfpwEpLQfJwHVqepqJwEPaj8OAp6xfjACHrJ+MALMH2zjjZ8nLQBu8OyAinwOqGLbAfe5OeAWvxxQ4+KAFJGAVDXZAQ+6O+AZNwc85MUBf33SAuAGn74ChgHYdoDbV+CW+/xyAPEroCrA4YBUpjpTnSE7oNrdAc6vgKkALw4wvwIqAL46oIpXB9ziUxxQ4+aAVE0Gd4BqAFMCDgO4OeAZVwc85CEO+KvhAA0APx1QwasD/IoD7nZzgDMSTKlfgQwxDqh2d8CDrg7wEgeYkaAOgI8OqOLXAf7EATVuDkgRHJCqrrZDQYcBqt0M4EMcYASDJgD+OaCCXwf4EwfQZ4MZ7SuQsQJBimzQNEDpcYD5f5gA+OaAKp4d4E8c4OYALR10EKDuPykOcHXAM3kdQBsHmOmgBcAN5ToREj8O8OSAmky1Rwc8mNcBtHGAuWwAIgcEHwcQHaAdBniIA54p4ADKOMBQAARA5IAyxwEZ8yugnQj5cCrsLQ5wGCByQNnjgIxGgHYgVO0hDnjGnzjAYYDIAeWNAzLmVyClfgYy1b45wEscgAIQOaC8cUAmZX8FPJ0H+BcHYABEDihbHGAJwHCAp1zAvzgAByByQPnigBo1Cyz2PMCnOOBJ8PgNkQPKHwekUjXqEUCN/ttf/3O1rw6gjQPA449HDij/vYB2N6j+2HFgBkGgbHEA6PJ45IDyxwF6kZCKQHVNxmaAXCMUaBwAunSJHBBCHKAx8IgpgUyNcSaY8TUXoIkDwA1dIgeEEAfoAtCigJqMmQtkfM4FaOIA0KXLDZEDGIgDgskFCscBqgEiB4QcB6QsB3i9Gyw9DtAMEDkgtDggU2NkgzUB3Q0WigNAF31FDggjDoBygWorDvD3brBQHKABEDkgtDgAzgVSwdwN5o8DTANEDggjDrByAfNIOIi7wfxxgAFA5IDQ4gAtEUQc4PvdYL44wDZA5ICwzgOsdDBTE8zdYL44wAIgckBo7wXsXKBauyIq63kAbIDIAaGdB5gfAftyqFznARAAkQPCvBdI1djXw0HcDbrFAagBIgeEdh5gHQkGdDfoFgcgAEQOYOE8IGOdCWbKUCeIGyByAAPnAalA7gbJcQBo6xI5gLHzgIxZH1COOkHQ1hY5gK3zAPtM0O+7QVIcANraIgcwdh6QKee7QRWAyAGMvBdw1gcE/25QAyByADvvBVJofUDg7wZ1ACIHMPFeQAsEsPqAoN8NGgBEDmClj1DGWScY6LtBUNsWOYChOCAFM1COd4OgtjZyAGP3AoHXCsNfAVBbGzmAxTrBlFkfEPC7QRWAyAFs3gvY34AA3w1qAEQOYOpegPAVCO7doA5A5ACm4oCU/WbIrBIL7N0gSNRGDmDxPCAV8N2gSQBIJCIHMNpX2LgaDOpuUI8DQCIROYDpd4OpYN8NqgBEDmA6DsgEdjeofgU0ACIHsB4HBPduUAcgcgDbcUBNcO8GDQAiB7AdB2QCezdoAhA5gO3zgMDuBi0AIgcwHQcEdjdoAxA5gOU4wO4o6PN5AMgmIgdwUB+QSgV0Nwiy2cgB/MQB/t8Ngmw2cgAv5wFB9BRVAYgcwM+7Qf3hkI93gxoAkQPkfTeoAxA5gJ93g9CZoB8OMACIHMD6u8GM417AHweYAEQOYD4OqCH0EyzdARYAkQNYrxO0u8r66QDQNRs5gJs+QgE4AHTtGjmAmz5C2N2gHw4AXbtGDuAlDkhB1QF+OUAFIHIAJ/UB9tWgf3GABkDkAL7uBVIp/xygAxA5gI95g1BTUb/iAAOAyAHc1AfgL0ZKdIAJQOQAXuoDMo5XYyU5wAIgcgAv9wI1qUe0A4FqXxxgAxA5gJd7gVSNj/cCEACRA7i5F8j4dy8AAxA5gJt7AXzGSPEOQACIHMDZ3GFtxkhpDkABiBzATxyQqrFGDJXiANCta+QAft8LlH4mCLp1k9cBtx34264/ua3/XrVnAwfvBtWuoqU4AHTrJq0DPpkB8q//+vhmhu8FMsikqWIdoAIgqQM+GQcKrj0s3wtYnwHzyVAxDtAAkNMBkwvvP6ibejMH/QOqrUdj3h2gAyCjA87MpwAA7OOlj1CxDjAAkNABB2j2HyzkpY9QsQ4wAZDPATOpAJjAy7vBYuMACwDpHPAXKgAAR/0Ei3KADYBsDqAHgLN+gt4cANq7SeoADwBwEgfUFOMA0N4uqQO8AMBN/wDvDgDt7ZI6wBMAfMQBxdwLqADI6QBvAPDST9DzvYAGgJQOQAD4C3w3+CcSAJz1E6R2gA6AhA444QbAHS4AcBEHeH8vYAAgoQNcAbjDBQAx6wNMAKRzAGaA3hQACBkHWABI5wAMgN4UAIgYB9gASOYA3AAQAe4ACBgHQABI5gAHAL0pAOCjr7AXB8AAyOWAmQ4AelMAwEVfYS/vBUCndkkdQACgNwUAovUPAJ06SeoAEgC9KQAQLA4AnTpJ6gAiAL0pAOBk7jClA1QA5HQAGYDeFABwMneYLg7QAJDSAQgA86ZCa3QhALg4D6DsH6ADIKMDZnq7DeR73qC7AwwAJHQAJQDizBskOsACQD4H0AIgxLxBdwdYAEjnAEoABJk36OoAGwDZHEALAO9zhgrkAuCJTpI6gBoAvucOF3IAeOIJOR1w4jTV/s/nfe5woTNBUPmEpA54lwqA0aL3FQaVlZI64MRwGgCWCTFvME8cACorZXXAdor9H//VbfzPHc7rAFDZSVYH9N5c+G3wYa7nC9DEAaoBZHXAiXkFekQcaxZk7nCeGiEVAEEc8EvT6Tfs9bm9Zs78/PPmg6SvwLmZK1/U19+ca96B//3pNv7nCxSoEdINIIADfjk/Nn8+t/Jg1E+Q4AAdAP4dcK3wB33cGRnnDBWKA0wD8O6AeRQh/SrJ+woTHWACwLkDFlC1/GqWdd5gnhoh2wBcO+ANqmO9l6TuK0yuEbIB4NoBy6gAmCHpvMF8NUKwATh2wEtUAEyUfN4gqUYIBoBjB3gBQL55g/lqhFADcOsATwDIHAc4cgEUAG4d4A0AueMAJBdwGIBTB3gEQOo4AHYAbgBuHeAVAJnjAPtMkGwALh2AAHBUvQEyL4UQAKI5Q+i9QMZpAE4dgADQCtcHoADIPHeYHAeQDMChAzAAqmwCXAGI4gDtK0ACgEMH4AawCcABkHjeIDEOIBuAOwc4DWDWCOUBQOp7AdMBZAC4cwDBAIYDnADIHAegEybUT4GbAThzwBiCAXQHIABEc4fhXEArFQN9KkVwwBiSATQHoABIP3cYuxdIpUCfPiI4AAegwqoVxgCI5g6jyUAG9OkjggNcDFBR4QCgSvY4IGWPnVUVoAIggAPcDFBV4QAgigPgQEAzgAAOcAJgLicA0scB8HGAbgD+HUACwM0AURygQ6AVC6fAjX1EcAACwLiJ0CIBQHTAidPH5w51W2s2nzwjVByglQqnHkk9Am68UQAHoAC4XwfneTfYOrrAL37ngGDnATXqlZAKAP8OqOjsFQCHA3YW7hZQd0Ck8wB13HCNbgARHOAZANwBcyl++dgzgsUBKcMAAjjAOwCIA65Npfr1J3sLFgekagwAuHdAEQAgDjhF9es3i3cvkDIA4N0Bk4sAAHYA3a9fI+C9AMjdKIID5lBtYINrDxG6otKh4p0H1IBcTgAHVDRRbeDHrn2EKAEQsE4Q5HIiOGDTaIr9G7/AtY8QLQDi3QuoAAjggIrGCYX37zP3TlLUAAhXH6ABIIIDto0vdI6zvcq9mxw9AKLdC+gACOCAf9t6dJx7m5BL61/cCdcK4wR4AECwOMAAQIxcIH8nqaqKCtd+gggAo+CbQScAYsUBJgA5Mc4D1HsBMgFVFXCtME4AJQAC1gdYAAjkANdeYhWuPUVpARCvPsAGQBgHuH8Fqlz7CqMAdHcHQLg6QQgA8R1Q4dpXGAOguzsAotUJgmROHgdUufYWxwHo7g6AYHEASCZlcoBbb3EHAN3dARArDgDJpEwOcJsv4ASguzsAQsUBKgCRA0gAdHcHQKQ4QANADgf8svXgoXOHWltbm5qbDrS07PxdAQC6uwMgUBygAyCeA5Ycam1q2f/Z9qMrx0xvmDHx2DRH0ed22AEoANcgAsgAiBMHGAAI4YAlbza2fDZnzOa5o8fWURQHwF8BogE0AlwAECYOMAHg2AEdh5pmzxnTMG488LROwZEgAsDpUdBCAEDeDH31iQhxgAUAhw7o2Nh0ZV3D6AmgqHUKvhukvA1EXo2tAuPHbV558sBXXMcBNgBcOWDT6itT5o4Hpaw98N0gNQAQAeOsSqOhx/cc3sBpHAABwIkDem65cvxYHSh5HYXvBukBsAnA+Bu+a/LMDfzFATAA7DtgbeOOhhHAnzUPvhv0AIBJwCekv2L4qj3N/8dTHHA3AgDbDljy/eLhwL81D74b9AKAQYDrY6L59R9P5SUOqMEAYNcBSz6bUQd8Xcvgu0FPAOgEHM73V65f+e6vuYgD7gY9kuw74PLqffOB32sZfDe4kuqXzIU7SBSaPb1w3lfsxwE1d4MePVh3wKQrI0EAayV8L3CS6pcch3uIFH5NVrfK1AC7cYAKANsOuHhlGghkTYbvBndSfV8Ow11kNtP8ihlT2Y4DNAMw7YDVF3zZ7brh6y9MnFtfv3n69Bdfeuno0aPbtzf9CN8NHqf4LxmH9BH6E93f+INPbmM6DtAAYNYBF+cUGfldmnahft+yOef3z25u/ObQ1l8K1gccHFfwv3P4BqSTFG1GsnAq03GADgCjDpi02dtv82lzp6/bvn9b66El2t1gh/WngvUBFRUHjxdgbcZOZP/PUP9jzT9wG8NxgAEAkw5YW0/5b/jC5innZzdu7Ci+Rki9F9h5cuVLbmvyqVFYN7kzk1cdo7yFmP8uw3GACQCLDphS8Lf8+oY/X1mxsad+N9izhBoh9zdD+foJnthw4CQNBwvPsHseYAHAngNW5/t3OqJ+3ewtm3yrE3R/M0TRU/RE6+mVM/KeUO9h9zzABoA5B7h9AMbXH1l06OdyvRmi7im64fCyerf7yWk/MXseAOI9GHXA8jri5u9Yvbasb4Y89BX+za++e3fPrkskAkYxey8A4nFGHbDC+fvovca1ZX8z5Lmv8JkDHzgzxMPM3guAeJxRB3yP38Q0XgzjzVAxvcW/O3wM+4efyWx9gAoAmw7Y5oil120J4c1QEQ6YunJanZsBmIsDNABYdEDtRsKndPS6FZPK/GbIowPOHFh5jJCvbmC2PkAHgEkHrCEG1BN2zWmcxKYDvmuet2aCS4NBZusEDQBYdMA295P+NVOWblnLkgN+GjXzxYmX3K8R2a0TNAFg0QEN+Q9Y10xZundJ+A44MzXv3qurnuH3AhYA7DmgbStF3ffYiS/O2vZmz1AccK555uT6YxR3ARsYfi9gA8CgA2ZR3/6O2/yefh1UBgecOPfu6Y9fahh3ifoJCsvvBSAA2HPA5Yle6z4Wzj2+7rPZTVs2bvLbAV+eG9V8+uTK3WumeS1RuPAdy+8GYQDYc8CW4iuBx69f07Bv3Y79LU2N3xzauMSzA6oOLtjZ2tTc8saplftWDV1YfFFq3VSm3w0iALDngHW+lQDOH3vswtxVu4/vGzNmzJijR48ePXX+/PZZ+/fv3z/r/Pbtp9T/RL343zd9d/2accfG+leFPJntd4MoAMw5YNJ6wPmadobt/gEYAMw5YAXvALQw3j8AB4A5Byzme/9338F4/wAHAKw5YPlwnvd/xFeM9xEiAMCaA5byDMBfmO8jRACAMQe07UL/na5azGxguHA6Vsa25gTzfYRIADDmgLfRI7d3Pu2yfNuRVWPZ2vvh9csOn7vzzDvoAeWo3zDfT5AIAGMO2IH+ux6jvxrZuGLHvokjwt/68UOn72k5p18MfYC1IOCgnyAZALYccBl9tlXXCL0d/HTL90cWrxkfxs5POFa/cmbzV9fsu8F30b/g2Hcc9BN0AYApB7StRk+ER66FHo9rVWIXNzZ+f35ZEef0xRztTpu4efKp083nfsFvh3/CZtc189BPEChx9h3Qho0G3oF0EIDrBNdu3bvtypwpx+svLPS1pcT8hRfqp08+erKl8ZNfXOsD5qG/Zh8XfYWBorDvgNoPseDqbXv73fsJbtq4pWnR0lk7jk45vnnGxGPvDKduKHhp+DvHJs5oOP7SslMnP29pbl3wJU19QCsarI49w0VfYRBTeHDAIuyl7g/F9RVesmTjoZ3ftDap6/uWRS2z1cug2S0tLS3N6n/U2vrNoQUHvyQ8GqCpEZqL/jOevvMED32FQSzGgwMSWHnY0mL7Cnd21Ad0dF6rviEn1gdUWa/HC9cIzcQY5aSvMIjFuHDAcjTQH7Hcz97iHZ07KtzfDFXkmzhpAbAAPbKe/9Wv7gy/tzjFV0AFgAMHtCWw8rDFPs4X6Ohc0dE5rwPyEWAgsBv95/uY/GaIvThAA4AHB/yAlYet+MFHB2gKyOOAqoL9Aw5g7YROPFBeAoqOA3QAOHBAFisPWzjJVwd0dM7ngIL9Aw6ux8rAXN8NshYHGADw4ACsPGydnzNGOjpX5Hs7XFWofwDWaHJynpejjMUBJgAcOAArD6vb28VXB3TO44BC/QNGoXaadvCBEAgoLg6wAODAAVh52NCLLMwcVff/AayZYUv+1+NMxQE2ABw4ACsPm8XCzFGVgI+xMrBC/QNYigNAOsaPA7DysPEbGZg5WlV17Rx2RnHugbAIKCIOAOk0Rw7AysMaGJg5WlVVhZ1SzqToIcJOHADSaY4c0DYD/Xe9iIW5w6exMrAHuodIgOc4AKTTCkcOwMrDxn4avgMOojeVE1rp+gixEgeoBuDJAXh5WPhzh/EyMNpOUozEARoAHDng8kisPCzs2eNN6BHAsRPdwybAWxygG4AjB2DlYaMvh+uAL9EysLpmD93kmIgDDAD4ccB1vDysLVQHHEX/aT7o3p0BArzEAaYB+HHAp1jQ9WZbiA74BgtKF1xjggAPcYAFAD8OwMrDdrWF6AC8DMxrT9Hw4wDbAPw4AC8PawvNAW9gZWBee4oyEAdAAPDigFpHeVhYDsDLwM4V0Vc47DgANgA3DsDLw9pCcsB0rAysiL7CoccBCAC8OKANLw9rC8UBzVg3sC+L6y0ebhwA7k1z6IA38fKwMBxwcCFWBvZjUb3FQ44DwL33cugAvHvYurYQHICVga0sfr5AmHEAuPdeHh3gKA9rK7sDWvEysKLnC4QaB6gAcOiArlh52IXL5XbAtaHoP8GBkmaMhBcHaADw6AC8PKytzA7ApsfvLmnGSIhxgA4Afw6o/RQvD2srqwMOYWcRC0qdMxRWHABuvZdTB2DlYavayuqAVejf/Y1S5wyFFgeAW2/l1AHX8fKw2jI6YDZWBlblw6yxcOIAcOutvDrAUR5WWzYH4GVg3/gwayykOEAFgFcH4OVhtWVzAFYGdtSneYNhxAGg/63cOsBRHlZbJgdgZWCjv/Rn3mAocQDo359bB1zfi5eHlccBv6Bt60CTfzNHyx8HgP79OXYAXh5WWxYH4GVg/s0cDSEOAP37p/l1AF4e9n5tGRywEws+D/o6d7i8DtANwLEDHOVhwTugAmtePftHP+cOl90BGgAcOwAvD6sN3AFYGVj9j77NHQ7FAboB+HWAozysNmAHHET7U88/VOXz7PEyO8AAgFcH1Gbx8rDaYB3QgZWBbfd19ngIDjANwK0DHOVhPwTqALwM7EffZo+H5AALAG7jgLNYYcakIB2wBCsDa/Rl9niYDrANwK0D8PKw2trgHICVgS0refZ46A6AAODVAZOw35VbagNzAF4GtqSE2eOMOAA2AK8OcJSHBeWACizeONDhffY4aw5AAODVAXh5WCIgB5xH/z7TO+j7CDHrANQAnDrAUR6WCMQBC/AyME+9xBh1ALirvwAOcJSHBeIA7NTxDW+9xBh1ALjrLhEcgJeHJQJwAF4GVuG1nyCTDgB33SWCA77Gy8MSvjtgCV4G5rmfIJMOUAEQwQF4eVjCdwe8iP4d5hTTU5RBB2gA8O+AxEd4eVjCZwc0YtVHS4rpKcqgA3QABHAAVh428rK/DtiEl4EV2VeYOQcYAAgQB+DlYQlfHTAH/W9/sdi+wsw5wASAfwd8iJeHJXx0AF4GtrX43uKMOcACgH8HOMrD/HPAWrwMrITe4ow5wAaAfwfg5WEJ3xxwBSsD6yhpvgBTDoAA4N4BjvKwhE8O2Ip1AztU2nwBphwAA8C9A/DysIRPDsDKwM6XPGOEHQfcjADAuwOu4+VhCV8c0ISXgZU8Y4QZB9yHAcC7A87i3cP8cMAmrOBktR9zhphxAHjsLpEcgJeHJXxwwDKsDMyXOUPMOAA89phIDsC7h21JlOyAvXgZmE+zxhhxAHjsMZEc0I6Vh736Q6kOWIvFFdv8mjXGiANUAIRygKM8rEQH4GVgPTv7Nm+QCQdoAIjkAGd5WEkO2IidLWz0cd4gEw7QARDJAXh52PWSHICdLl7xd+YoAw4wABDIAdfrHeVhxTsAKwObu9bfmaMMOMAEQCAHvO0sDyvWAXgZ2Bbf5w6H7gALAHEccB0rD5uSKNoBWI3BHP/nDofuABsAcRyAl4etri3SAXgZ2KYgZo+H7ABw02PiOcDRPaw4B6zFy8ACmT0esgPATTcJ6AC8PCybKMYBWBnYmEBmj4ftAHDTTQI6wFEeli3CAW9iweSSIGaPh+4AFQABHYCXh1337oCL2Guj2T/3/FlAB2gAiOcAR/ewrGcH7MfKwHoGMXs8fAfoAIjnAEd5WNajA5ZjZWAbewYwe5wBBxgAiOcAvDws69EBWBnYrEBmjzPgABMA4RxwfQ1WHpb15AC868jaIGaPs+AAMPgmQR3gKA/z4gDHWLpAZo+z4AAweLCoDsDLw7IeHID/2kBmjzPhADB4sKAOaHeUh2WpHbAFKwPbFMTscTYcoAIgqgPw8rCPaikJuIiXgQUye5wNB2gAiBoH4OVhWToHXMYyiOmBzB5nxAE6AII6wFEedp2KALwMbGsQs8dZcYABgKAOcJSHUTkAO0XcH8jscVYcYAIgqAPw7mFZCgK+x8rALgcxe5wZB1gAiOkAR/ewwgTgc4jeDGL2ODsOsAEQ0wF497BsQQLwMrBAZo+z4wAIACEdgJWHgdWFCFiNVRNNCmL2OEMOgAEQ0gGO8rD8BFzEysAaA5k9zpADEABEdMBVR3lYXgLwMrBAZo+z5AAUABEd4CwPy0PA+3gZWBCzx5lyAHh2sOAOaMfLw7J5CMC6gX0fyOxxphwAnn1WeAdgBzvb3AnAWGkIZPY4Ww4Atz8ruAPa27HysLldXQlYgx0dBzF7nDEHgNtvF90B7dhwybrLtS4ETEIzhlk/BDF7nDEHgNtvF98BH6HXu293dXHA28hfNvRiELPHWXOACoD4DvgC+a39RVcXAt5Ey8CCmD3OnAM0AMR3wGIcACIBCACLA5k9zpwDdACEd8CfHQCQCEAAmBLE7HH2HGAAILoDCAA4CWhDAHgvgNnjDDoA9L1dBgeQAHASgAIQwOxxBh0A+vaVwQFEAHACMAP4P3ucRQeAvoNlcAAZAJwAHAAZHAD69pXBAS4AoAQ4DCCDA1QDSOAANwBQApwAiO8AzQDiO8AVAJiAWgIAwjsA9NUUILoD3AGACSABILoDdAMMFt0Br8Nb+35XMgGYAXyePc6oA4xPgOhxAApANxcCMABqZXAA6Gt8A8R2AAaACwFfYADI4ADbAEI7AAFg16y9HxEIWP6P3TgAEjjAigHEdsDraK0XmL/mf5Y2fj3JnDHwxYpZi49hf8l7fs4eZ9cBpgEEzwVwAIx1aez60QvHXiL+/97zcfY4ww6wABA7F3ABIN96z8fZ4ww7AAZA4FygKAASMjgA9EW+AYI64Ikj3gE479vscaYdgBtAUAds8w7AtmxCBgdgMYCgDrh6faHX/V942a/Z42w7ADzsUICIDrjqVQF1ixJ+zR5n2wHgYZQAQXOBq1ev1Hna/1mJRCIhgwPAww4CxIwDru6tp0agrv6L4maMcOgAFYCH8W+AmA64+taixZcotv/VHRuz2Ww2IYcDNAAe7itHLtCp/cN/LB6bb/Mn7NrxdjZ7PZvNZiVxgA7Aw1LkAvqpcKevXxgzmvQ1mL9rx4rLbq/GhHUAePRhpwPEvhd4or29/aOvV1x5fXfDmpHrx66/MLdh8ZGlq5dfb+/anu3qlQDeHQAeJREgQY2QUS/erjYQaO/Wtf26W6Wo4A4Aj/YlEyDHewHH7PEiCODbAeDRRwkOkKBGyEcCuHaAagCyAwZHDpDBAZoBiA7oGzlABgeARzUFyJcLRA6wAHBxgDS5gNwO0ABwc0CUC4jvAMsAUS4gpwMMAFwdEOUCgjsAMkCUC8joAAuAKBeQ0wGIAaJcQD4HQABEuYCMDsAMEOUCsjkAAUD0XODD16G17SpEwLbX/2yv5TI5wGEAkXOB1+ACoNe99w8Q0QGg16M0DhAjF/g7AYBORADkcQDo1YvCAYLkAkQAOhEBkMYBoFcvOgeIkAuQAehEBEAWB6gA9KKKAwTIBVwA6EQEQBIHaABQOoD7XAAFwLV/wPsynQfoABedzCMAAAxQSURBVPSSIxfAAIAIIAIghQMMAOTIBVAA4BMhMgAyOMAEQIpcAAMAIsAFAAkcYAEgQy6AA2ATgAIg072ADYAEuQAGAHQvgAEg0b0ABID4uYDDABYBCACvyXQ3CAMgfC7gAMBygAMAaRyAACB6LkAwgEGAEwBZHIACIHguQADAcAABAEkcAPr18u4AXnMBogE0AkgAyOEA0K+fZwdwmwsQAdAcQARACgeAfv2KcgCXuYCLASorXQCQwQEqAMU4gPFcIPnR2W0vONYOMgCdKisRAHb8A18vLNp7WVAHaAAU4wCmc4GrO0aQ2v8BNwNUFu4mPuLIZSEdoAPQT6hcIPfKLop2gB4BAGDXhyI6wABArFxgMQgCALBYxDjABECgXCB3FgQDANgrYBxgASBQLnAkKACOtIvnABsAUXKBXLwhKAAaBDwPgAAQJRfIbabazTlwsRidNDa3i3ceAO7pV4IDWMwFcpSfgBdgA7xA9UvWCXgmCO65pzQHsJcL5F6j2cz538IAvDWf5tecFfBMENxzT0kOYC4XiNOlgXU7kBcDV3fQpIEi3guoAJTqAKZygWQ8F3/l1cKbiT0aai8Mzci3RLwXAAPvKdkB7OQC8aS6/8n4twUIGLsUfzV29erSsQX2/1Mh7wbBwIGlO4CdXEDd/1w8l3xlpDPts+6Etp0lvRy92g7dH71H2H8x7wbBwIElO4CZXEDffdUBOedXYMRrxu1wn1wf8uvxq1fN68G/O2ww8kNB6wNUAHxwAEu5gPYVSDoJGG4SoFYHVObrI+Sy/0LWB4CBA/sN9CEOYCUX0KMAMgGmAypzlX3y9RFy3X8RHaAZwBcHMJILJM2vAImAv/fRCOhzo4pApQsBefZfQAdoAPjiABZygWQ8nlS/Ankd0EdTgGsnqbz7L54DDAMIkwuoAjAjAXcHVOb0z0AloY8QYf9F7idoANBPiFwgqSpAjQK0P3q4xwF9ciYCji4ypP0XuZ+gZQBBcgH1GChnxIF54wCXHiLk/Re4p6gFAO+5QA8jBtAgUH96JHv0yJcLEDtIuO2/uA6ADMB7LtBD23v9D4OBHt4ckGf/hXUABADXuYBi5wHY7TC9A0j7L3xfYcQAXOcCSs6MArRgMJmPAKIDSPsvfm9xBACOcwElHleUnAaBBkLSswOI+y9+b3HMAPzmAgqSCsTN4wBqB7jsv/DzBTAAeM0FFO1/dAUYFvAWB7jtv/DzBRwG4DQXULSPABQJeosDXH//C+8A8PzAABxQ7lzAtIBihoIe44B8+y+2A7qD558PwgHlzgUU4yOg/mGHgrRxQN7f/4I7ANz/fAAOCCUXUOLWZ0BJeokDCPv/ljRzhsD99wfjgHLnAooZCWpfAI0Ayjig0P6L7QBw//2BOKCsuYCiKGn7GwCdCNHEATT7L7ADwID7A3NA+XIBJa7YHwDtg5CjPQ+g+v0vsAPAgAGBOaBcuYCixJR0PG1/A5ScFgw64wDne4ERlPsvrAPAgIHBOaBcuYASV/dfsU8DFMP/FHEA5e9/YR0ABgwIzAFlygUURQ8DlLSC5gJ0cQC+/5LNHFUNEKADypIL6AJII4cB6qkw5XkAvv9yzR3WDBBgHBB0LhBLKzFj/9NGLuD5PADff6kcoBtgIOe5gBIzMED3n/Y8wN5/+WaPGwbgOBeIpRVLAqoDjL33dB5g7790s8dNA3CdCygx4ydtnAdYV8S05wH2/svmAMsA/OYCsVg6HYd+oOtht/MAEgEj3yo0fV5IB6gABO6AoHMB/RwoDSUDiskA9XnAyLcKTp8X0gGQAbjNBWLqn7S9144D1DgAZoAqDtD2PyehA3QABvKdC8RiqvnhXMDefbrzAGP/JXQAYgBucwHbAVYuYCYDVOcBI7+lmT4vpANMAPjOBWLqWQAUBZr1AdaJMOk8wL4ZevVbqunzQjoAMwCnuUAMc0Base4G3c8D4q8YPWU3v0I3fV5IB9gA8J0LxPRdtzOBNBoIks4D4smzrzfUHzmrtpdNyuoAhwE4zQVieiAAGSBtPxghnQeoj8eTah+RXC5HOX1eSAfAAPCdC+hxgJULKGatsP6/nOcBWjMxbfdzySIIEMUBBAPwmgvE9PoA591gnFAfYDSS0vaddvq8kA5AAeA8F1BjQQU6EDQvBsn1AXpDuWSOevq8kA4ATw8oowPKkAvErQIBIw6wi0Tg84BkPGlLICmxA8DTT5fXAQHnAgYCilkniDwXgM8DcnZDwaTMDgBPP11WBwR8L6Bmg+l0HAoE7FJR5DzA2v0ekjtABaDcDgi2RshxImA/HLXPA3JxSwAlfQX4d4AGQJkdUM57gbSStp+O2+cBRh8hs5eYxA7QAXhaoFwAuhtUzDPBOPpeQO8ikUzG9Uygh8wOAIOeLrsDgq4RipnnAdbXQMHfC+iHQtongH76vJAOAIMGheGAYGuErFTAMACy/1AbGaO1fIkE8O0AMGhQCA4IPBdA7gXMWmH0hjiOXA5K6wAwaEBIDgj4XgCpE4VPg4wTQaujrA8E8OwA1QDhOKBvoHeDcC5gvhuEzwThXEBqB6gGCMkBQdcIWacBMezdoBYI6NMl9ObyMjtAN8Ag8XIBnYCYdTEAvRuEwoAkWissoQNUAEJzQOD3Agp0MaDguYDNgcxxgGkA8XKBmHE1FINiQaSLjBkGyh0H6AAMEDgXUFxyAWTQTFJaB9gGED0XMAIB6EQgR3wzJJkDTACEzQXgd4MKMRfMSR0HwAYQMhdQ7wX0myFTAZAByG+HpXKADYCguYD5djwWh3MBs60w+e2wTA5ADSD0vYASS8cVvX8AdiIgcxwAAyBuLqDoDoCaiUHHATmp4wDcAGLmAjGtjQySDyr53w5L4wAUAHHvBfC7QeQLQHo7LIsDnAYQLxcwzwP0RlJ2D5H8vcQkcQB4ahAbDgj8XkCN/qADAQWeMyTxeQB46ikmHBD8vUAaKRJKx+1BQ1KfB4BhTzHjgMEB9w8w+khB5wFK/l5iMjgADBvGjAMCfzvs7Cdo9xSUNQ4Aw4ax44DA3ws4+gmamy/teYAGACsOKFeNkJkM2HGAtOcBFZ01ABiKA8pRI4SeB9hvRaQ8D9ABGCZFLoATYM0YUSQ+DzAAkCYXiKG9xbFqYQnPA0wA5MgFYqYEYoQSITnPAywAJMkFoDrBGH43qMh4HmADIEcuYNcJ6reD+XuJSeAACAA5coGY1T8AKhSMW9GAeiCQlCkOgAEYJtO9QDxmRQHQ1FEoJ5QkDgDPDWPSAYODd0DcDASs6fPWqaBE7wXAc88x6YAyvBewckFs7qy++bLEAeC559h0QMC5QNy+HdT7CmP3QtKcB6gAsOiAMrwXsPsHaH/Y4+agJjLixwEaAIzGAX0DnjPkvBu0kgF5zgN0AJ6TLhew2srCfYTwoaMyxAEGAPLlAoS7QWu4gHYkLEl9gAmAnLlADH07bIeCcWnqAywApMwFzDdDVkdBJBmUoj7ABkDKXECrEYLnDJnHQYos9QHg98+x7YDga4QUZM4QciQkQX0AGPJ7ph1Q1p6i9q2APO8FwJAhzDsg6Flj1pAZ9L2AHPUBYMgQ5h0Q9HuBuFUmpij2ewFFjvoAMGQY+w4IOBdI42+HoTJB4esDVAOw7oCgcwFHX2Fnb3Fx4wAwZMiwIcOGSJ8LmNPmYtioMes8UNQ4QDfAEKlzAUc/QSQO0JIBcesDNAC4cEDwc4fd4oB4ThH3PMA0gNy5AMEB0KwxqDxEvDjAAIAHBwReI4S/G7S+AjmB6wNsA8ieC+izx602Qgoya0rcvsIWAFEuoF0MEHqJ6dUB1kdAsDgANkCUC8QKzRoTLw6AAIhyAbhGKIbOF1AdYJSKihUHoAaIcgHMAVYiYLwd1kNBkeIABIAoFyD0ELGqxa2587oDknEhHIAbQPpcAK4RMt8OW/2krBcD5tBh/h2AARDlAlqNENRDBCsUhQ6FzGyAbwc4DTAkqhGCeohAb4bg0wBxcgEHAFEugJwKKtC9gFEgINaZIMkAUS6A9RLDRk0JdSZIACDKBaxeYlg/QcV4MiRSjRDZANG9QNxxHuAIBsWIA8DLQ/h0QMC5gJoMxGwLKHhnYWFqhMDLL3PpgMBzAdgBehyAKkCUGiHw8svcOiDYXIBcH6LEBeshogLAqwOCfS8QQ0eMoDNGxOkhogHAqwPKfi+goJfDIpwH6AC8HOUCBfsHwLmAQD1E/h+kAJGbwArRCQAAAABJRU5ErkJggg==;" vertex="1" parent="WIyWlLk6GJQsqaUBKTNV-1">
          <mxGeometry x="60" y="450" width="50" height="50" as="geometry" />
        </mxCell>
        <mxCell id="Hey_0Endjz0srx_wIcTM-23" value="Data Cleaning, Analysis" style="text;html=1;align=center;verticalAlign=middle;whiteSpace=wrap;rounded=0;" vertex="1" parent="WIyWlLk6GJQsqaUBKTNV-1">
          <mxGeometry x="120" y="490" width="80" height="40" as="geometry" />
        </mxCell>
        <mxCell id="Hey_0Endjz0srx_wIcTM-24" value="&lt;h1 style=&quot;margin-top: 0px;&quot;&gt;End-to-End Stock Predictor Dashboard&lt;/h1&gt;&lt;div&gt;&lt;br&gt;&lt;/div&gt;" style="text;html=1;whiteSpace=wrap;overflow=hidden;rounded=0;" vertex="1" parent="WIyWlLk6GJQsqaUBKTNV-1">
          <mxGeometry x="370" y="40" width="180" height="120" as="geometry" />
        </mxCell>
      </root>
    </mxGraphModel>
  </diagram>
</mxfile>
